<svg width="128" height="30" viewBox="0 0 128 30" fill="none" xmlns="http://www.w3.org/2000/svg">
<path d="M2.20704 4.66274H0.291713C0.130604 4.66274 0 4.79452 0 4.95708L0 6.88967C0 7.05223 0.130604 7.18401 0.291713 7.18401H2.20704C2.36814 7.18401 2.49875 7.05223 2.49875 6.88967V4.95708C2.49875 4.79452 2.36814 4.66274 2.20704 4.66274Z" fill="white"/>
<path d="M5.66313 4.66274H3.79963C3.63842 4.66274 3.50792 4.79442 3.50792 4.95708V6.88967C3.50792 7.05233 3.63842 7.18401 3.79963 7.18401H5.66313C5.85313 7.18401 6.00667 7.02909 6.00667 6.83738V5.0113C6.00667 4.81959 5.85313 4.66468 5.66313 4.66468V4.66274Z" fill="white"/>
<path d="M9.22109 4.66274H7.30577C7.14466 4.66274 7.01405 4.79452 7.01405 4.95708V6.88967C7.01405 7.05223 7.14466 7.18401 7.30577 7.18401H9.22109C9.3822 7.18401 9.5128 7.05223 9.5128 6.88967V4.95708C9.5128 4.79452 9.3822 4.66274 9.22109 4.66274Z" fill="white"/>
<path d="M12.7289 4.66274H10.8136C10.6525 4.66274 10.5219 4.79452 10.5219 4.95708V6.88967C10.5219 7.05223 10.6525 7.18401 10.8136 7.18401H12.7289C12.8901 7.18401 13.0207 7.05223 13.0207 6.88967V4.95708C13.0207 4.79452 12.8901 4.66274 12.7289 4.66274Z" fill="white"/>
<path d="M16.2466 8.17869H14.3313C14.1702 8.17869 14.0396 8.31048 14.0396 8.47304V10.4056C14.0396 10.5682 14.1702 10.7 14.3313 10.7H16.2466C16.4077 10.7 16.5383 10.5682 16.5383 10.4056V8.47304C16.5383 8.31048 16.4077 8.17869 16.2466 8.17869Z" fill="white"/>
<path d="M12.7289 8.17869H10.8136C10.6525 8.17869 10.5219 8.31048 10.5219 8.47304V10.4056C10.5219 10.5682 10.6525 10.7 10.8136 10.7H12.7289C12.8901 10.7 13.0207 10.5682 13.0207 10.4056V8.47304C13.0207 8.31048 12.8901 8.17869 12.7289 8.17869Z" fill="white"/>
<path d="M9.22109 8.17869H7.30577C7.14466 8.17869 7.01405 8.31048 7.01405 8.47304V10.4056C7.01405 10.5682 7.14466 10.7 7.30577 10.7H9.22109C9.3822 10.7 9.5128 10.5682 9.5128 10.4056V8.47304C9.5128 8.31048 9.3822 8.17869 9.22109 8.17869Z" fill="white"/>
<path d="M5.71495 8.17768H3.85145C3.66145 8.17768 3.50792 8.3326 3.50792 8.52431V10.3504C3.50792 10.5421 3.66145 10.697 3.85145 10.697H5.71495C5.87616 10.697 6.00667 10.5653 6.00667 10.4027V8.47009C6.00667 8.30743 5.87616 8.17575 5.71495 8.17575V8.17768Z" fill="white"/>
<path d="M2.2071 8.17869H0.291774C0.130666 8.17869 6.13648e-05 8.31048 6.13648e-05 8.47304L6.13648e-05 10.4056C6.13648e-05 10.5682 0.130666 10.7 0.291774 10.7H2.2071C2.36821 10.7 2.49881 10.5682 2.49881 10.4056V8.47304C2.49881 8.31048 2.36821 8.17869 2.2071 8.17869Z" fill="white"/>
<path d="M2.15528 11.6937H0.343591C0.153865 11.6937 6.13648e-05 11.8489 6.13648e-05 12.0403L6.13648e-05 13.8683C6.13648e-05 14.0597 0.153865 14.2149 0.343591 14.2149H2.15528C2.34501 14.2149 2.49881 14.0597 2.49881 13.8683V12.0403C2.49881 11.8489 2.34501 11.6937 2.15528 11.6937Z" fill="white"/>
<path d="M5.71495 11.6927H3.85145C3.66145 11.6927 3.50792 11.8476 3.50792 12.0393V13.8654C3.50792 14.0571 3.66145 14.212 3.85145 14.212H5.71495C5.87616 14.212 6.00667 14.0803 6.00667 13.9176V11.9851C6.00667 11.8224 5.87616 11.6907 5.71495 11.6907V11.6927Z" fill="white"/>
<path d="M9.22109 11.6937H7.30577C7.14466 11.6937 7.01405 11.8254 7.01405 11.988V13.9206C7.01405 14.0832 7.14466 14.2149 7.30577 14.2149H9.22109C9.3822 14.2149 9.5128 14.0832 9.5128 13.9206V11.988C9.5128 11.8254 9.3822 11.6937 9.22109 11.6937Z" fill="white"/>
<path d="M12.7289 11.6937H10.8136C10.6525 11.6937 10.5219 11.8254 10.5219 11.988V13.9206C10.5219 14.0832 10.6525 14.2149 10.8136 14.2149H12.7289C12.8901 14.2149 13.0207 14.0832 13.0207 13.9206V11.988C13.0207 11.8254 12.8901 11.6937 12.7289 11.6937Z" fill="white"/>
<path d="M16.2466 11.6937H14.3313C14.1702 11.6937 14.0396 11.8254 14.0396 11.988V13.9206C14.0396 14.0832 14.1702 14.2149 14.3313 14.2149H16.2466C16.4077 14.2149 16.5383 14.0832 16.5383 13.9206V11.988C16.5383 11.8254 16.4077 11.6937 16.2466 11.6937Z" fill="white"/>
<path d="M19.7532 11.6937H17.8379C17.6768 11.6937 17.5461 11.8254 17.5461 11.988V13.9206C17.5461 14.0832 17.6768 14.2149 17.8379 14.2149H19.7532C19.9143 14.2149 20.0449 14.0832 20.0449 13.9206V11.988C20.0449 11.8254 19.9143 11.6937 19.7532 11.6937Z" fill="white"/>
<path d="M19.7532 15.2086H17.8379C17.6768 15.2086 17.5461 15.3404 17.5461 15.503V17.4356C17.5461 17.5981 17.6768 17.7299 17.8379 17.7299H19.7532C19.9143 17.7299 20.0449 17.5981 20.0449 17.4356V15.503C20.0449 15.3404 19.9143 15.2086 19.7532 15.2086Z" fill="white"/>
<path d="M16.2466 15.2086H14.3313C14.1702 15.2086 14.0396 15.3404 14.0396 15.503V17.4356C14.0396 17.5981 14.1702 17.7299 14.3313 17.7299H16.2466C16.4077 17.7299 16.5383 17.5981 16.5383 17.4356V15.503C16.5383 15.3404 16.4077 15.2086 16.2466 15.2086Z" fill="white"/>
<path d="M12.7289 15.2086H10.8136C10.6525 15.2086 10.5219 15.3404 10.5219 15.503V17.4356C10.5219 17.5981 10.6525 17.7299 10.8136 17.7299H12.7289C12.8901 17.7299 13.0207 17.5981 13.0207 17.4356V15.503C13.0207 15.3404 12.8901 15.2086 12.7289 15.2086Z" fill="white"/>
<path d="M9.22029 15.2086H7.30497C7.14386 15.2086 7.01325 15.3404 7.01325 15.503V17.4356C7.01325 17.5981 7.14386 17.7299 7.30497 17.7299H9.22029C9.3814 17.7299 9.512 17.5981 9.512 17.4356V15.503C9.512 15.3404 9.3814 15.2086 9.22029 15.2086Z" fill="white"/>
<path d="M5.71495 15.2076H3.85145C3.66145 15.2076 3.50792 15.3625 3.50792 15.5543V17.3803C3.50792 17.572 3.66145 17.727 3.85145 17.727H5.71495C5.87616 17.727 6.00667 17.5953 6.00667 17.4326V15.5C6.00667 15.3374 5.87616 15.2057 5.71495 15.2057V15.2076Z" fill="white"/>
<path d="M2.2071 15.2067H0.291774C0.130666 15.2067 6.13648e-05 15.3385 6.13648e-05 15.501L6.13648e-05 17.4336C6.13648e-05 17.5962 0.130666 17.7279 0.291774 17.7279H2.2071C2.36821 17.7279 2.49881 17.5962 2.49881 17.4336V15.501C2.49881 15.3385 2.36821 15.2067 2.2071 15.2067Z" fill="white"/>
<path d="M2.2071 18.7226H0.291774C0.130666 18.7226 6.13648e-05 18.8544 6.13648e-05 19.017L6.13648e-05 20.9496C6.13648e-05 21.1121 0.130666 21.2439 0.291774 21.2439H2.2071C2.36821 21.2439 2.49881 21.1121 2.49881 20.9496V19.017C2.49881 18.8544 2.36821 18.7226 2.2071 18.7226Z" fill="white"/>
<path d="M5.66316 18.7138H3.79965C3.60966 18.7138 3.45612 18.8687 3.45612 19.0604V20.8865C3.45612 21.0782 3.60966 21.2331 3.79965 21.2331H5.66316C5.82437 21.2331 5.95487 21.1014 5.95487 20.9388V19.0062C5.95487 18.8435 5.82437 18.7118 5.66316 18.7118V18.7138Z" fill="white"/>
<path d="M9.22109 18.7226H7.30577C7.14466 18.7226 7.01405 18.8544 7.01405 19.017V20.9496C7.01405 21.1121 7.14466 21.2439 7.30577 21.2439H9.22109C9.3822 21.2439 9.5128 21.1121 9.5128 20.9496V19.017C9.5128 18.8544 9.3822 18.7226 9.22109 18.7226Z" fill="white"/>
<path d="M12.7289 18.7226H10.8136C10.6525 18.7226 10.5219 18.8544 10.5219 19.017V20.9496C10.5219 21.1121 10.6525 21.2439 10.8136 21.2439H12.7289C12.8901 21.2439 13.0207 21.1121 13.0207 20.9496V19.017C13.0207 18.8544 12.8901 18.7226 12.7289 18.7226Z" fill="white"/>
<path d="M16.2466 18.7226H14.3313C14.1702 18.7226 14.0396 18.8544 14.0396 19.017V20.9496C14.0396 21.1121 14.1702 21.2439 14.3313 21.2439H16.2466C16.4077 21.2439 16.5383 21.1121 16.5383 20.9496V19.017C16.5383 18.8544 16.4077 18.7226 16.2466 18.7226Z" fill="white"/>
<path d="M12.7289 22.2347H10.8136C10.6525 22.2347 10.5219 22.3664 10.5219 22.529V24.4616C10.5219 24.6241 10.6525 24.7559 10.8136 24.7559H12.7289C12.8901 24.7559 13.0207 24.6241 13.0207 24.4616V22.529C13.0207 22.3664 12.8901 22.2347 12.7289 22.2347Z" fill="white"/>
<path d="M9.22109 22.2347H7.30577C7.14466 22.2347 7.01405 22.3664 7.01405 22.529V24.4616C7.01405 24.6241 7.14466 24.7559 7.30577 24.7559H9.22109C9.3822 24.7559 9.5128 24.6241 9.5128 24.4616V22.529C9.5128 22.3664 9.3822 22.2347 9.22109 22.2347Z" fill="white"/>
<path d="M5.71495 22.2346H3.85145C3.66145 22.2346 3.50792 22.3895 3.50792 22.5813V24.4073C3.50792 24.599 3.66145 24.754 3.85145 24.754H5.71495C5.87616 24.754 6.00667 24.6223 6.00667 24.4596V22.527C6.00667 22.3644 5.87616 22.2327 5.71495 22.2327V22.2346Z" fill="white"/>
<path d="M2.2071 22.2347H0.291774C0.130666 22.2347 6.13648e-05 22.3664 6.13648e-05 22.529L6.13648e-05 24.4616C6.13648e-05 24.6241 0.130666 24.7559 0.291774 24.7559H2.2071C2.36821 24.7559 2.49881 24.6241 2.49881 24.4616V22.529C2.49881 22.3664 2.36821 22.2347 2.2071 22.2347Z" fill="white"/>
<path d="M2.20704 4.66274H0.291713C0.130604 4.66274 0 4.79452 0 4.95708L0 6.88967C0 7.05223 0.130604 7.18401 0.291713 7.18401H2.20704C2.36814 7.18401 2.49875 7.05223 2.49875 6.88967V4.95708C2.49875 4.79452 2.36814 4.66274 2.20704 4.66274Z" fill="white"/>
<path d="M5.66313 4.66274H3.79963C3.63842 4.66274 3.50792 4.79442 3.50792 4.95708V6.88967C3.50792 7.05233 3.63842 7.18401 3.79963 7.18401H5.66313C5.85313 7.18401 6.00667 7.02909 6.00667 6.83738V5.0113C6.00667 4.81959 5.85313 4.66468 5.66313 4.66468V4.66274Z" fill="white"/>
<path d="M9.22109 4.66274H7.30577C7.14466 4.66274 7.01405 4.79452 7.01405 4.95708V6.88967C7.01405 7.05223 7.14466 7.18401 7.30577 7.18401H9.22109C9.3822 7.18401 9.5128 7.05223 9.5128 6.88967V4.95708C9.5128 4.79452 9.3822 4.66274 9.22109 4.66274Z" fill="white"/>
<path d="M12.7289 4.66274H10.8136C10.6525 4.66274 10.5219 4.79452 10.5219 4.95708V6.88967C10.5219 7.05223 10.6525 7.18401 10.8136 7.18401H12.7289C12.8901 7.18401 13.0207 7.05223 13.0207 6.88967V4.95708C13.0207 4.79452 12.8901 4.66274 12.7289 4.66274Z" fill="white"/>
<path d="M16.2466 8.17869H14.3313C14.1702 8.17869 14.0396 8.31048 14.0396 8.47304V10.4056C14.0396 10.5682 14.1702 10.7 14.3313 10.7H16.2466C16.4077 10.7 16.5383 10.5682 16.5383 10.4056V8.47304C16.5383 8.31048 16.4077 8.17869 16.2466 8.17869Z" fill="white"/>
<path d="M12.7289 8.17869H10.8136C10.6525 8.17869 10.5219 8.31048 10.5219 8.47304V10.4056C10.5219 10.5682 10.6525 10.7 10.8136 10.7H12.7289C12.8901 10.7 13.0207 10.5682 13.0207 10.4056V8.47304C13.0207 8.31048 12.8901 8.17869 12.7289 8.17869Z" fill="white"/>
<path d="M9.22109 8.17869H7.30577C7.14466 8.17869 7.01405 8.31048 7.01405 8.47304V10.4056C7.01405 10.5682 7.14466 10.7 7.30577 10.7H9.22109C9.3822 10.7 9.5128 10.5682 9.5128 10.4056V8.47304C9.5128 8.31048 9.3822 8.17869 9.22109 8.17869Z" fill="white"/>
<path d="M5.71495 8.17768H3.85145C3.66145 8.17768 3.50792 8.3326 3.50792 8.52431V10.3504C3.50792 10.5421 3.66145 10.697 3.85145 10.697H5.71495C5.87616 10.697 6.00667 10.5653 6.00667 10.4027V8.47009C6.00667 8.30743 5.87616 8.17575 5.71495 8.17575V8.17768Z" fill="white"/>
<path d="M2.2071 8.17869H0.291774C0.130666 8.17869 6.13648e-05 8.31048 6.13648e-05 8.47304L6.13648e-05 10.4056C6.13648e-05 10.5682 0.130666 10.7 0.291774 10.7H2.2071C2.36821 10.7 2.49881 10.5682 2.49881 10.4056V8.47304C2.49881 8.31048 2.36821 8.17869 2.2071 8.17869Z" fill="white"/>
<path d="M2.15528 11.6937H0.343591C0.153865 11.6937 6.13648e-05 11.8489 6.13648e-05 12.0403L6.13648e-05 13.8683C6.13648e-05 14.0597 0.153865 14.2149 0.343591 14.2149H2.15528C2.34501 14.2149 2.49881 14.0597 2.49881 13.8683V12.0403C2.49881 11.8489 2.34501 11.6937 2.15528 11.6937Z" fill="white"/>
<path d="M5.71495 11.6927H3.85145C3.66145 11.6927 3.50792 11.8476 3.50792 12.0393V13.8654C3.50792 14.0571 3.66145 14.212 3.85145 14.212H5.71495C5.87616 14.212 6.00667 14.0803 6.00667 13.9176V11.9851C6.00667 11.8224 5.87616 11.6907 5.71495 11.6907V11.6927Z" fill="white"/>
<path d="M9.22109 11.6937H7.30577C7.14466 11.6937 7.01405 11.8254 7.01405 11.988V13.9206C7.01405 14.0832 7.14466 14.2149 7.30577 14.2149H9.22109C9.3822 14.2149 9.5128 14.0832 9.5128 13.9206V11.988C9.5128 11.8254 9.3822 11.6937 9.22109 11.6937Z" fill="white"/>
<path d="M12.7289 11.6937H10.8136C10.6525 11.6937 10.5219 11.8254 10.5219 11.988V13.9206C10.5219 14.0832 10.6525 14.2149 10.8136 14.2149H12.7289C12.8901 14.2149 13.0207 14.0832 13.0207 13.9206V11.988C13.0207 11.8254 12.8901 11.6937 12.7289 11.6937Z" fill="white"/>
<path d="M16.2466 11.6937H14.3313C14.1702 11.6937 14.0396 11.8254 14.0396 11.988V13.9206C14.0396 14.0832 14.1702 14.2149 14.3313 14.2149H16.2466C16.4077 14.2149 16.5383 14.0832 16.5383 13.9206V11.988C16.5383 11.8254 16.4077 11.6937 16.2466 11.6937Z" fill="white"/>
<path d="M19.7532 11.6937H17.8379C17.6768 11.6937 17.5461 11.8254 17.5461 11.988V13.9206C17.5461 14.0832 17.6768 14.2149 17.8379 14.2149H19.7532C19.9143 14.2149 20.0449 14.0832 20.0449 13.9206V11.988C20.0449 11.8254 19.9143 11.6937 19.7532 11.6937Z" fill="white"/>
<path d="M19.7532 15.2086H17.8379C17.6768 15.2086 17.5461 15.3404 17.5461 15.503V17.4356C17.5461 17.5981 17.6768 17.7299 17.8379 17.7299H19.7532C19.9143 17.7299 20.0449 17.5981 20.0449 17.4356V15.503C20.0449 15.3404 19.9143 15.2086 19.7532 15.2086Z" fill="white"/>
<path d="M16.2466 15.2086H14.3313C14.1702 15.2086 14.0396 15.3404 14.0396 15.503V17.4356C14.0396 17.5981 14.1702 17.7299 14.3313 17.7299H16.2466C16.4077 17.7299 16.5383 17.5981 16.5383 17.4356V15.503C16.5383 15.3404 16.4077 15.2086 16.2466 15.2086Z" fill="white"/>
<path d="M12.7289 15.2086H10.8136C10.6525 15.2086 10.5219 15.3404 10.5219 15.503V17.4356C10.5219 17.5981 10.6525 17.7299 10.8136 17.7299H12.7289C12.8901 17.7299 13.0207 17.5981 13.0207 17.4356V15.503C13.0207 15.3404 12.8901 15.2086 12.7289 15.2086Z" fill="white"/>
<path d="M9.22029 15.2086H7.30497C7.14386 15.2086 7.01325 15.3404 7.01325 15.503V17.4356C7.01325 17.5981 7.14386 17.7299 7.30497 17.7299H9.22029C9.3814 17.7299 9.512 17.5981 9.512 17.4356V15.503C9.512 15.3404 9.3814 15.2086 9.22029 15.2086Z" fill="white"/>
<path d="M5.71495 15.2076H3.85145C3.66145 15.2076 3.50792 15.3625 3.50792 15.5543V17.3803C3.50792 17.572 3.66145 17.727 3.85145 17.727H5.71495C5.87616 17.727 6.00667 17.5953 6.00667 17.4326V15.5C6.00667 15.3374 5.87616 15.2057 5.71495 15.2057V15.2076Z" fill="white"/>
<path d="M2.2071 15.2067H0.291774C0.130666 15.2067 6.13648e-05 15.3385 6.13648e-05 15.501L6.13648e-05 17.4336C6.13648e-05 17.5962 0.130666 17.7279 0.291774 17.7279H2.2071C2.36821 17.7279 2.49881 17.5962 2.49881 17.4336V15.501C2.49881 15.3385 2.36821 15.2067 2.2071 15.2067Z" fill="white"/>
<path d="M2.2071 18.7226H0.291774C0.130666 18.7226 6.13648e-05 18.8544 6.13648e-05 19.017L6.13648e-05 20.9496C6.13648e-05 21.1121 0.130666 21.2439 0.291774 21.2439H2.2071C2.36821 21.2439 2.49881 21.1121 2.49881 20.9496V19.017C2.49881 18.8544 2.36821 18.7226 2.2071 18.7226Z" fill="white"/>
<path d="M5.66316 18.7138H3.79965C3.60966 18.7138 3.45612 18.8687 3.45612 19.0604V20.8865C3.45612 21.0782 3.60966 21.2331 3.79965 21.2331H5.66316C5.82437 21.2331 5.95487 21.1014 5.95487 20.9388V19.0062C5.95487 18.8435 5.82437 18.7118 5.66316 18.7118V18.7138Z" fill="white"/>
<path d="M9.22109 18.7226H7.30577C7.14466 18.7226 7.01405 18.8544 7.01405 19.017V20.9496C7.01405 21.1121 7.14466 21.2439 7.30577 21.2439H9.22109C9.3822 21.2439 9.5128 21.1121 9.5128 20.9496V19.017C9.5128 18.8544 9.3822 18.7226 9.22109 18.7226Z" fill="white"/>
<path d="M12.7289 18.7226H10.8136C10.6525 18.7226 10.5219 18.8544 10.5219 19.017V20.9496C10.5219 21.1121 10.6525 21.2439 10.8136 21.2439H12.7289C12.8901 21.2439 13.0207 21.1121 13.0207 20.9496V19.017C13.0207 18.8544 12.8901 18.7226 12.7289 18.7226Z" fill="white"/>
<path d="M16.2466 18.7226H14.3313C14.1702 18.7226 14.0396 18.8544 14.0396 19.017V20.9496C14.0396 21.1121 14.1702 21.2439 14.3313 21.2439H16.2466C16.4077 21.2439 16.5383 21.1121 16.5383 20.9496V19.017C16.5383 18.8544 16.4077 18.7226 16.2466 18.7226Z" fill="white"/>
<path d="M12.7289 22.2347H10.8136C10.6525 22.2347 10.5219 22.3664 10.5219 22.529V24.4616C10.5219 24.6241 10.6525 24.7559 10.8136 24.7559H12.7289C12.8901 24.7559 13.0207 24.6241 13.0207 24.4616V22.529C13.0207 22.3664 12.8901 22.2347 12.7289 22.2347Z" fill="white"/>
<path d="M9.22109 22.2347H7.30577C7.14466 22.2347 7.01405 22.3664 7.01405 22.529V24.4616C7.01405 24.6241 7.14466 24.7559 7.30577 24.7559H9.22109C9.3822 24.7559 9.5128 24.6241 9.5128 24.4616V22.529C9.5128 22.3664 9.3822 22.2347 9.22109 22.2347Z" fill="white"/>
<path d="M5.71495 22.2346H3.85145C3.66145 22.2346 3.50792 22.3895 3.50792 22.5813V24.4073C3.50792 24.599 3.66145 24.754 3.85145 24.754H5.71495C5.87616 24.754 6.00667 24.6223 6.00667 24.4596V22.527C6.00667 22.3644 5.87616 22.2327 5.71495 22.2327V22.2346Z" fill="white"/>
<path d="M2.2071 22.2347H0.291774C0.130666 22.2347 6.13648e-05 22.3664 6.13648e-05 22.529L6.13648e-05 24.4616C6.13648e-05 24.6241 0.130666 24.7559 0.291774 24.7559H2.2071C2.36821 24.7559 2.49881 24.6241 2.49881 24.4616V22.529C2.49881 22.3664 2.36821 22.2347 2.2071 22.2347Z" fill="white"/>
<path d="M38.7151 8.80516C37.7003 7.20719 35.8016 6.06578 32.9862 6.06578C28.3704 6.06578 24.9658 9.49001 24.9658 14.5774C24.9658 19.991 28.3704 23.0891 32.9862 23.0891C35.8016 23.0891 37.6021 21.752 38.7151 20.2193L39.0752 22.8934H41.3995V0.0652226H38.7151V8.80516ZM33.2481 20.7084C29.9417 20.7084 27.7156 18.1973 27.7156 14.5774C27.7156 10.9575 29.9417 8.44643 33.2481 8.44643C36.5218 8.44643 38.7478 10.9901 38.7478 14.6427C38.7478 18.1973 36.5218 20.7084 33.2481 20.7084Z" fill="white"/>
<path d="M52.5155 23.0891C56.3784 23.0891 59.1283 20.6432 59.783 17.3168H57.0659C56.5094 19.4692 54.6761 20.7084 52.3191 20.7084C49.1437 20.7084 47.1467 18.4908 47.0485 15.3275V15.0992H60.0122C60.0449 14.7079 60.0777 14.3165 60.0777 13.9578C59.9467 9.03344 56.8695 6.06578 52.1554 6.06578C47.4414 6.06578 44.2332 9.52262 44.2332 14.5774C44.2332 19.6649 47.5068 23.0891 52.5155 23.0891ZM47.2122 12.8816C47.4741 10.1749 49.7329 8.41382 52.1882 8.41382C54.9708 8.41382 56.935 10.0118 57.1969 12.8816H47.2122Z" fill="white"/>
<path d="M71.0911 6.06578C68.2758 6.06578 66.5735 7.2398 65.5914 8.51166L65.2313 6.26145H62.907V22.8934H65.5914V14.5774C65.5914 10.8271 67.4901 8.51166 70.6328 8.51166C73.5464 8.51166 75.1505 10.3379 75.1505 13.7948V22.8934H77.8349V13.6317C77.8349 8.12032 74.8559 6.06578 71.0911 6.06578Z" fill="white"/>
<path d="M80.3361 17.4147C80.4016 21.0672 83.3806 23.0891 87.7018 23.0891C91.401 23.0891 94.3801 21.165 94.3801 18.0669C94.3801 14.3818 91.3356 13.6643 87.5381 13.2077C85.1156 12.9142 83.3478 12.686 83.3478 10.8597C83.3478 9.32695 84.9192 8.3486 87.2435 8.3486C89.5351 8.3486 91.1064 9.62045 91.3028 11.3163H94.0527C93.7908 7.85942 91.0409 6.09839 87.2435 6.06578C83.4788 6.03317 80.6962 8.02248 80.6962 11.0554C80.6962 14.5122 83.6752 15.2623 87.4072 15.7188C89.8952 16.0124 91.7284 16.1754 91.7284 18.2626C91.7284 19.7953 90.0588 20.8063 87.7018 20.8063C84.9192 20.8063 83.1842 19.3714 83.086 17.4147H80.3361Z" fill="white"/>
<path d="M98.501 3.45684C99.4831 3.45684 100.236 2.73938 100.236 1.72842C100.236 0.717458 99.4831 0 98.501 0C97.5189 0 96.7659 0.717458 96.7659 1.72842C96.7659 2.73938 97.5189 3.45684 98.501 3.45684ZM97.126 22.8934H99.8104V6.26145H97.126V22.8934Z" fill="white"/>
<path d="M104.498 18.5561C104.498 21.4911 105.644 22.8934 108.852 22.8934H111.766V20.4475H109.114C107.674 20.4475 107.182 19.9258 107.182 18.5235V8.70733H111.504V6.26145H107.182V1.59797H104.498V6.26145H101.486V8.70733H104.498V18.5561Z" fill="white"/>
<path d="M118.703 22.9913L117.884 25.0132C117.262 26.5785 117.001 26.9699 115.462 26.9699H113.072V29.4158H116.28C118.637 29.4158 119.259 28.3722 120.307 25.698L128 6.26145H125.152L120.176 19.5344L115.036 6.26145H112.188L118.703 22.9913Z" fill="white"/>
</svg>
