<svg width="189" height="189" viewBox="0 0 189 189" fill="none" xmlns="http://www.w3.org/2000/svg">
<path d="M35.344 90.8115C40.9574 87.5708 51.0345 86.9287 57.7376 89.3844L160.595 127.085C167.298 129.542 168.189 134.204 162.575 137.445L104.55 170.946C98.9358 174.187 90.8613 173.673 86.6062 169.803L21.3066 110.419C17.0515 106.549 18.163 100.73 23.7776 97.4895L35.344 90.8115Z" fill="white" fill-opacity="0.2"/>
<path d="M33.8886 73.4826C33.8886 80.522 34.5285 104.199 34.5285 108.256C34.5285 111.635 39.193 117.087 41.6192 116.575L42.3541 116.153C42.508 115.987 42.6358 115.775 42.745 115.506C44.9845 109.856 41.4653 107.296 41.676 104.519C41.7655 103.348 43.9799 101.889 44.2234 100.097C44.2234 99.8987 44.2158 99.6814 44.2103 99.4641C43.8849 97.7357 41.593 95.5857 41.7852 93.0001C41.9446 90.7803 43.327 89.6349 43.9482 87.1716C44.1339 86.4477 44.2485 85.6026 44.2485 84.5795V77.0028L43.731 76.8303L33.8886 73.4836V73.4826Z" fill="#2F2F7B"/>
<path d="M39.0295 68.2659C39.0481 74.6393 41.3137 79.4905 45.1343 81.9473C46.9523 83.1189 49.1208 83.7522 51.5655 83.7522C54.5923 83.7522 57.8046 82.7793 61.1196 80.8663C72.2099 74.4667 81.2006 58.8843 81.1624 46.143C81.1438 39.9291 78.9939 35.1619 75.3393 32.6472C73.4711 31.3555 71.1989 30.6502 68.6264 30.6502C65.5996 30.6502 62.3873 31.623 59.0788 33.5371C56.8841 34.8037 54.7713 36.4296 52.795 38.3229C46.8114 44.0499 42.077 52.2161 40.0668 60.2405C39.3876 62.9669 39.024 65.6737 39.0306 68.2648L39.0295 68.2659Z" fill="#FAFFCA"/>
<path d="M40.9482 68.2595C40.9679 73.9876 42.8874 78.1018 46.0168 80.2136C54.8873 86.3828 91.6175 138.37 103.956 148.111C98.4713 143.689 95.0417 136.055 94.6574 125.758C94.6312 125.164 94.6191 124.554 94.6191 123.941C94.5995 116.268 96.2067 108.096 99.061 100.065C102.983 89.0524 109.261 78.3082 116.94 69.5021C122.302 63.346 128.35 58.1366 134.748 54.4449C142.812 49.7858 150.337 48.1731 156.647 49.2355C139.964 44.7172 102.804 40.1542 83.5484 36.3217C83.2154 36.2572 82.8889 36.1939 82.5756 36.124C78.5508 35.3051 75.3898 34.5179 73.4823 33.7743C70.0199 31.8547 65.2723 32.1812 60.0378 35.2014C51.4249 40.1728 44.1617 50.9061 41.7803 61.2791C41.2299 63.6539 40.9428 66.0015 40.9482 68.2606V68.2595Z" fill="url(#paint0_linear_1_1553)"/>
<path d="M11.6998 52.4216C11.7183 58.5962 13.8486 63.3318 17.4519 65.8595L17.4781 65.8715L19.0449 66.7876L19.0842 66.8062L45.1357 81.9475C41.3152 79.4907 39.0506 74.6394 39.0309 68.266C39.0244 65.687 39.3825 62.9998 40.054 60.2865C40.0606 60.2734 40.0606 60.2548 40.0671 60.2417C42.0762 52.2174 46.8118 44.0511 52.7953 38.3242C54.7728 36.4308 56.8845 34.805 59.0792 33.5384C62.3876 31.6254 65.6 30.6514 68.6267 30.6514C71.1992 30.6514 73.4714 31.3557 75.3397 32.6485L75.3648 32.5786L47.7322 16.625L46.8107 16.0943L46.7594 16.0616C45.1586 15.2492 43.3221 14.8135 41.2944 14.8135C38.2742 14.8135 35.0608 15.7798 31.7469 17.6928C22.884 22.8116 15.3587 33.7873 12.7152 44.4999C12.0503 47.1936 11.6921 49.8622 11.6987 52.4227L11.6998 52.4216Z" fill="#0B7030"/>
<path d="M116.94 155.03C123.034 155.03 129.543 153.058 136.284 149.168C159.187 135.944 177.761 103.774 177.688 77.4545C177.649 64.1869 172.998 54.2169 164.593 49.3776C162.304 48.0597 159.772 47.1611 157.07 46.7101C155.698 46.4786 154.261 46.3618 152.805 46.3618C146.712 46.3618 140.206 48.3348 133.469 52.2274C110.565 65.4426 91.9885 97.6163 92.0605 123.947C92.0933 135.492 95.7468 144.782 102.351 150.104C102.523 150.242 102.697 150.374 102.863 150.5L102.989 150.596C106.904 153.504 111.72 155.031 116.942 155.031L116.94 155.03Z" fill="#FAFFCA"/>
<path d="M94.6186 123.94C94.6252 128.029 95.0991 131.727 95.9748 135.004C97.51 140.712 100.269 145.14 103.954 148.11C104.153 148.27 104.351 148.416 104.536 148.557C111.954 154.067 122.857 153.958 135.003 146.95C157.235 134.115 175.198 103.008 175.128 77.462C175.09 64.7273 170.586 55.7814 163.315 51.5962C161.293 50.4311 159.06 49.6373 156.648 49.2344C153.448 48.6972 149.928 48.8435 146.191 49.7334C142.563 50.5905 138.723 52.153 134.749 54.4438C112.511 67.2747 94.5487 98.3936 94.6197 123.94H94.6186Z" fill="#14AB4C"/>
<path d="M116.94 69.5007L125.483 77.9923L135.779 88.2255C134.332 87.3924 132.336 87.5147 130.141 88.7748C125.764 91.3101 122.225 97.4335 122.238 102.469C122.245 104.959 123.127 106.718 124.549 107.543L110.529 103.428L99.0616 100.062C102.984 89.0488 109.262 78.3046 116.941 69.4985L116.94 69.5007Z" fill="#E2EC85"/>
<path d="M130.14 88.7817C125.761 91.3095 122.225 97.4328 122.24 102.466C122.254 107.492 125.812 109.521 130.192 106.992C134.567 104.467 138.103 98.3434 138.088 93.3164C138.074 88.2838 134.515 86.2551 130.14 88.7828V88.7817Z" fill="#0B7030"/>
<path d="M34.356 110.375L42.7548 117.572L42.3552 80.3325L33.501 75.1865L34.356 110.375Z" fill="#14AB4C"/>
<path d="M42.7544 117.571L52.6579 111.891V86.852L49.3658 83.2521L42.3548 80.3323L42.7544 117.571Z" fill="#5CDE69"/>
<ellipse cx="2.0668" cy="1.88722" rx="2.0668" ry="1.88722" fill="#14AB4C"/>
<ellipse cx="58.153" cy="185.335" rx="2.0668" ry="1.88722" fill="#14AB4C"/>
<ellipse cx="187.255" cy="21.2714" rx="1.43783" ry="1.35688" fill="#14AB4C"/>
<ellipse cx="117.608" cy="7.86904" rx="3.38925" ry="3.2125" fill="#0B7030"/>
<ellipse cx="173.912" cy="109.565" rx="3.083" ry="2.81514" fill="#D8FF35"/>
<ellipse cx="116.227" cy="187.167" rx="2.00753" ry="1.8331" fill="#D8FF35"/>
<defs>
<linearGradient id="paint0_linear_1_1553" x1="98.302" y1="35.7201" x2="108.069" y2="148.119" gradientUnits="userSpaceOnUse">
<stop offset="0.12822" stop-color="#D4F938"/>
<stop offset="1" stop-color="#32D875" stop-opacity="0.96"/>
</linearGradient>
</defs>
</svg>
