<svg width="109" height="104" viewBox="0 0 109 104" fill="none" xmlns="http://www.w3.org/2000/svg">
<g opacity="0.04">
<path d="M31.4987 0H47.0903C48.404 0 49.4689 1.06097 49.4689 2.36974V17.9026C49.4689 19.2114 48.404 20.2724 47.0903 20.2724H31.4987C30.185 20.2724 29.12 19.2114 29.12 17.9026V2.36974C29.12 1.06097 30.185 0 31.4987 0Z" fill="black"/>
<path d="M47.0911 48.5239H31.4995C30.1858 48.5239 29.1208 47.4629 29.1208 46.1542L29.1208 30.6213C29.1208 29.3125 30.1858 28.2515 31.4995 28.2515L47.0911 28.2515C48.4048 28.2515 49.4698 29.3125 49.4698 30.6213L49.4698 46.1542C49.4698 47.4629 48.4048 48.5239 47.0911 48.5239Z" fill="black"/>
<path d="M2.37933 0.000244623H17.9709C19.2846 0.000244623 20.3496 1.06122 20.3496 2.36999V17.9029C20.3496 19.2117 19.2846 20.2726 17.9709 20.2726H2.37933C1.06561 20.2726 0.000636402 19.2117 0.000636402 17.9029V2.36999C0.000636402 1.06122 1.06561 0.000244623 2.37933 0.000244623Z" fill="black"/>
<path d="M17.9703 48.5239H2.3787C1.06499 48.5239 0 47.4629 0 46.1542L0 30.6213C0 29.3125 1.06499 28.2515 2.3787 28.2515L17.9703 28.2515C19.284 28.2515 20.349 29.3125 20.349 30.6213L20.349 46.1542C20.349 47.4629 19.284 48.5239 17.9703 48.5239Z" fill="black"/>
<path d="M31.4987 55.4854H47.0903C48.404 55.4854 49.4689 56.5464 49.4689 57.8551V73.388C49.4689 74.6968 48.404 75.7578 47.0903 75.7578H31.4987C30.185 75.7578 29.12 74.6968 29.12 73.388V57.8551C29.12 56.5464 30.185 55.4854 31.4987 55.4854Z" fill="black"/>
<path d="M47.0911 104H31.4995C30.1858 104 29.1208 102.939 29.1208 101.63L29.1208 86.0974C29.1208 84.7886 30.1858 83.7276 31.4995 83.7276L47.0911 83.7276C48.4048 83.7276 49.4698 84.7886 49.4698 86.0974L49.4698 101.63C49.4698 102.939 48.4048 104 47.0911 104Z" fill="black"/>
<path d="M90.9437 0H106.535C107.849 0 108.914 1.06097 108.914 2.36974V17.9026C108.914 19.2114 107.849 20.2724 106.535 20.2724H90.9437C89.63 20.2724 88.565 19.2114 88.565 17.9026V2.36974C88.565 1.06097 89.63 0 90.9437 0Z" fill="black"/>
<path d="M106.536 48.5239H90.9445C89.6308 48.5239 88.5658 47.4629 88.5658 46.1542V30.6213C88.5658 29.3125 89.6308 28.2515 90.9445 28.2515L106.536 28.2515C107.85 28.2515 108.915 29.3125 108.915 30.6213L108.915 46.1542C108.915 47.4629 107.85 48.5239 106.536 48.5239Z" fill="black"/>
<path d="M61.8243 0.000244623H77.4159C78.7296 0.000244623 79.7946 1.06122 79.7946 2.36999V17.9029C79.7946 19.2117 78.7296 20.2726 77.4159 20.2726H61.8243C60.5106 20.2726 59.4456 19.2117 59.4456 17.9029V2.36999C59.4456 1.06122 60.5106 0.000244623 61.8243 0.000244623Z" fill="black"/>
<path d="M77.4153 48.5239H61.8237C60.51 48.5239 59.445 47.4629 59.445 46.1542V30.6213C59.445 29.3125 60.51 28.2515 61.8237 28.2515L77.4153 28.2515C78.729 28.2515 79.794 29.3125 79.794 30.6213L79.794 46.1542C79.794 47.4629 78.729 48.5239 77.4153 48.5239Z" fill="black"/>
<path d="M90.9437 55.4854H106.535C107.849 55.4854 108.914 56.5464 108.914 57.8551V73.388C108.914 74.6968 107.849 75.7578 106.535 75.7578H90.9437C89.63 75.7578 88.565 74.6968 88.565 73.388V57.8551C88.565 56.5464 89.63 55.4854 90.9437 55.4854Z" fill="black"/>
<path d="M106.536 104H90.9445C89.6308 104 88.5658 102.939 88.5658 101.63V86.0974C88.5658 84.7886 89.6308 83.7276 90.9445 83.7276L106.536 83.7276C107.85 83.7276 108.915 84.7886 108.915 86.0974L108.915 101.63C108.915 102.939 107.85 104 106.536 104Z" fill="black"/>
</g>
</svg>
