<svg width="128" height="186" viewBox="0 0 128 186" fill="none" xmlns="http://www.w3.org/2000/svg">
<g style="mix-blend-mode:multiply" opacity="0.5">
<path d="M25.5499 170.883L12.4576 178.441L25.5499 186L38.6404 178.441L25.5499 170.883Z" fill="#A591AA"/>
</g>
<g style="mix-blend-mode:multiply" opacity="0.5">
<path d="M86.8545 135.857L73.7622 143.414L86.8545 150.973L99.945 143.416L86.8545 135.857Z" fill="#A591AA"/>
</g>
<g style="mix-blend-mode:multiply" opacity="0.5">
<path d="M107.213 124.431L94.1203 131.99L107.213 139.549L120.303 131.99L107.213 124.431Z" fill="#A591AA"/>
</g>
<g style="mix-blend-mode:multiply" opacity="0.5">
<path d="M67.6605 147.775L54.5681 155.334L67.6605 162.893L80.751 155.334L67.6605 147.775Z" fill="#A591AA"/>
</g>
<g style="mix-blend-mode:multiply" opacity="0.5">
<path d="M46.6814 159.125L33.5908 166.684L46.6814 174.243L59.7737 166.684L46.6814 159.125Z" fill="#A591AA"/>
</g>
<path d="M107.213 132.316C106.87 132.316 106.592 132.039 106.592 131.696V109.126C106.592 108.784 106.87 108.506 107.213 108.506C107.555 108.506 107.833 108.784 107.833 109.126V131.696C107.833 132.039 107.555 132.316 107.213 132.316Z" fill="#AAA617"/>
<path d="M107.212 101.438L93.8951 109.126L107.212 116.815L120.529 109.126L107.212 101.438Z" fill="#AF982B"/>
<path d="M107.212 15.5022L93.8951 23.1897L107.212 30.8773L120.529 23.1897L107.212 15.5022Z" fill="#58F28A"/>
<path d="M93.8951 23.1894V109.126L107.212 116.816V30.8769L93.8951 23.1894Z" fill="#058A36"/>
<path d="M107.213 30.8769V116.816L120.53 109.126V23.1894L107.213 30.8769Z" fill="url(#paint0_linear_1_116)"/>
<path d="M107.213 23.8095C106.87 23.8095 106.593 23.5321 106.593 23.1895V0.620078C106.593 0.277403 106.87 0 107.213 0C107.555 0 107.833 0.277403 107.833 0.620078V23.1895C107.833 23.5321 107.555 23.8095 107.213 23.8095Z" fill="#AAA617"/>
<path d="M86.8545 144.184C86.5118 144.184 86.2344 143.907 86.2344 143.564V120.995C86.2344 120.652 86.5118 120.375 86.8545 120.375C87.1972 120.375 87.4746 120.652 87.4746 120.995V143.564C87.4746 143.907 87.1972 144.184 86.8545 144.184Z" fill="#AAA617"/>
<path d="M86.8542 113.307L73.5371 120.995L86.8542 128.684L100.17 120.995L86.8542 113.307Z" fill="#AF982B"/>
<path d="M86.8542 62.091L73.5371 69.7803L86.8542 77.4678L100.17 69.7803L86.8542 62.091Z" fill="#58F28A"/>
<path d="M73.5371 69.7806V120.995L86.8542 128.684V77.4681L73.5371 69.7806Z" fill="#058A36"/>
<path d="M86.8537 77.4681V128.684L100.169 120.995V69.7806L86.8537 77.4681Z" fill="url(#paint1_linear_1_116)"/>
<path d="M86.8546 70.4002C86.512 70.4002 86.2346 70.1228 86.2346 69.7802V47.2108C86.2346 46.8681 86.512 46.5907 86.8546 46.5907C87.1973 46.5907 87.4747 46.8681 87.4747 47.2108V69.7802C87.4747 70.1228 87.1973 70.4002 86.8546 70.4002Z" fill="#AAA617"/>
<path d="M67.6608 156.039C67.3181 156.039 67.0407 155.762 67.0407 155.419V132.85C67.0407 132.507 67.3181 132.23 67.6608 132.23C68.0035 132.23 68.2809 132.507 68.2809 132.85V155.419C68.2809 155.762 68.0035 156.039 67.6608 156.039Z" fill="#AAA617"/>
<path d="M67.6606 125.162L54.3435 132.85L67.6606 140.539L80.976 132.852L67.6606 125.162Z" fill="#AF982B"/>
<path d="M67.6606 93.7888L54.3435 101.476L67.6606 109.166L80.976 101.476L67.6606 93.7888Z" fill="#58F28A"/>
<path d="M54.3433 101.476V132.85L67.6605 140.54V109.166L54.3433 101.476Z" fill="#058A36"/>
<path d="M67.6599 109.166V140.54L80.9752 132.852V101.476L67.6599 109.166Z" fill="url(#paint2_linear_1_116)"/>
<path d="M67.6608 102.097C67.3181 102.097 67.0407 101.819 67.0407 101.477V78.9072C67.0407 78.5645 67.3181 78.2871 67.6608 78.2871C68.0035 78.2871 68.2809 78.5645 68.2809 78.9072V101.477C68.2809 101.819 68.0035 102.097 67.6608 102.097Z" fill="#AAA617"/>
<path d="M46.6804 167.225C46.3377 167.225 46.0603 166.947 46.0603 166.605V144.035C46.0603 143.693 46.3377 143.415 46.6804 143.415C47.023 143.415 47.3004 143.693 47.3004 144.035V166.605C47.3004 166.947 47.023 167.225 46.6804 167.225Z" fill="#AAA617"/>
<path d="M46.6815 136.348L33.3662 144.035L46.6815 151.725L59.9987 144.037L46.6815 136.348Z" fill="#AF982B"/>
<path d="M46.6815 57.8516L33.3662 65.5392L46.6815 73.2285L59.9987 65.5392L46.6815 57.8516Z" fill="#58F28A"/>
<path d="M33.3662 65.5393V144.035L46.6815 151.725V73.2286L33.3662 65.5393Z" fill="#058A36"/>
<path d="M46.6811 73.2286V151.725L59.9983 144.037V65.5393L46.6811 73.2286Z" fill="url(#paint3_linear_1_116)"/>
<path d="M46.6803 66.1589C46.3376 66.1589 46.0602 65.8815 46.0602 65.5389V42.9695C46.0602 42.6268 46.3376 42.3494 46.6803 42.3494C47.023 42.3494 47.3004 42.6268 47.3004 42.9695V65.5389C47.3004 65.8815 47.023 66.1589 46.6803 66.1589Z" fill="#AAA617"/>
<path d="M25.5504 179.04C25.2077 179.04 24.9303 178.763 24.9303 178.42V155.85C24.9303 155.508 25.2077 155.23 25.5504 155.23C25.8931 155.23 26.1705 155.508 26.1705 155.85V178.42C26.1705 178.763 25.8931 179.04 25.5504 179.04Z" fill="#AAA617"/>
<path d="M25.55 148.163L12.2328 155.851L25.55 163.54L38.8653 155.851L25.55 148.163Z" fill="#AF982B"/>
<path d="M25.55 99.4276L12.2328 107.117L25.55 114.804L38.8653 107.117L25.55 99.4276Z" fill="#58F28A"/>
<path d="M12.2328 107.117V155.851L25.55 163.54V114.804L12.2328 107.117Z" fill="#058A36"/>
<path d="M25.5494 114.804V163.54L38.8647 155.851V107.117L25.5494 114.804Z" fill="url(#paint4_linear_1_116)"/>
<path d="M25.5504 107.737C25.2077 107.737 24.9303 107.459 24.9303 107.117V84.5474C24.9303 84.2047 25.2077 83.9273 25.5504 83.9273C25.8931 83.9273 26.1705 84.2047 26.1705 84.5474V107.117C26.1705 107.459 25.8931 107.737 25.5504 107.737Z" fill="#AAA617"/>
<path d="M71.1116 67.1664C71.1116 67.1664 70.4409 69.0044 70.4005 69.4594C70.3601 69.9144 69.9778 70.7371 71.1561 71.3566C71.1561 71.3566 72.5314 72.0152 72.9183 72.0976C72.9183 72.0976 71.4539 71.5839 71.0413 71.5436C70.6287 71.5033 69.8199 71.3173 69.1078 72.9569L68.4058 74.7658C68.4058 74.7658 69.0593 72.8405 69.1247 72.4426C69.19 72.0447 69.5111 71.1137 68.262 70.5174L66.6966 69.8638C66.6966 69.8638 67.9663 70.3574 68.7563 70.4197C69.5462 70.4821 70.2119 69.6399 71.1116 67.1664Z" fill="white" stroke="white" stroke-width="0.059467" stroke-miterlimit="10"/>
<circle cx="87.6721" cy="42.443" r="0.908289" transform="rotate(5.63183 87.6721 42.443)" fill="#33B568"/>
<circle cx="31.2116" cy="93.7897" r="0.908289" transform="rotate(5.63183 31.2116 93.7897)" fill="#33B568"/>
<circle cx="11.4625" cy="161.901" r="0.908289" transform="rotate(5.63183 11.4625 161.901)" fill="#33B568"/>
<circle cx="0.908338" cy="125.978" r="0.908289" transform="rotate(5.63183 0.908338 125.978)" fill="white"/>
<circle cx="88.1334" cy="119.42" r="0.908289" transform="rotate(5.63183 88.1334 119.42)" fill="white"/>
<circle cx="122.507" cy="113.29" r="0.504734" transform="rotate(5.63183 122.507 113.29)" fill="white"/>
<circle cx="116.75" cy="10.3017" r="1.46776" transform="rotate(5.63183 116.75 10.3017)" fill="#33B568"/>
<path d="M117.203 58.0145C117.203 58.0145 119.043 61.8889 119.692 62.6519C120.341 63.4148 121.039 65.2773 123.819 64.3887C123.819 64.3887 126.963 63.2525 127.687 62.7747C127.687 62.7747 124.632 64.273 123.934 64.8557C123.237 65.4384 121.702 66.4163 123.169 70.0503L124.916 73.9291C124.916 73.9291 122.913 69.9472 122.392 69.2332C121.871 68.5192 120.91 66.5856 118.057 67.6205L114.628 69.0614C114.628 69.0614 117.352 67.8365 118.664 66.698C119.977 65.5595 119.684 63.2241 117.203 58.0145Z" fill="white" stroke="white" stroke-width="0.059467" stroke-miterlimit="10"/>
<defs>
<linearGradient id="paint0_linear_1_116" x1="113.929" y1="25.7367" x2="73.0734" y2="92.5134" gradientUnits="userSpaceOnUse">
<stop offset="0.4267" stop-color="#D4F938"/>
<stop offset="1" stop-color="#32D875" stop-opacity="0.96"/>
</linearGradient>
<linearGradient id="paint1_linear_1_116" x1="93.5684" y1="71.3832" x2="74.2099" y2="121.669" gradientUnits="userSpaceOnUse">
<stop offset="0.4267" stop-color="#D4F938"/>
<stop offset="1" stop-color="#32D875" stop-opacity="0.96"/>
</linearGradient>
<linearGradient id="paint2_linear_1_116" x1="74.3746" y1="102.539" x2="65.1973" y2="138.486" gradientUnits="userSpaceOnUse">
<stop offset="0.4267" stop-color="#D4F938"/>
<stop offset="1" stop-color="#32D875" stop-opacity="0.96"/>
</linearGradient>
<linearGradient id="paint3_linear_1_116" x1="53.3967" y1="67.8841" x2="17.2754" y2="132.02" gradientUnits="userSpaceOnUse">
<stop offset="0.4267" stop-color="#D4F938"/>
<stop offset="1" stop-color="#32D875" stop-opacity="0.96"/>
</linearGradient>
<linearGradient id="paint4_linear_1_116" x1="32.2641" y1="108.652" x2="14.3105" y2="157.338" gradientUnits="userSpaceOnUse">
<stop offset="0.4267" stop-color="#D4F938"/>
<stop offset="1" stop-color="#32D875" stop-opacity="0.96"/>
</linearGradient>
</defs>
</svg>
