<svg width="185" height="104" viewBox="0 0 185 104" fill="none" xmlns="http://www.w3.org/2000/svg">
<g opacity="0.2">
<path d="M68.0783 4.80768C78.6667 10.9181 81.126 19.0167 70.3326 25.2831C62.3498 29.9122 53.3814 29.7563 43.5053 28.9182L28.0374 27.5636L46.5891 38.2642L35.4444 44.7352L0 24.2891L10.8031 18.0227L44.0713 20.0205C49.2533 20.3031 53.1764 20.498 56.6311 18.6659C61.169 16.2685 60.3883 13.2766 56.7872 11.2008C52.7763 8.89107 47.1844 8.9203 42.6465 11.4736L31.1603 4.84666C43.1247 -2.10193 57.8314 -1.09813 68.0783 4.80768Z" fill="white"/>
<path d="M126.358 39.2193L116.18 45.1251L94.9933 32.9139L86.6591 35.9935C89.4209 36.3053 92.6706 37.3091 96.4766 39.5116C106.723 45.4174 107.25 53.6037 96.7304 59.7044C85.1758 66.4094 69.7762 65.3374 58.6998 58.9443C48.8726 53.2724 44.8226 44.8132 56.992 37.7477L68.2733 44.2577C63.872 46.8111 63.9599 50.2025 68.3904 52.7656C72.821 55.3287 79.0276 55.3189 83.7802 52.5609C88.5328 49.8029 88.9232 46.1386 84.3463 43.4976C79.7693 40.8565 74.1189 41.2658 71.7182 42.2599L60.6418 35.8765L95.9594 21.7065L126.349 39.229L126.358 39.2193Z" fill="white"/>
<path d="M145.769 66.6097C137.035 71.6774 125.988 71.999 118.444 67.6525C110.9 63.3059 111.418 56.9129 120.152 51.8452C128.886 46.7775 140.002 46.4169 147.545 50.7634C155.089 55.1099 154.503 61.542 145.769 66.6097ZM129.628 57.3027C126.876 58.901 123.987 61.1327 126.837 62.7699C129.686 64.4072 133.522 62.731 136.283 61.1327C139.045 59.5344 141.924 57.3027 139.084 55.6654C136.244 54.0282 132.38 55.7044 129.638 57.3027" fill="white"/>
<path d="M174.958 67.3667L185 73.1556L103.493 84.0901L93.3832 78.2622L174.958 67.3667Z" fill="white"/>
<path d="M159.871 83.7393C167.414 88.0858 166.839 94.5179 158.104 99.5855C149.37 104.653 138.323 104.975 130.779 100.628C123.236 96.2818 123.743 89.8887 132.487 84.821C141.231 79.7533 152.327 79.3927 159.871 83.749V83.7393ZM139.172 95.7555C142.012 97.3928 145.857 95.7166 148.619 94.1183C151.38 92.52 154.25 90.2883 151.41 88.651C148.57 87.0138 144.715 88.69 141.963 90.2785C139.211 91.8671 136.322 94.1085 139.172 95.7458" fill="white"/>
</g>
</svg>
