<svg width="558" height="1125" viewBox="0 0 558 1125" fill="none" xmlns="http://www.w3.org/2000/svg">
<path d="M480.8 7.65771H76.8272C38.626 7.65771 7.65781 38.6095 7.65781 76.7906V1048.21C7.65781 1086.39 38.626 1117.34 76.8272 1117.34H480.8C519.001 1117.34 549.969 1086.39 549.969 1048.21V76.7906C549.969 38.6095 519.001 7.65771 480.8 7.65771Z" fill="black" stroke="url(#paint0_linear_1_2081)" stroke-width="3.47882" stroke-miterlimit="10"/>
<g filter="url(#filter0_f_1_2081)">
<path d="M480.8 7.65771H76.8272C38.626 7.65771 7.65781 38.6095 7.65781 76.7906V1048.21C7.65781 1086.39 38.626 1117.34 76.8272 1117.34H480.8C519.001 1117.34 549.969 1086.39 549.969 1048.21V76.7906C549.969 38.6095 519.001 7.65771 480.8 7.65771Z" fill="black"/>
<path d="M480.8 7.65771H76.8272C38.626 7.65771 7.65781 38.6095 7.65781 76.7906V1048.21C7.65781 1086.39 38.626 1117.34 76.8272 1117.34H480.8C519.001 1117.34 549.969 1086.39 549.969 1048.21V76.7906C549.969 38.6095 519.001 7.65771 480.8 7.65771Z" stroke="url(#paint1_linear_1_2081)" stroke-width="1.39153" stroke-miterlimit="10"/>
</g>
<g opacity="0.5" filter="url(#filter1_f_1_2081)">
<ellipse cx="549.273" cy="240.525" rx="2.78465" ry="24.0176" transform="rotate(180 549.273 240.525)" fill="white"/>
</g>
<path d="M314.893 420.755L324.99 435.358L321.408 466.107L311.312 451.504L314.893 420.755Z" fill="#1C934C"/>
<path d="M339.803 451.082L349.9 465.685L346.398 495.749L336.301 481.147L339.803 451.082Z" fill="#1C934C"/>
<path d="M364.233 480.733L374.33 495.336L367.881 550.69L357.784 536.087L364.233 480.733Z" fill="#1C934C"/>
<path d="M357.783 536.084L367.879 550.687L339.948 551.102L329.851 536.499L357.783 536.084Z" fill="#43C277"/>
<path d="M326.27 567.257L336.359 581.86L307.867 582.282L297.77 567.679L326.27 567.257Z" fill="#43C277"/>
<path d="M329.851 536.5L339.948 551.103L336.359 581.859L326.27 567.256L329.851 536.5Z" fill="#1C934C"/>
<path d="M294.428 596.376L304.525 610.979L184.835 612.755L174.738 598.153L294.428 596.376Z" fill="#43C277"/>
<path d="M297.771 567.678L307.868 582.281L304.526 610.977L294.43 596.374L297.771 567.678Z" fill="#1C934C"/>
<path d="M314.891 420.755L311.31 451.504L339.802 451.082L336.301 481.146L364.232 480.731L357.783 536.085L329.851 536.5L326.269 567.256L297.77 567.679L294.428 596.375L174.738 598.151L195.201 422.531L314.891 420.755Z" fill="url(#paint2_linear_1_2081)"/>
<path d="M403.743 352.955L349.898 406.801" stroke="url(#paint3_linear_1_2081)" stroke-width="2.29885" stroke-linecap="round"/>
<path d="M112.082 352.955L165.927 406.801" stroke="url(#paint4_linear_1_2081)" stroke-width="2.29885" stroke-linecap="round"/>
<path d="M477.351 518.805L401.202 518.806" stroke="url(#paint5_linear_1_2081)" stroke-width="2.29885" stroke-linecap="round"/>
<path d="M80.7549 518.805L156.904 518.806" stroke="url(#paint6_linear_1_2081)" stroke-width="2.29885" stroke-linecap="round"/>
<path d="M114.008 673.865L167.854 620.02" stroke="url(#paint7_linear_1_2081)" stroke-width="2.29885" stroke-linecap="round"/>
<path d="M390.205 679.614L336.36 625.769" stroke="url(#paint8_linear_1_2081)" stroke-width="2.29885" stroke-linecap="round"/>
<circle cx="182.86" cy="424.658" r="1.66672" fill="#45DC76"/>
<circle cx="174.739" cy="634.678" r="1.66672" fill="#1D9A46"/>
<circle cx="84.5957" cy="535.725" r="1.66672" fill="#1D9A46"/>
<circle cx="421.77" cy="378.21" r="1.66672" fill="#1D9A46"/>
<circle cx="405.41" cy="535.725" r="1.66672" fill="#1D9A46"/>
<circle cx="151.265" cy="488.437" r="2.71011" fill="#1D9A46"/>
<circle cx="323.169" cy="616.92" r="3.10152" fill="#45DC76"/>
<circle cx="341.746" cy="412.815" r="1.35407" fill="#45DC76"/>
<circle cx="164.544" cy="558.105" r="1.22253" fill="#45DC76"/>
<path d="M391.271 511.936L392.423 515.586L396.073 516.739L392.423 517.892L391.271 521.542L390.122 517.892L386.468 516.739L390.122 515.586L391.271 511.936Z" fill="#45DC76"/>
<path d="M194.602 388.989L195.151 390.727L196.889 391.276L195.151 391.824L194.602 393.562L194.055 391.824L192.316 391.276L194.055 390.727L194.602 388.989Z" fill="#45DC76"/>
<path d="M314.306 411.861L314.663 420.918L322.282 425.827L313.226 426.183L308.317 433.802L307.969 424.748L300.341 419.837L309.406 419.482L314.306 411.861Z" fill="#45DC76"/>
<path d="M195.347 664.26L196.5 667.91L200.15 669.063L196.5 670.215L195.347 673.866L194.198 670.215L190.544 669.063L194.198 667.91L195.347 664.26Z" fill="#45DC76"/>
<path d="M190.441 123.686H187.687C187.456 123.686 187.268 123.876 187.268 124.111V126.901C187.268 127.135 187.456 127.326 187.687 127.326H190.441C190.673 127.326 190.86 127.135 190.86 126.901V124.111C190.86 123.876 190.673 123.686 190.441 123.686Z" fill="white"/>
<path d="M195.41 123.686H192.731C192.499 123.686 192.311 123.876 192.311 124.111V126.901C192.311 127.135 192.499 127.326 192.731 127.326H195.41C195.683 127.326 195.903 127.102 195.903 126.825V124.189C195.903 123.912 195.683 123.689 195.41 123.689V123.686Z" fill="white"/>
<path d="M200.524 123.686H197.77C197.539 123.686 197.351 123.876 197.351 124.111V126.901C197.351 127.135 197.539 127.326 197.77 127.326H200.524C200.755 127.326 200.943 127.135 200.943 126.901V124.111C200.943 123.876 200.755 123.686 200.524 123.686Z" fill="white"/>
<path d="M205.568 123.686H202.814C202.582 123.686 202.395 123.876 202.395 124.111V126.901C202.395 127.135 202.582 127.326 202.814 127.326H205.568C205.799 127.326 205.987 127.135 205.987 126.901V124.111C205.987 123.876 205.799 123.686 205.568 123.686Z" fill="white"/>
<path d="M210.624 128.761H207.871C207.639 128.761 207.451 128.951 207.451 129.186V131.976C207.451 132.21 207.639 132.401 207.871 132.401H210.624C210.856 132.401 211.044 132.21 211.044 131.976V129.186C211.044 128.951 210.856 128.761 210.624 128.761Z" fill="white"/>
<path d="M205.568 128.761H202.814C202.582 128.761 202.395 128.951 202.395 129.186V131.976C202.395 132.21 202.582 132.401 202.814 132.401H205.568C205.799 132.401 205.987 132.21 205.987 131.976V129.186C205.987 128.951 205.799 128.761 205.568 128.761Z" fill="white"/>
<path d="M200.524 128.761H197.771C197.539 128.761 197.351 128.951 197.351 129.186V131.976C197.351 132.21 197.539 132.401 197.771 132.401H200.524C200.756 132.401 200.944 132.21 200.944 131.976V129.186C200.944 128.951 200.756 128.761 200.524 128.761Z" fill="white"/>
<path d="M195.484 128.761H192.805C192.532 128.761 192.311 128.984 192.311 129.261V131.897C192.311 132.174 192.532 132.398 192.805 132.398H195.484C195.716 132.398 195.903 132.208 195.903 131.973V129.183C195.903 128.948 195.716 128.758 195.484 128.758V128.761Z" fill="white"/>
<path d="M190.441 128.761H187.687C187.456 128.761 187.268 128.951 187.268 129.186V131.976C187.268 132.21 187.456 132.401 187.687 132.401H190.441C190.673 132.401 190.86 132.21 190.86 131.976V129.186C190.86 128.951 190.673 128.761 190.441 128.761Z" fill="white"/>
<path d="M190.366 133.835H187.762C187.489 133.835 187.268 134.059 187.268 134.335V136.975C187.268 137.251 187.489 137.475 187.762 137.475H190.366C190.639 137.475 190.86 137.251 190.86 136.975V134.335C190.86 134.059 190.639 133.835 190.366 133.835Z" fill="white"/>
<path d="M195.484 133.834H192.805C192.532 133.834 192.311 134.058 192.311 134.335V136.971C192.311 137.248 192.532 137.471 192.805 137.471H195.484C195.716 137.471 195.903 137.281 195.903 137.047V134.257C195.903 134.022 195.716 133.832 195.484 133.832V133.834Z" fill="white"/>
<path d="M200.524 133.835H197.77C197.539 133.835 197.351 134.025 197.351 134.26V137.05C197.351 137.285 197.539 137.475 197.77 137.475H200.524C200.755 137.475 200.943 137.285 200.943 137.05V134.26C200.943 134.025 200.755 133.835 200.524 133.835Z" fill="white"/>
<path d="M205.568 133.835H202.814C202.582 133.835 202.395 134.025 202.395 134.26V137.05C202.395 137.285 202.582 137.475 202.814 137.475H205.568C205.799 137.475 205.987 137.285 205.987 137.05V134.26C205.987 134.025 205.799 133.835 205.568 133.835Z" fill="white"/>
<path d="M210.624 133.835H207.871C207.639 133.835 207.451 134.025 207.451 134.26V137.05C207.451 137.285 207.639 137.475 207.871 137.475H210.624C210.856 137.475 211.044 137.285 211.044 137.05V134.26C211.044 134.025 210.856 133.835 210.624 133.835Z" fill="white"/>
<path d="M215.666 133.835H212.913C212.681 133.835 212.494 134.025 212.494 134.26V137.05C212.494 137.285 212.681 137.475 212.913 137.475H215.666C215.898 137.475 216.086 137.285 216.086 137.05V134.26C216.086 134.025 215.898 133.835 215.666 133.835Z" fill="white"/>
<path d="M215.667 138.909H212.913C212.681 138.909 212.494 139.099 212.494 139.334V142.124C212.494 142.358 212.681 142.549 212.913 142.549H215.667C215.898 142.549 216.086 142.358 216.086 142.124V139.334C216.086 139.099 215.898 138.909 215.667 138.909Z" fill="white"/>
<path d="M210.624 138.909H207.871C207.639 138.909 207.451 139.099 207.451 139.334V142.124C207.451 142.358 207.639 142.549 207.871 142.549H210.624C210.856 142.549 211.044 142.358 211.044 142.124V139.334C211.044 139.099 210.856 138.909 210.624 138.909Z" fill="white"/>
<path d="M205.568 138.909H202.814C202.582 138.909 202.395 139.099 202.395 139.334V142.124C202.395 142.358 202.582 142.549 202.814 142.549H205.568C205.799 142.549 205.987 142.358 205.987 142.124V139.334C205.987 139.099 205.799 138.909 205.568 138.909Z" fill="white"/>
<path d="M200.524 138.909H197.771C197.539 138.909 197.351 139.099 197.351 139.334V142.124C197.351 142.358 197.539 142.549 197.771 142.549H200.524C200.756 142.549 200.944 142.358 200.944 142.124V139.334C200.944 139.099 200.756 138.909 200.524 138.909Z" fill="white"/>
<path d="M195.484 138.908H192.805C192.532 138.908 192.311 139.132 192.311 139.409V142.045C192.311 142.322 192.532 142.545 192.805 142.545H195.484C195.716 142.545 195.903 142.355 195.903 142.12V139.33C195.903 139.095 195.716 138.905 195.484 138.905V138.908Z" fill="white"/>
<path d="M190.441 138.908H187.687C187.456 138.908 187.268 139.098 187.268 139.333V142.123C187.268 142.357 187.456 142.548 187.687 142.548H190.441C190.673 142.548 190.86 142.357 190.86 142.123V139.333C190.86 139.098 190.673 138.908 190.441 138.908Z" fill="white"/>
<path d="M190.441 143.983H187.687C187.456 143.983 187.268 144.173 187.268 144.408V147.198C187.268 147.433 187.456 147.623 187.687 147.623H190.441C190.673 147.623 190.86 147.433 190.86 147.198V144.408C190.86 144.173 190.673 143.983 190.441 143.983Z" fill="white"/>
<path d="M195.409 143.971H192.73C192.457 143.971 192.236 144.195 192.236 144.472V147.108C192.236 147.385 192.457 147.608 192.73 147.608H195.409C195.641 147.608 195.829 147.418 195.829 147.183V144.393C195.829 144.158 195.641 143.968 195.409 143.968V143.971Z" fill="white"/>
<path d="M200.524 143.983H197.771C197.539 143.983 197.351 144.173 197.351 144.408V147.198C197.351 147.433 197.539 147.623 197.771 147.623H200.524C200.756 147.623 200.944 147.433 200.944 147.198V144.408C200.944 144.173 200.756 143.983 200.524 143.983Z" fill="white"/>
<path d="M205.568 143.983H202.814C202.582 143.983 202.395 144.173 202.395 144.408V147.198C202.395 147.433 202.582 147.623 202.814 147.623H205.568C205.799 147.623 205.987 147.433 205.987 147.198V144.408C205.987 144.173 205.799 143.983 205.568 143.983Z" fill="white"/>
<path d="M210.624 143.983H207.871C207.639 143.983 207.451 144.173 207.451 144.408V147.198C207.451 147.433 207.639 147.623 207.871 147.623H210.624C210.856 147.623 211.044 147.433 211.044 147.198V144.408C211.044 144.173 210.856 143.983 210.624 143.983Z" fill="white"/>
<path d="M205.568 149.054H202.814C202.582 149.054 202.395 149.245 202.395 149.479V152.269C202.395 152.504 202.582 152.694 202.814 152.694H205.568C205.799 152.694 205.987 152.504 205.987 152.269V149.479C205.987 149.245 205.799 149.054 205.568 149.054Z" fill="white"/>
<path d="M200.524 149.054H197.77C197.539 149.054 197.351 149.245 197.351 149.479V152.269C197.351 152.504 197.539 152.694 197.77 152.694H200.524C200.755 152.694 200.943 152.504 200.943 152.269V149.479C200.943 149.245 200.755 149.054 200.524 149.054Z" fill="white"/>
<path d="M195.484 149.053H192.805C192.532 149.053 192.311 149.277 192.311 149.554V152.19C192.311 152.467 192.532 152.69 192.805 152.69H195.484C195.716 152.69 195.903 152.5 195.903 152.265V149.475C195.903 149.24 195.716 149.05 195.484 149.05V149.053Z" fill="white"/>
<path d="M190.441 149.054H187.687C187.456 149.054 187.268 149.245 187.268 149.479V152.269C187.268 152.504 187.456 152.694 187.687 152.694H190.441C190.673 152.694 190.86 152.504 190.86 152.269V149.479C190.86 149.245 190.673 149.054 190.441 149.054Z" fill="white"/>
<path d="M190.441 123.686H187.687C187.456 123.686 187.268 123.876 187.268 124.111V126.901C187.268 127.135 187.456 127.326 187.687 127.326H190.441C190.673 127.326 190.86 127.135 190.86 126.901V124.111C190.86 123.876 190.673 123.686 190.441 123.686Z" fill="white"/>
<path d="M195.41 123.686H192.731C192.499 123.686 192.311 123.876 192.311 124.111V126.901C192.311 127.135 192.499 127.326 192.731 127.326H195.41C195.683 127.326 195.903 127.102 195.903 126.825V124.189C195.903 123.912 195.683 123.689 195.41 123.689V123.686Z" fill="white"/>
<path d="M200.524 123.686H197.77C197.539 123.686 197.351 123.876 197.351 124.111V126.901C197.351 127.135 197.539 127.326 197.77 127.326H200.524C200.755 127.326 200.943 127.135 200.943 126.901V124.111C200.943 123.876 200.755 123.686 200.524 123.686Z" fill="white"/>
<path d="M205.568 123.686H202.814C202.582 123.686 202.395 123.876 202.395 124.111V126.901C202.395 127.135 202.582 127.326 202.814 127.326H205.568C205.799 127.326 205.987 127.135 205.987 126.901V124.111C205.987 123.876 205.799 123.686 205.568 123.686Z" fill="white"/>
<path d="M210.624 128.761H207.871C207.639 128.761 207.451 128.951 207.451 129.186V131.976C207.451 132.21 207.639 132.401 207.871 132.401H210.624C210.856 132.401 211.044 132.21 211.044 131.976V129.186C211.044 128.951 210.856 128.761 210.624 128.761Z" fill="white"/>
<path d="M205.568 128.761H202.814C202.582 128.761 202.395 128.951 202.395 129.186V131.976C202.395 132.21 202.582 132.401 202.814 132.401H205.568C205.799 132.401 205.987 132.21 205.987 131.976V129.186C205.987 128.951 205.799 128.761 205.568 128.761Z" fill="white"/>
<path d="M200.524 128.761H197.771C197.539 128.761 197.351 128.951 197.351 129.186V131.976C197.351 132.21 197.539 132.401 197.771 132.401H200.524C200.756 132.401 200.944 132.21 200.944 131.976V129.186C200.944 128.951 200.756 128.761 200.524 128.761Z" fill="white"/>
<path d="M195.484 128.761H192.805C192.532 128.761 192.311 128.984 192.311 129.261V131.897C192.311 132.174 192.532 132.398 192.805 132.398H195.484C195.716 132.398 195.903 132.208 195.903 131.973V129.183C195.903 128.948 195.716 128.758 195.484 128.758V128.761Z" fill="white"/>
<path d="M190.441 128.761H187.687C187.456 128.761 187.268 128.951 187.268 129.186V131.976C187.268 132.21 187.456 132.401 187.687 132.401H190.441C190.673 132.401 190.86 132.21 190.86 131.976V129.186C190.86 128.951 190.673 128.761 190.441 128.761Z" fill="white"/>
<path d="M190.366 133.835H187.762C187.489 133.835 187.268 134.059 187.268 134.335V136.975C187.268 137.251 187.489 137.475 187.762 137.475H190.366C190.639 137.475 190.86 137.251 190.86 136.975V134.335C190.86 134.059 190.639 133.835 190.366 133.835Z" fill="white"/>
<path d="M195.484 133.834H192.805C192.532 133.834 192.311 134.058 192.311 134.335V136.971C192.311 137.248 192.532 137.471 192.805 137.471H195.484C195.716 137.471 195.903 137.281 195.903 137.047V134.257C195.903 134.022 195.716 133.832 195.484 133.832V133.834Z" fill="white"/>
<path d="M200.524 133.835H197.77C197.539 133.835 197.351 134.025 197.351 134.26V137.05C197.351 137.285 197.539 137.475 197.77 137.475H200.524C200.755 137.475 200.943 137.285 200.943 137.05V134.26C200.943 134.025 200.755 133.835 200.524 133.835Z" fill="white"/>
<path d="M205.568 133.835H202.814C202.582 133.835 202.395 134.025 202.395 134.26V137.05C202.395 137.285 202.582 137.475 202.814 137.475H205.568C205.799 137.475 205.987 137.285 205.987 137.05V134.26C205.987 134.025 205.799 133.835 205.568 133.835Z" fill="white"/>
<path d="M210.624 133.835H207.871C207.639 133.835 207.451 134.025 207.451 134.26V137.05C207.451 137.285 207.639 137.475 207.871 137.475H210.624C210.856 137.475 211.044 137.285 211.044 137.05V134.26C211.044 134.025 210.856 133.835 210.624 133.835Z" fill="white"/>
<path d="M215.666 133.835H212.913C212.681 133.835 212.494 134.025 212.494 134.26V137.05C212.494 137.285 212.681 137.475 212.913 137.475H215.666C215.898 137.475 216.086 137.285 216.086 137.05V134.26C216.086 134.025 215.898 133.835 215.666 133.835Z" fill="white"/>
<path d="M215.667 138.909H212.913C212.681 138.909 212.494 139.099 212.494 139.334V142.124C212.494 142.358 212.681 142.549 212.913 142.549H215.667C215.898 142.549 216.086 142.358 216.086 142.124V139.334C216.086 139.099 215.898 138.909 215.667 138.909Z" fill="white"/>
<path d="M210.624 138.909H207.871C207.639 138.909 207.451 139.099 207.451 139.334V142.124C207.451 142.358 207.639 142.549 207.871 142.549H210.624C210.856 142.549 211.044 142.358 211.044 142.124V139.334C211.044 139.099 210.856 138.909 210.624 138.909Z" fill="white"/>
<path d="M205.568 138.909H202.814C202.582 138.909 202.395 139.099 202.395 139.334V142.124C202.395 142.358 202.582 142.549 202.814 142.549H205.568C205.799 142.549 205.987 142.358 205.987 142.124V139.334C205.987 139.099 205.799 138.909 205.568 138.909Z" fill="white"/>
<path d="M200.524 138.909H197.771C197.539 138.909 197.351 139.099 197.351 139.334V142.124C197.351 142.358 197.539 142.549 197.771 142.549H200.524C200.756 142.549 200.944 142.358 200.944 142.124V139.334C200.944 139.099 200.756 138.909 200.524 138.909Z" fill="white"/>
<path d="M195.484 138.908H192.805C192.532 138.908 192.311 139.132 192.311 139.409V142.045C192.311 142.322 192.532 142.545 192.805 142.545H195.484C195.716 142.545 195.903 142.355 195.903 142.12V139.33C195.903 139.095 195.716 138.905 195.484 138.905V138.908Z" fill="white"/>
<path d="M190.441 138.908H187.687C187.456 138.908 187.268 139.098 187.268 139.333V142.123C187.268 142.357 187.456 142.548 187.687 142.548H190.441C190.673 142.548 190.86 142.357 190.86 142.123V139.333C190.86 139.098 190.673 138.908 190.441 138.908Z" fill="white"/>
<path d="M190.441 143.983H187.687C187.456 143.983 187.268 144.173 187.268 144.408V147.198C187.268 147.433 187.456 147.623 187.687 147.623H190.441C190.673 147.623 190.86 147.433 190.86 147.198V144.408C190.86 144.173 190.673 143.983 190.441 143.983Z" fill="white"/>
<path d="M195.409 143.971H192.73C192.457 143.971 192.236 144.195 192.236 144.472V147.108C192.236 147.385 192.457 147.608 192.73 147.608H195.409C195.641 147.608 195.829 147.418 195.829 147.183V144.393C195.829 144.158 195.641 143.968 195.409 143.968V143.971Z" fill="white"/>
<path d="M200.524 143.983H197.771C197.539 143.983 197.351 144.173 197.351 144.408V147.198C197.351 147.433 197.539 147.623 197.771 147.623H200.524C200.756 147.623 200.944 147.433 200.944 147.198V144.408C200.944 144.173 200.756 143.983 200.524 143.983Z" fill="white"/>
<path d="M205.568 143.983H202.814C202.582 143.983 202.395 144.173 202.395 144.408V147.198C202.395 147.433 202.582 147.623 202.814 147.623H205.568C205.799 147.623 205.987 147.433 205.987 147.198V144.408C205.987 144.173 205.799 143.983 205.568 143.983Z" fill="white"/>
<path d="M210.624 143.983H207.871C207.639 143.983 207.451 144.173 207.451 144.408V147.198C207.451 147.433 207.639 147.623 207.871 147.623H210.624C210.856 147.623 211.044 147.433 211.044 147.198V144.408C211.044 144.173 210.856 143.983 210.624 143.983Z" fill="white"/>
<path d="M205.568 149.054H202.814C202.582 149.054 202.395 149.245 202.395 149.479V152.269C202.395 152.504 202.582 152.694 202.814 152.694H205.568C205.799 152.694 205.987 152.504 205.987 152.269V149.479C205.987 149.245 205.799 149.054 205.568 149.054Z" fill="white"/>
<path d="M200.524 149.054H197.77C197.539 149.054 197.351 149.245 197.351 149.479V152.269C197.351 152.504 197.539 152.694 197.77 152.694H200.524C200.755 152.694 200.943 152.504 200.943 152.269V149.479C200.943 149.245 200.755 149.054 200.524 149.054Z" fill="white"/>
<path d="M195.484 149.053H192.805C192.532 149.053 192.311 149.277 192.311 149.554V152.19C192.311 152.467 192.532 152.69 192.805 152.69H195.484C195.716 152.69 195.903 152.5 195.903 152.265V149.475C195.903 149.24 195.716 149.05 195.484 149.05V149.053Z" fill="white"/>
<path d="M190.441 149.054H187.687C187.456 149.054 187.268 149.245 187.268 149.479V152.269C187.268 152.504 187.456 152.694 187.687 152.694H190.441C190.673 152.694 190.86 152.504 190.86 152.269V149.479C190.86 149.245 190.673 149.054 190.441 149.054Z" fill="white"/>
<path d="M242.927 129.667C241.468 127.36 238.738 125.713 234.69 125.713C228.054 125.713 223.16 130.656 223.16 138C223.16 145.816 228.054 150.288 234.69 150.288C238.738 150.288 241.326 148.358 242.927 146.145L243.444 150.006H246.786V117.05H242.927V129.667ZM235.067 146.851C230.314 146.851 227.113 143.226 227.113 138C227.113 132.775 230.314 129.149 235.067 129.149C239.773 129.149 242.974 132.822 242.974 138.095C242.974 143.226 239.773 146.851 235.067 146.851Z" fill="white"/>
<path d="M262.767 150.288C268.32 150.288 272.274 146.757 273.215 141.955H269.309C268.509 145.062 265.873 146.851 262.485 146.851C257.919 146.851 255.048 143.65 254.907 139.083V138.754H273.545C273.592 138.189 273.639 137.624 273.639 137.106C273.45 129.997 269.026 125.713 262.249 125.713C255.472 125.713 250.86 130.703 250.86 138C250.86 145.345 255.566 150.288 262.767 150.288ZM255.143 135.552C255.519 131.645 258.767 129.102 262.296 129.102C266.297 129.102 269.121 131.409 269.497 135.552H255.143Z" fill="white"/>
<path d="M289.472 125.713C285.425 125.713 282.977 127.407 281.566 129.244L281.048 125.995H277.706V150.006H281.566V138C281.566 132.586 284.295 129.244 288.813 129.244C293.002 129.244 295.308 131.88 295.308 136.871V150.006H299.167V136.635C299.167 128.679 294.885 125.713 289.472 125.713Z" fill="white"/>
<path d="M302.763 142.096C302.857 147.369 307.14 150.288 313.353 150.288C318.671 150.288 322.954 147.511 322.954 143.038C322.954 137.718 318.577 136.682 313.117 136.023C309.635 135.599 307.093 135.27 307.093 132.633C307.093 130.421 309.352 129.008 312.694 129.008C315.988 129.008 318.247 130.844 318.53 133.292H322.483C322.107 128.302 318.153 125.76 312.694 125.713C307.281 125.666 303.281 128.537 303.281 132.916C303.281 137.906 307.564 138.989 312.929 139.648C316.506 140.072 319.142 140.307 319.142 143.32C319.142 145.533 316.741 146.993 313.353 146.993C309.352 146.993 306.858 144.921 306.717 142.096H302.763Z" fill="white"/>
<path d="M328.878 121.946C330.29 121.946 331.373 120.91 331.373 119.451C331.373 117.992 330.29 116.956 328.878 116.956C327.466 116.956 326.384 117.992 326.384 119.451C326.384 120.91 327.466 121.946 328.878 121.946ZM326.902 150.006H330.761V125.995H326.902V150.006Z" fill="white"/>
<path d="M337.5 143.744C337.5 147.981 339.147 150.006 343.759 150.006H347.948V146.475H344.136C342.065 146.475 341.359 145.722 341.359 143.697V129.526H347.572V125.995H341.359V119.263H337.5V125.995H333.17V129.526H337.5V143.744Z" fill="white"/>
<path d="M357.922 150.147L356.745 153.066C355.851 155.326 355.474 155.891 353.262 155.891H349.827V159.422H354.439C357.827 159.422 358.722 157.915 360.228 154.055L371.288 125.995H367.193L360.039 145.157L352.65 125.995H348.556L357.922 150.147Z" fill="white"/>
<defs>
<filter id="filter0_f_1_2081" x="4.77111e-07" y="-0.000121663" width="557.627" height="1125" filterUnits="userSpaceOnUse" color-interpolation-filters="sRGB">
<feFlood flood-opacity="0" result="BackgroundImageFix"/>
<feBlend mode="normal" in="SourceGraphic" in2="BackgroundImageFix" result="shape"/>
<feGaussianBlur stdDeviation="3.47882" result="effect1_foregroundBlur_1_2081"/>
</filter>
<filter id="filter1_f_1_2081" x="540.919" y="210.938" width="16.7079" height="59.174" filterUnits="userSpaceOnUse" color-interpolation-filters="sRGB">
<feFlood flood-opacity="0" result="BackgroundImageFix"/>
<feBlend mode="normal" in="SourceGraphic" in2="BackgroundImageFix" result="shape"/>
<feGaussianBlur stdDeviation="2.78306" result="effect1_foregroundBlur_1_2081"/>
</filter>
<linearGradient id="paint0_linear_1_2081" x1="435.048" y1="-37.7855" x2="1031.73" y2="848.569" gradientUnits="userSpaceOnUse">
<stop stop-color="#1D7B6E"/>
<stop offset="1" stop-color="#E2FF6F" stop-opacity="0"/>
</linearGradient>
<linearGradient id="paint1_linear_1_2081" x1="435.048" y1="-37.7855" x2="1031.73" y2="848.569" gradientUnits="userSpaceOnUse">
<stop stop-color="#28B6A2"/>
<stop offset="1" stop-color="#E2FF6F" stop-opacity="0"/>
</linearGradient>
<linearGradient id="paint2_linear_1_2081" x1="270.297" y1="425.582" x2="270.297" y2="598.149" gradientUnits="userSpaceOnUse">
<stop offset="0.4375" stop-color="#D4F938"/>
<stop offset="1" stop-color="#32D875" stop-opacity="0.96"/>
</linearGradient>
<linearGradient id="paint3_linear_1_2081" x1="376.821" y1="352.955" x2="376.821" y2="406.801" gradientUnits="userSpaceOnUse">
<stop stop-color="#3CD279"/>
<stop offset="1" stop-color="#3ED179" stop-opacity="0"/>
</linearGradient>
<linearGradient id="paint4_linear_1_2081" x1="139.005" y1="352.955" x2="139.005" y2="406.801" gradientUnits="userSpaceOnUse">
<stop stop-color="#3CD279"/>
<stop offset="1" stop-color="#3ED179" stop-opacity="0"/>
</linearGradient>
<linearGradient id="paint5_linear_1_2081" x1="458.314" y1="499.768" x2="420.239" y2="537.843" gradientUnits="userSpaceOnUse">
<stop stop-color="#3CD279"/>
<stop offset="1" stop-color="#3ED179" stop-opacity="0"/>
</linearGradient>
<linearGradient id="paint6_linear_1_2081" x1="99.792" y1="499.768" x2="137.867" y2="537.843" gradientUnits="userSpaceOnUse">
<stop stop-color="#3CD279"/>
<stop offset="1" stop-color="#3ED179" stop-opacity="0"/>
</linearGradient>
<linearGradient id="paint7_linear_1_2081" x1="114.008" y1="646.943" x2="167.854" y2="646.943" gradientUnits="userSpaceOnUse">
<stop stop-color="#3CD279"/>
<stop offset="1" stop-color="#3ED179" stop-opacity="0"/>
</linearGradient>
<linearGradient id="paint8_linear_1_2081" x1="390.205" y1="652.691" x2="336.36" y2="652.691" gradientUnits="userSpaceOnUse">
<stop stop-color="#3CD279"/>
<stop offset="1" stop-color="#3ED179" stop-opacity="0"/>
</linearGradient>
</defs>
</svg>
