<svg width="22" height="25" viewBox="0 0 22 25" fill="none" xmlns="http://www.w3.org/2000/svg">
<g clip-path="url(#clip0_1_2256)">
<path d="M11.0044 6.81689C7.88121 6.81689 5.36202 9.29672 5.36202 12.3711C5.36202 15.4455 7.88121 17.9254 11.0044 17.9254C14.1276 17.9254 16.6468 15.4455 16.6468 12.3711C16.6468 9.29672 14.1276 6.81689 11.0044 6.81689ZM11.0044 15.9821C8.98612 15.9821 7.33613 14.3627 7.33613 12.3711C7.33613 10.3795 8.98121 8.76015 11.0044 8.76015C13.0276 8.76015 14.6727 10.3795 14.6727 12.3711C14.6727 14.3627 13.0227 15.9821 11.0044 15.9821ZM18.1937 6.58969C18.1937 7.30996 17.6044 7.8852 16.8776 7.8852C16.1459 7.8852 15.5616 7.30512 15.5616 6.58969C15.5616 5.87427 16.1508 5.29419 16.8776 5.29419C17.6044 5.29419 18.1937 5.87427 18.1937 6.58969ZM21.9307 7.90453C21.8473 6.16914 21.4446 4.63194 20.1531 3.36544C18.8665 2.09893 17.3049 1.70255 15.5419 1.61554C13.725 1.51402 8.27898 1.51402 6.46202 1.61554C4.70399 1.69772 3.14238 2.0941 1.85087 3.3606C0.559353 4.6271 0.161586 6.1643 0.0731932 7.8997C-0.0299315 9.68827 -0.0299315 15.0491 0.0731932 16.8377C0.156675 18.5731 0.559353 20.1103 1.85087 21.3768C3.14238 22.6433 4.69908 23.0397 6.46202 23.1267C8.27898 23.2282 13.725 23.2282 15.5419 23.1267C17.3049 23.0445 18.8665 22.6481 20.1531 21.3768C21.4397 20.1103 21.8423 18.5731 21.9307 16.8377C22.0339 15.0491 22.0339 9.6931 21.9307 7.90453ZM19.5834 18.7568C19.2004 19.7043 18.4589 20.4342 17.4915 20.8161C16.0428 21.3816 12.6053 21.2511 11.0044 21.2511C9.40353 21.2511 5.96113 21.3768 4.51738 20.8161C3.55488 20.439 2.81337 19.7091 2.42542 18.7568C1.85087 17.3308 1.98346 13.947 1.98346 12.3711C1.98346 10.7952 1.85578 7.40664 2.42542 5.98545C2.80846 5.03799 3.54997 4.30806 4.51738 3.92618C5.96604 3.3606 9.40353 3.49112 11.0044 3.49112C12.6053 3.49112 16.0477 3.36544 17.4915 3.92618C18.454 4.30323 19.1955 5.03316 19.5834 5.98545C20.158 7.41147 20.0254 10.7952 20.0254 12.3711C20.0254 13.947 20.158 17.3356 19.5834 18.7568Z" fill="white"/>
</g>
<defs>
<clipPath id="clip0_1_2256">
<rect width="21.3531" height="24.0222" fill="white" transform="scale(1.03029)"/>
</clipPath>
</defs>
</svg>
