<svg width="33" height="40" viewBox="0 0 33 40" fill="none" xmlns="http://www.w3.org/2000/svg">
<path d="M23.7985 0.0159735C23.7985 0.0159735 19.9983 9.68004 19.724 12.0892C19.4497 14.4984 17.3135 18.8135 23.4841 22.2552C23.4841 22.2552 30.6951 25.9304 32.7373 26.4186C32.7373 26.4186 25.0345 23.5008 22.8504 23.2325C20.6663 22.9642 16.3992 21.8711 12.4056 30.4775L8.44296 39.9836C8.44296 39.9836 12.1632 29.8535 12.5624 27.751C12.9615 25.6484 14.7877 20.7502 8.23788 17.4223L0.0175144 13.7484C0.0175144 13.7484 6.68984 16.5345 10.8733 16.969C15.0568 17.4036 18.6995 13.022 23.7985 0.0159735Z" fill="white" stroke="white" stroke-width="0.0844961" stroke-miterlimit="10"/>
</svg>
