<svg width="889" height="446" viewBox="0 0 889 446" fill="none" xmlns="http://www.w3.org/2000/svg">
<path d="M17.3117 33.7702L20.7293 365.649" stroke="#F45F5F" stroke-width="2.51558"/>
<rect x="1.27141" y="1.25838" width="6.56652" height="251.223" transform="matrix(1.00053 0 0.0103027 1.00047 13.4863 104.804)" fill="#F45F5F" stroke="#F45F5F" stroke-width="2.51558"/>
<path d="M32.5766 302.768L34.0516 446" stroke="#F45F5F" stroke-width="2.51558"/>
<rect x="1.27141" y="1.25838" width="6.56652" height="56.8453" transform="matrix(1.00053 0 0.0103027 1.00047 28.5945 358.661)" fill="#F45F5F" stroke="#F45F5F" stroke-width="2.51558"/>
<path d="M75.1995 250.366L76.8784 413.394" stroke="#F45F5F" stroke-width="2.51558"/>
<rect x="1.27141" y="1.25838" width="6.56651" height="69.6486" transform="matrix(1.00053 0 0.0103027 1.00047 70.7621 262.01)" fill="#F45F5F" stroke="#F45F5F" stroke-width="2.51558"/>
<path d="M127.778 61.717L129.421 221.252" stroke="#F45F5F" stroke-width="2.51558"/>
<rect x="1.27141" y="1.25838" width="6.56653" height="45.2059" transform="matrix(1.00053 0 0.0103027 1.00047 123.449 83.8426)" fill="#F45F5F" stroke="#F45F5F" stroke-width="2.51558"/>
<path d="M154.703 29.1125L156.046 159.535" stroke="#F45F5F" stroke-width="2.51558"/>
<rect x="1.27141" y="1.25838" width="6.56651" height="67.3207" transform="matrix(1.00053 0 0.0103027 1.00047 150.517 65.2102)" fill="#F45F5F" stroke="#F45F5F" stroke-width="2.51558"/>
<path d="M169.148 108.297L170.216 211.937" stroke="#F45F5F" stroke-width="2.51558"/>
<rect x="1.27141" y="1.25838" width="6.56651" height="70.8125" transform="matrix(1.00053 0 0.0103027 1.00047 164.819 130.422)" fill="#F45F5F" stroke="#F45F5F" stroke-width="2.51558"/>
<path d="M183.762 203.786L184.853 309.754" stroke="#F45F5F" stroke-width="2.51558"/>
<rect x="1.27141" y="1.25838" width="6.56652" height="55.6813" transform="matrix(1.00053 0 0.0103027 1.00047 179.23 206.114)" fill="#F45F5F" stroke="#F45F5F" stroke-width="2.51558"/>
<path d="M210.231 126.929L210.579 160.699" stroke="#F45F5F" stroke-width="2.51558"/>
<rect x="0.882448" y="0.873408" width="7.33653" height="1.74599" transform="matrix(1.00053 0 0.0103027 1.00047 205.882 146.725)" fill="#F45F5F" stroke="#F45F5F" stroke-width="1.74599"/>
<path d="M223.958 136.246L224.389 178.167" stroke="#F45F5F" stroke-width="2.51558"/>
<rect x="1.27141" y="1.25838" width="6.56652" height="25.4189" transform="matrix(1.00053 0 0.0103027 1.00047 219.461 142.067)" fill="#F45F5F" stroke="#F45F5F" stroke-width="2.51558"/>
<path d="M252.37 248.035L253.233 331.878" stroke="#F45F5F" stroke-width="2.51558"/>
<rect x="1.27141" y="1.25838" width="6.56694" height="12.6163" transform="matrix(1.00053 0 0.0103027 1.00047 247.824 249.2)" fill="#F45F5F" stroke="#F45F5F" stroke-width="2.51558"/>
<path d="M280.418 214.267L280.825 253.859" stroke="#F45F5F" stroke-width="2.51558"/>
<rect x="1.27141" y="1.25838" width="6.56694" height="6.79636" transform="matrix(1.00053 0 0.0103027 1.00047 276.029 230.568)" fill="#F45F5F" stroke="#F45F5F" stroke-width="2.51558"/>
<path d="M294.24 232.898L294.599 267.833" stroke="#F45F5F" stroke-width="2.51558"/>
<rect x="1.27141" y="1.25838" width="6.56694" height="10.2883" transform="matrix(1.00053 0 0.0103027 1.00047 289.695 234.061)" fill="#F45F5F" stroke="#F45F5F" stroke-width="2.51558"/>
<path d="M360.928 90.8295L361.612 157.205" stroke="#F45F5F" stroke-width="2.51558"/>
<rect x="1.27141" y="1.25838" width="6.56647" height="52.1895" transform="matrix(1.00053 0 0.0103027 1.00047 356.42 95.4876)" fill="#F45F5F" stroke="#F45F5F" stroke-width="2.51558"/>
<path d="M375.051 138.574L375.363 168.851" stroke="#F45F5F" stroke-width="2.51558"/>
<rect x="1.27141" y="1.25838" width="6.56694" height="7.96035" transform="matrix(1.00053 0 0.0103027 1.00047 370.553 144.397)" fill="#F45F5F" stroke="#F45F5F" stroke-width="2.51558"/>
<path d="M429.282 0L429.845 54.731" stroke="#F45F5F" stroke-width="2.51558"/>
<rect x="1.27141" y="1.25838" width="6.56652" height="30.0747" transform="matrix(1.00053 0 0.0103027 1.00047 424.928 19.796)" fill="#F45F5F" stroke="#F45F5F" stroke-width="2.51558"/>
<path d="M497.589 15.1386L499.328 183.99" stroke="#F45F5F" stroke-width="2.51558"/>
<rect x="1.27141" y="1.25838" width="6.56658" height="160.436" transform="matrix(1.00053 0 0.0103027 1.00047 493.067 18.6305)" fill="#F45F5F" stroke="#F45F5F" stroke-width="2.51558"/>
<path d="M443.235 31.4401L443.799 86.1711" stroke="#F45F5F" stroke-width="2.51558"/>
<rect x="1.27141" y="1.25838" width="6.567" height="6.79636" transform="matrix(1.00053 0 0.0103027 1.00047 438.799 43.0853)" fill="#F45F5F" stroke="#F45F5F" stroke-width="2.51558"/>
<path d="M540.047 57.0593L540.515 102.474" stroke="#F45F5F" stroke-width="2.51558"/>
<rect x="1.27141" y="1.25838" width="6.56689" height="6.79636" transform="matrix(1.00053 0 0.0103027 1.00047 535.538 61.7164)" fill="#F45F5F" stroke="#F45F5F" stroke-width="2.51558"/>
<path d="M553.629 52.4026L554.624 149.055" stroke="#F45F5F" stroke-width="2.51558"/>
<rect x="1.27141" y="1.25838" width="6.56658" height="75.4683" transform="matrix(1.00053 0 0.0103027 1.00047 549.24 68.7035)" fill="#F45F5F" stroke="#F45F5F" stroke-width="2.51558"/>
<path d="M566.94 131.587L567.695 204.949" stroke="#F45F5F" stroke-width="2.51558"/>
<rect x="1.27141" y="1.25838" width="6.56652" height="53.3535" transform="matrix(1.00053 0 0.0103027 1.00047 562.538 146.725)" fill="#F45F5F" stroke="#F45F5F" stroke-width="2.51558"/>
<path d="M581.253 197.963L582.164 286.464" stroke="#F45F5F" stroke-width="2.51558"/>
<rect x="1.27141" y="1.25838" width="6.56658" height="64.9928" transform="matrix(1.00053 0 0.0103027 1.00047 576.72 200.291)" fill="#F45F5F" stroke="#F45F5F" stroke-width="2.51558"/>
<path d="M609.829 215.43L610.656 295.779" stroke="#F45F5F" stroke-width="2.51558"/>
<rect x="1.27141" y="1.25838" width="6.56652" height="35.8944" transform="matrix(1.00053 0 0.0103027 1.00047 605.68 255.022)" fill="#F45F5F" stroke="#F45F5F" stroke-width="2.51558"/>
<path d="M624.18 285.299L625.007 365.649" stroke="#F45F5F" stroke-width="2.51558"/>
<rect x="1.27141" y="1.25838" width="6.56658" height="55.6813" transform="matrix(1.00053 0 0.0103027 1.00047 619.646 287.628)" fill="#F45F5F" stroke="#F45F5F" stroke-width="2.51558"/>
<path d="M651.787 319.07L652.543 392.433" stroke="#F45F5F" stroke-width="2.51558"/>
<rect x="1.27141" y="1.25838" width="6.56694" height="16.1083" transform="matrix(1.00053 0 0.0103027 1.00047 647.291 324.892)" fill="#F45F5F" stroke="#F45F5F" stroke-width="2.51558"/>
<path d="M665.298 307.424L665.922 367.978" stroke="#F45F5F" stroke-width="2.51558"/>
<rect x="1.27141" y="1.25838" width="6.56694" height="6.79636" transform="matrix(1.00053 0 0.0103027 1.00047 661.076 340.03)" fill="#F45F5F" stroke="#F45F5F" stroke-width="2.51558"/>
<path d="M692.355 287.629L693.278 377.295" stroke="#F45F5F" stroke-width="2.51558"/>
<rect x="1.27141" y="1.25838" width="6.56652" height="59.1731" transform="matrix(1.00053 0 0.0103027 1.00047 687.989 306.261)" fill="#F45F5F" stroke="#F45F5F" stroke-width="2.51558"/>
<path d="M720.895 301.602L721.41 351.675" stroke="#F45F5F" stroke-width="2.51558"/>
<rect x="1.27141" y="1.25838" width="6.56658" height="25.4189" transform="matrix(1.00053 0 0.0103027 1.00047 716.446 312.083)" fill="#F45F5F" stroke="#F45F5F" stroke-width="2.51558"/>
<path d="M733.702 331.88L734.397 399.42" stroke="#F45F5F" stroke-width="2.51558"/>
<rect x="1.27141" y="1.25838" width="6.56658" height="37.0583" transform="matrix(1.00053 0 0.0103027 1.00047 729.168 334.208)" fill="#F45F5F" stroke="#F45F5F" stroke-width="2.51558"/>
<path d="M747.584 356.333L748.111 407.571" stroke="#F45F5F" stroke-width="2.51558"/>
<rect x="1.27141" y="1.25838" width="6.567" height="6.79636" transform="matrix(1.00053 0 0.0103027 1.00047 743.207 373.8)" fill="#F45F5F" stroke="#F45F5F" stroke-width="2.51558"/>
<path d="M775.476 307.424L776.075 365.649" stroke="#F45F5F" stroke-width="2.51558"/>
<rect x="1.27141" y="1.25838" width="6.567" height="16.1083" transform="matrix(1.00053 0 0.0103027 1.00047 771.099 324.892)" fill="#F45F5F" stroke="#F45F5F" stroke-width="2.51558"/>
<path d="M828.294 142.068L829.446 253.859" stroke="#F45F5F" stroke-width="2.51558"/>
<rect x="1.27141" y="1.25838" width="6.56705" height="12.6163" transform="matrix(1.00053 0 0.0103027 1.00047 823.893 157.205)" fill="#F45F5F" stroke="#F45F5F" stroke-width="2.51558"/>
<path d="M855.315 118.779L856.382 222.418" stroke="#F45F5F" stroke-width="2.51558"/>
<rect x="1.27141" y="1.25838" width="6.56658" height="40.5501" transform="matrix(1.00053 0 0.0103027 1.00047 851.31 172.344)" fill="#F45F5F" stroke="#F45F5F" stroke-width="2.51558"/>
<path d="M239.011 164.192L239.947 255.022" stroke="#F45F5F" stroke-width="2.51558"/>
<rect x="1.27141" y="1.25838" width="6.56649" height="85.9437" transform="matrix(1.00053 0 0.0103027 1.00047 234.467 165.357)" fill="#F45F5F" stroke="#F45F5F" stroke-width="2.51558"/>
<path d="M47.0179 271.325C47.5939 327.261 47.9168 358.622 48.4928 414.557" stroke="#29B57E" stroke-width="2.51558"/>
<rect x="1.27141" y="1.25838" width="6.56652" height="55.6813" transform="matrix(1.00053 0 0.0103027 1.00047 43.3243 355.167)" fill="#29B57E" stroke="#29B57E" stroke-width="2.51558"/>
<path d="M60.3839 245.706C60.9692 302.552 61.2974 334.422 61.8828 391.268" stroke="#29B57E" stroke-width="2.51558"/>
<rect x="1.27141" y="1.25838" width="6.56652" height="90.5995" transform="matrix(1.00053 0 0.0103027 1.00047 55.9947 262.008)" fill="#29B57E" stroke="#29B57E" stroke-width="2.51558"/>
<path d="M87.5005 231.732C88.0438 284.484 88.3483 314.06 88.8916 366.813" stroke="#29B57E" stroke-width="2.51558"/>
<rect x="1.27141" y="1.25838" width="6.56651" height="78.9601" transform="matrix(1.00053 0 0.0103027 1.00047 83.2547 262.008)" fill="#29B57E" stroke="#29B57E" stroke-width="2.51558"/>
<path d="M100.531 173.507C101.075 226.259 101.379 255.835 101.923 308.588" stroke="#29B57E" stroke-width="2.51558"/>
<rect x="1.27141" y="1.25838" width="6.56651" height="85.9437" transform="matrix(1.00053 0 0.0103027 1.00047 95.9983 175.836)" fill="#29B57E" stroke="#29B57E" stroke-width="2.51558"/>
<path d="M113.966 44.2491C114.716 117.011 115.136 157.806 115.885 230.567" stroke="#29B57E" stroke-width="2.51558"/>
<rect x="1.27141" y="1.25838" width="6.56652" height="96.4192" transform="matrix(1.00053 0 0.0103027 1.00047 109.793 81.5123)" fill="#29B57E" stroke="#29B57E" stroke-width="2.51558"/>
<path d="M141.047 26.7819C141.59 79.5342 141.895 109.11 142.438 161.863" stroke="#29B57E" stroke-width="2.51558"/>
<rect x="1.27141" y="1.25838" width="6.56652" height="62.665" transform="matrix(1.00053 0 0.0103027 1.00047 136.851 61.7167)" fill="#29B57E" stroke="#29B57E" stroke-width="2.51558"/>
<path d="M196.779 144.395C197.271 192.145 197.547 218.916 198.038 266.666" stroke="#29B57E" stroke-width="2.51558"/>
<rect x="1.27141" y="1.25838" width="6.56652" height="108.059" transform="matrix(1.00053 0 0.0103027 1.00047 192.317 153.711)" fill="#29B57E" stroke="#29B57E" stroke-width="2.51558"/>
<path d="M265.459 195.632C265.74 222.918 265.897 238.216 266.178 265.502" stroke="#29B57E" stroke-width="2.51558"/>
<rect x="1.27141" y="1.25838" width="6.56649" height="26.5829" transform="matrix(1.00053 0 0.0103027 1.00047 261.31 235.225)" fill="#29B57E" stroke="#29B57E" stroke-width="2.51558"/>
<path d="M307.737 220.087C308.004 246.009 308.153 260.542 308.42 286.463" stroke="#29B57E" stroke-width="2.51558"/>
<rect x="1.27141" y="1.25838" width="6.56649" height="25.4189" transform="matrix(1.00053 0 0.0103027 1.00047 303.192 221.25)" fill="#29B57E" stroke="#29B57E" stroke-width="2.51558"/>
<path d="M320.636 149.054C320.987 183.161 321.184 202.284 321.536 236.391" stroke="#29B57E" stroke-width="2.51558"/>
<rect x="1.27141" y="1.25838" width="6.56652" height="74.3043" transform="matrix(1.00053 0 0.0103027 1.00047 316.128 153.711)" fill="#29B57E" stroke="#29B57E" stroke-width="2.51558"/>
<path d="M333.919 115.284C334.12 134.839 334.233 145.802 334.434 165.357" stroke="#29B57E" stroke-width="2.51558"/>
<rect x="1.27141" y="1.25838" width="6.56649" height="31.2386" transform="matrix(1.00053 0 0.0103027 1.00047 329.374 116.447)" fill="#29B57E" stroke="#29B57E" stroke-width="2.51558"/>
<path d="M347.153 76.8561C347.41 101.868 347.555 115.891 347.812 140.903" stroke="#29B57E" stroke-width="2.51558"/>
<rect x="1.27141" y="1.25838" width="6.56691" height="17.2723" transform="matrix(1.00053 0 0.0103027 1.00047 342.789 95.4866)" fill="#29B57E" stroke="#29B57E" stroke-width="2.51558"/>
<path d="M388.188 90.8293C388.427 114.022 388.561 127.025 388.799 150.218" stroke="#29B57E" stroke-width="2.51558"/>
<rect x="1.27141" y="1.25838" width="6.56652" height="35.8944" transform="matrix(1.00053 0 0.0103027 1.00047 383.811 108.296)" fill="#29B57E" stroke="#29B57E" stroke-width="2.51558"/>
<path d="M402.535 50.072C402.811 76.9029 402.966 91.9459 403.242 118.777" stroke="#29B57E" stroke-width="2.51558"/>
<rect x="1.27141" y="1.25838" width="6.56655" height="37.0583" transform="matrix(1.00053 0 0.0103027 1.00047 398.217 73.3615)" fill="#29B57E" stroke="#29B57E" stroke-width="2.51558"/>
<path d="M455.632 22.1237C455.88 46.226 456.019 59.7393 456.268 83.8416" stroke="#29B57E" stroke-width="2.51558"/>
<rect x="0.588299" y="0.582272" width="7.91853" height="1.16399" transform="matrix(1.00053 0 0.0103027 1.00047 451.346 47.7424)" fill="#29B57E" stroke="#29B57E" stroke-width="1.16399"/>
<path d="M415.805 15.1371C416.143 47.8799 416.332 66.2375 416.669 98.9803" stroke="#29B57E" stroke-width="2.51558"/>
<rect x="1.27141" y="1.25838" width="6.56652" height="54.5174" transform="matrix(1.00053 0 0.0103027 1.00047 411.26 16.3009)" fill="#29B57E" stroke="#29B57E" stroke-width="2.51558"/>
<path d="M469.167 12.8083C469.364 31.9082 469.474 42.6168 469.67 61.7168" stroke="#29B57E" stroke-width="2.51558"/>
<rect x="1.27141" y="1.25838" width="6.56697" height="13.7803" transform="matrix(1.00053 0 0.0103027 1.00047 464.825 33.7684)" fill="#29B57E" stroke="#29B57E" stroke-width="2.51558"/>
<path d="M525.087 38.4267C525.27 56.1624 525.372 66.1061 525.555 83.8418" stroke="#29B57E" stroke-width="2.51558"/>
<rect x="1.27141" y="1.25838" width="6.56694" height="12.6163" transform="matrix(1.00053 0 0.0103027 1.00047 520.687 53.5649)" fill="#29B57E" stroke="#29B57E" stroke-width="2.51558"/>
<path d="M595.265 235.225C595.476 255.69 595.594 267.163 595.805 287.627" stroke="#29B57E" stroke-width="2.51558"/>
<rect x="1.27141" y="1.25838" width="6.56689" height="10.2883" transform="matrix(1.00053 0 0.0103027 1.00047 590.937 257.35)" fill="#29B57E" stroke="#29B57E" stroke-width="2.51558"/>
<path d="M637.88 292.286C638.128 316.388 638.267 329.901 638.515 354.004" stroke="#29B57E" stroke-width="2.51558"/>
<rect x="1.27141" y="1.25838" width="6.56658" height="19.5992" transform="matrix(1.00053 0 0.0103027 1.00047 633.684 327.22)" fill="#29B57E" stroke="#29B57E" stroke-width="2.51558"/>
<path d="M678.651 280.641C678.956 310.201 679.126 326.774 679.431 356.333" stroke="#29B57E" stroke-width="2.51558"/>
<rect x="1.27141" y="1.25838" width="6.56652" height="42.878" transform="matrix(1.00053 0 0.0103027 1.00047 674.394 309.752)" fill="#29B57E" stroke="#29B57E" stroke-width="2.51558"/>
<path d="M707.288 303.931C707.531 327.579 707.668 340.837 707.911 364.485" stroke="#29B57E" stroke-width="2.51558"/>
<rect x="1.27141" y="1.25838" width="6.56652" height="40.5501" transform="matrix(1.00053 0 0.0103027 1.00047 702.874 317.904)" fill="#29B57E" stroke="#29B57E" stroke-width="2.51558"/>
<path d="M760.637 300.437C760.983 334.089 761.178 352.957 761.524 386.609" stroke="#29B57E" stroke-width="2.51558"/>
<rect x="1.27141" y="1.25838" width="6.56658" height="46.3698" transform="matrix(1.00053 0 0.0103027 1.00047 756.332 324.891)" fill="#29B57E" stroke="#29B57E" stroke-width="2.51558"/>
<path d="M788.71 268.996C789.038 300.829 789.222 318.676 789.55 350.51" stroke="#29B57E" stroke-width="2.51558"/>
<rect x="1.27141" y="1.25838" width="6.56647" height="34.7304" transform="matrix(1.00053 0 0.0103027 1.00047 784.44 296.943)" fill="#29B57E" stroke="#29B57E" stroke-width="2.51558"/>
<path d="M813.6 149.054C813.932 181.342 814.119 199.445 814.451 231.733" stroke="#29B57E" stroke-width="2.51558"/>
<rect x="1.27141" y="1.25838" width="6.56652" height="74.3043" transform="matrix(1.00053 0 0.0103027 1.00047 809.091 153.711)" fill="#29B57E" stroke="#29B57E" stroke-width="2.51558"/>
<path d="M869.425 165.356C869.701 192.186 869.856 207.229 870.132 234.06" stroke="#29B57E" stroke-width="2.51558"/>
<rect x="1.27141" y="1.25838" width="6.56658" height="33.5665" transform="matrix(1.00053 0 0.0103027 1.00047 864.939 172.342)" fill="#29B57E" stroke="#29B57E" stroke-width="2.51558"/>
<path d="M883.95 142.067C884.17 163.441 884.294 175.424 884.514 196.798" stroke="#29B57E" stroke-width="2.51558"/>
<rect x="1.27141" y="1.25838" width="6.56694" height="11.4523" transform="matrix(1.00053 0 0.0103027 1.00047 879.621 164.191)" fill="#29B57E" stroke="#29B57E" stroke-width="2.51558"/>
<path d="M841.252 76.8561C841.772 127.335 842.063 155.636 842.583 206.114" stroke="#29B57E" stroke-width="2.51558"/>
<rect x="0.588297" y="0.58227" width="7.91859" height="1.16399" transform="matrix(1.00053 0 0.0103027 1.00047 837.686 172.343)" fill="#29B57E" stroke="#29B57E" stroke-width="1.16399"/>
<path d="M800.76 225.91C801.078 256.834 801.257 274.171 801.575 305.095" stroke="#29B57E" stroke-width="2.51558"/>
<rect x="1.27141" y="1.25838" width="6.56652" height="74.3043" transform="matrix(1.00053 0 0.0103027 1.00047 796.215 227.074)" fill="#29B57E" stroke="#29B57E" stroke-width="2.51558"/>
<path d="M511.745 66.3738C512.208 111.395 512.468 136.637 512.932 181.658" stroke="#29B57E" stroke-width="2.51558"/>
<rect x="1.27141" y="1.25838" width="6.56658" height="98.7471" transform="matrix(1.00053 0 0.0103027 1.00047 507.296 76.8555)" fill="#29B57E" stroke="#29B57E" stroke-width="2.51558"/>
<path d="M482.809 13.9737C482.903 23.0689 482.955 28.1682 483.049 37.2634" stroke="#29B57E" stroke-width="2.51558"/>
<rect x="1.27141" y="1.25838" width="6.56689" height="5.63237" transform="matrix(1.00053 0 0.0103027 1.00047 478.276 16.3009)" fill="#29B57E" stroke="#29B57E" stroke-width="2.51558"/>
<path d="M3.94434 59.3877C4.46416 109.866 4.7556 138.167 5.27542 188.646" stroke="#29B57E" stroke-width="2.51558"/>
<rect x="1.27141" y="1.25838" width="6.56652" height="58.0092" transform="matrix(1.00053 0 0.0103027 1.00047 -0.0136338 117.611)" fill="#29B57E" stroke="#29B57E" stroke-width="2.51558"/>
</svg>
