<svg width="184" height="44" viewBox="0 0 184 44" fill="none" xmlns="http://www.w3.org/2000/svg">
<g filter="url(#filter0_d_1_358)">
<g clip-path="url(#clip0_1_358)">
<path d="M62.506 0.0961914H66.5202V34.245H63.0444L62.506 30.244C60.8412 32.5362 58.1494 34.5367 53.9419 34.5367C47.0399 34.5367 41.9517 29.9028 41.9517 21.8045C41.9517 14.1933 47.0426 9.0723 53.9419 9.0723C58.1522 9.0723 60.9903 10.7811 62.506 13.1696V0.0961914ZM62.5557 21.9008C62.5557 16.4359 59.2261 12.633 54.334 12.633C49.4418 12.633 46.0625 16.3891 46.0625 21.8045C46.0625 27.2199 49.3893 30.976 54.334 30.976C59.2786 30.976 62.5557 27.2199 62.5557 21.9036V21.9008Z" fill="#0E0E0F"/>
<path d="M67.4967 21.8045C67.4967 14.2427 72.2923 9.07227 79.3406 9.07227C86.389 9.07227 90.9886 13.5108 91.1846 20.8771C91.1846 21.4137 91.1349 21.9998 91.0879 22.5832H71.707V22.9244C71.8533 27.6574 74.8405 30.9732 79.5864 30.9732C83.1092 30.9732 85.8507 29.1185 86.6844 25.899H90.7456C89.7655 30.8741 85.6546 34.5339 79.879 34.5339C72.3916 34.5339 67.4967 29.413 67.4967 21.8017V21.8045ZM86.8777 19.2674C86.4857 14.9747 83.5509 12.5835 79.3903 12.5835C75.7184 12.5835 72.3419 15.2169 71.9499 19.2674H86.8777Z" fill="#0E0E0F"/>
<path d="M114.483 20.3896V34.2445H110.469V20.6345C110.469 15.464 108.069 12.7316 103.716 12.7316C99.0166 12.7316 96.1785 16.196 96.1785 21.804V34.2445H92.1642V9.36621H95.6401L96.1785 12.7316C97.6472 10.8301 100.193 9.07178 104.4 9.07178C110.03 9.07178 114.483 12.1454 114.483 20.3896Z" fill="#0E0E0F"/>
<path d="M119.084 26.0497C119.231 28.9775 121.826 31.1239 125.986 31.1239C129.509 31.1239 132.005 29.6104 132.005 27.3182C132.005 24.195 129.264 23.9529 125.545 23.5126C119.965 22.8302 115.512 21.7075 115.512 16.537C115.512 11.9994 119.672 9.02481 125.302 9.07434C130.978 9.12387 135.092 11.7573 135.481 16.9277H131.37C131.077 14.3907 128.728 12.4892 125.302 12.4892C121.876 12.4892 119.476 13.9531 119.476 16.2453C119.476 18.9778 122.119 19.319 125.741 19.7565C131.417 20.4389 135.97 21.5121 135.97 27.0238C135.97 31.6577 131.516 34.536 125.986 34.536C119.526 34.536 115.073 31.5119 114.974 26.0469H119.084V26.0497Z" fill="#0E0E0F"/>
<path d="M138.223 2.58662C138.223 1.07317 139.35 0 140.818 0C142.287 0 143.413 1.07317 143.413 2.58662C143.413 4.10006 142.287 5.17323 140.818 5.17323C139.35 5.17323 138.223 4.10006 138.223 2.58662ZM138.762 9.36685H142.776V34.2451H138.762V9.36685Z" fill="#0E0E0F"/>
<path d="M148.448 13.0247H143.945V9.36495H148.448V2.39209H152.462V9.3677H158.923V13.0275H152.462V27.7107C152.462 29.8075 153.197 30.589 155.35 30.589H159.315V34.2488H154.958C150.163 34.2488 148.448 32.1519 148.448 27.7602V13.0247Z" fill="#0E0E0F"/>
<path d="M159.611 9.36719H163.868L171.551 29.2208L178.992 9.36719H183.249L171.747 38.4419C170.182 42.4429 169.252 44.0031 165.729 44.0031H160.933V40.3433H164.506C166.806 40.3433 167.198 39.7572 168.128 37.4155L169.351 34.3913L159.611 9.36719Z" fill="#0E0E0F"/>
<path d="M3.17507 5.90283H0.419767C0.188004 5.90283 0.00012207 6.09009 0.00012207 6.32109V9.06731C0.00012207 9.29831 0.188004 9.48557 0.419767 9.48557H3.17507C3.40683 9.48557 3.59472 9.29831 3.59472 9.06731V6.32109C3.59472 6.09009 3.40683 5.90283 3.17507 5.90283Z" fill="#0E0E0F"/>
<path d="M8.14569 5.90283H5.46493C5.23302 5.90283 5.04529 6.08995 5.04529 6.32109V9.06731C5.04529 9.29845 5.23302 9.48557 5.46493 9.48557H8.14569C8.41902 9.48557 8.63988 9.26543 8.63988 8.99301V6.39814C8.63988 6.12572 8.41902 5.90558 8.14569 5.90558V5.90283Z" fill="#0E0E0F"/>
<path d="M13.2583 5.90283H10.503C10.2713 5.90283 10.0834 6.09009 10.0834 6.32109V9.06731C10.0834 9.29831 10.2713 9.48557 10.503 9.48557H13.2583C13.4901 9.48557 13.678 9.29831 13.678 9.06731V6.32109C13.678 6.09009 13.4901 5.90283 13.2583 5.90283Z" fill="#0E0E0F"/>
<path d="M18.3036 5.90283H15.5483C15.3165 5.90283 15.1287 6.09009 15.1287 6.32109V9.06731C15.1287 9.29831 15.3165 9.48557 15.5483 9.48557H18.3036C18.5354 9.48557 18.7233 9.29831 18.7233 9.06731V6.32109C18.7233 6.09009 18.5354 5.90283 18.3036 5.90283Z" fill="#0E0E0F"/>
<path d="M23.3632 10.8979H20.6079C20.3761 10.8979 20.1882 11.0852 20.1882 11.3162V14.0624C20.1882 14.2934 20.3761 14.4807 20.6079 14.4807H23.3632C23.5949 14.4807 23.7828 14.2934 23.7828 14.0624V11.3162C23.7828 11.0852 23.5949 10.8979 23.3632 10.8979Z" fill="#0E0E0F"/>
<path d="M18.3036 10.8979H15.5483C15.3165 10.8979 15.1287 11.0852 15.1287 11.3162V14.0624C15.1287 14.2934 15.3165 14.4807 15.5483 14.4807H18.3036C18.5354 14.4807 18.7233 14.2934 18.7233 14.0624V11.3162C18.7233 11.0852 18.5354 10.8979 18.3036 10.8979Z" fill="#0E0E0F"/>
<path d="M13.2583 10.8979H10.503C10.2713 10.8979 10.0834 11.0852 10.0834 11.3162V14.0624C10.0834 14.2934 10.2713 14.4807 10.503 14.4807H13.2583C13.4901 14.4807 13.678 14.2934 13.678 14.0624V11.3162C13.678 11.0852 13.4901 10.8979 13.2583 10.8979Z" fill="#0E0E0F"/>
<path d="M8.22024 10.8973H5.53948C5.26615 10.8973 5.04529 11.1174 5.04529 11.3898V13.9847C5.04529 14.2571 5.26615 14.4773 5.53948 14.4773H8.22024C8.45215 14.4773 8.63988 14.2902 8.63988 14.059V11.3128C8.63988 11.0816 8.45215 10.8945 8.22024 10.8945V10.8973Z" fill="#0E0E0F"/>
<path d="M3.17501 10.8979H0.419706C0.187943 10.8979 6.10352e-05 11.0852 6.10352e-05 11.3162V14.0624C6.10352e-05 14.2934 0.187943 14.4807 0.419706 14.4807H3.17501C3.40677 14.4807 3.59465 14.2934 3.59465 14.0624V11.3162C3.59465 11.0852 3.40677 10.8979 3.17501 10.8979Z" fill="#0E0E0F"/>
<path d="M3.10004 15.8916H0.493821C0.220889 15.8916 -0.000366211 16.1121 -0.000366211 16.3842V18.9818C-0.000366211 19.2538 0.220889 19.4743 0.493821 19.4743H3.10004C3.37297 19.4743 3.59423 19.2538 3.59423 18.9818V16.3842C3.59423 16.1121 3.37297 15.8916 3.10004 15.8916Z" fill="#0E0E0F"/>
<path d="M8.22024 15.8924H5.53948C5.26615 15.8924 5.04529 16.1125 5.04529 16.385V18.9798C5.04529 19.2522 5.26615 19.4724 5.53948 19.4724H8.22024C8.45215 19.4724 8.63988 19.2853 8.63988 19.0541V16.3079C8.63988 16.0768 8.45215 15.8896 8.22024 15.8896V15.8924Z" fill="#0E0E0F"/>
<path d="M13.2583 15.8911H10.503C10.2713 15.8911 10.0834 16.0784 10.0834 16.3094V19.0556C10.0834 19.2866 10.2713 19.4739 10.503 19.4739H13.2583C13.4901 19.4739 13.678 19.2866 13.678 19.0556V16.3094C13.678 16.0784 13.4901 15.8911 13.2583 15.8911Z" fill="#0E0E0F"/>
<path d="M18.3036 15.8916H15.5483C15.3165 15.8916 15.1287 16.0789 15.1287 16.3099V19.0561C15.1287 19.2871 15.3165 19.4743 15.5483 19.4743H18.3036C18.5354 19.4743 18.7233 19.2871 18.7233 19.0561V16.3099C18.7233 16.0789 18.5354 15.8916 18.3036 15.8916Z" fill="#0E0E0F"/>
<path d="M23.3632 15.8911H20.6079C20.3761 15.8911 20.1882 16.0784 20.1882 16.3094V19.0556C20.1882 19.2866 20.3761 19.4739 20.6079 19.4739H23.3632C23.5949 19.4739 23.7828 19.2866 23.7828 19.0556V16.3094C23.7828 16.0784 23.5949 15.8911 23.3632 15.8911Z" fill="#0E0E0F"/>
<path d="M28.4049 15.8911H25.6496C25.4178 15.8911 25.2299 16.0784 25.2299 16.3094V19.0556C25.2299 19.2866 25.4178 19.4739 25.6496 19.4739H28.4049C28.6366 19.4739 28.8245 19.2866 28.8245 19.0556V16.3094C28.8245 16.0784 28.6366 15.8911 28.4049 15.8911Z" fill="#0E0E0F"/>
<path d="M28.4049 20.8862H25.6496C25.4178 20.8862 25.2299 21.0735 25.2299 21.3045V24.0507C25.2299 24.2817 25.4178 24.469 25.6496 24.469H28.4049C28.6366 24.469 28.8245 24.2817 28.8245 24.0507V21.3045C28.8245 21.0735 28.6366 20.8862 28.4049 20.8862Z" fill="#0E0E0F"/>
<path d="M23.3632 20.8862H20.6079C20.3761 20.8862 20.1882 21.0735 20.1882 21.3045V24.0507C20.1882 24.2817 20.3761 24.469 20.6079 24.469H23.3632C23.5949 24.469 23.7828 24.2817 23.7828 24.0507V21.3045C23.7828 21.0735 23.5949 20.8862 23.3632 20.8862Z" fill="#0E0E0F"/>
<path d="M18.3036 20.8862H15.5483C15.3165 20.8862 15.1287 21.0735 15.1287 21.3045V24.0507C15.1287 24.2817 15.3165 24.469 15.5483 24.469H18.3036C18.5354 24.469 18.7233 24.2817 18.7233 24.0507V21.3045C18.7233 21.0735 18.5354 20.8862 18.3036 20.8862Z" fill="#0E0E0F"/>
<path d="M13.2583 20.8862H10.503C10.2713 20.8862 10.0834 21.0735 10.0834 21.3045V24.0507C10.0834 24.2817 10.2713 24.469 10.503 24.469H13.2583C13.4901 24.469 13.678 24.2817 13.678 24.0507V21.3045C13.678 21.0735 13.4901 20.8862 13.2583 20.8862Z" fill="#0E0E0F"/>
<path d="M8.22024 20.8856H5.53948C5.26615 20.8856 5.04529 21.1057 5.04529 21.3781V23.973C5.04529 24.2454 5.26615 24.4656 5.53948 24.4656H8.22024C8.45215 24.4656 8.63988 24.2784 8.63988 24.0473V21.3011C8.63988 21.0699 8.45215 20.8828 8.22024 20.8828V20.8856Z" fill="#0E0E0F"/>
<path d="M3.17501 20.8862H0.419706C0.187943 20.8862 6.10352e-05 21.0735 6.10352e-05 21.3045V24.0507C6.10352e-05 24.2817 0.187943 24.469 0.419706 24.469H3.17501C3.40677 24.469 3.59465 24.2817 3.59465 24.0507V21.3045C3.59465 21.0735 3.40677 20.8862 3.17501 20.8862Z" fill="#0E0E0F"/>
<path d="M3.17458 25.8799H0.419279C0.187515 25.8799 -0.000366211 26.0671 -0.000366211 26.2981V29.0444C-0.000366211 29.2754 0.187515 29.4626 0.419279 29.4626H3.17458C3.40635 29.4626 3.59423 29.2754 3.59423 29.0444V26.2981C3.59423 26.0671 3.40635 25.8799 3.17458 25.8799Z" fill="#0E0E0F"/>
<path d="M8.1451 25.8699H5.46434C5.19102 25.8699 4.97015 26.0901 4.97015 26.3625V28.9574C4.97015 29.2298 5.19102 29.4499 5.46434 29.4499H8.1451C8.37701 29.4499 8.56475 29.2628 8.56475 29.0317V26.2854C8.56475 26.0543 8.37701 25.8672 8.1451 25.8672V25.8699Z" fill="#0E0E0F"/>
<path d="M13.2583 25.8799H10.503C10.2713 25.8799 10.0834 26.0671 10.0834 26.2981V29.0444C10.0834 29.2754 10.2713 29.4626 10.503 29.4626H13.2583C13.4901 29.4626 13.678 29.2754 13.678 29.0444V26.2981C13.678 26.0671 13.4901 25.8799 13.2583 25.8799Z" fill="#0E0E0F"/>
<path d="M18.3036 25.8799H15.5483C15.3165 25.8799 15.1287 26.0671 15.1287 26.2981V29.0444C15.1287 29.2754 15.3165 29.4626 15.5483 29.4626H18.3036C18.5354 29.4626 18.7233 29.2754 18.7233 29.0444V26.2981C18.7233 26.0671 18.5354 25.8799 18.3036 25.8799Z" fill="#0E0E0F"/>
<path d="M23.3632 25.8799H20.6079C20.3761 25.8799 20.1882 26.0671 20.1882 26.2981V29.0444C20.1882 29.2754 20.3761 29.4626 20.6079 29.4626H23.3632C23.5949 29.4626 23.7828 29.2754 23.7828 29.0444V26.2981C23.7828 26.0671 23.5949 25.8799 23.3632 25.8799Z" fill="#0E0E0F"/>
<path d="M18.3036 30.8711H15.5483C15.3165 30.8711 15.1287 31.0584 15.1287 31.2894V34.0356C15.1287 34.2666 15.3165 34.4538 15.5483 34.4538H18.3036C18.5354 34.4538 18.7233 34.2666 18.7233 34.0356V31.2894C18.7233 31.0584 18.5354 30.8711 18.3036 30.8711Z" fill="#0E0E0F"/>
<path d="M13.2583 30.8711H10.503C10.2713 30.8711 10.0834 31.0584 10.0834 31.2894V34.0356C10.0834 34.2666 10.2713 34.4538 10.503 34.4538H13.2583C13.4901 34.4538 13.678 34.2666 13.678 34.0356V31.2894C13.678 31.0584 13.4901 30.8711 13.2583 30.8711Z" fill="#0E0E0F"/>
<path d="M8.22024 30.8724H5.53948C5.26615 30.8724 5.04529 31.0925 5.04529 31.3649V33.9598C5.04529 34.2322 5.26615 34.4524 5.53948 34.4524H8.22024C8.45215 34.4524 8.63988 34.2653 8.63988 34.0341V31.2879C8.63988 31.0567 8.45215 30.8696 8.22024 30.8696V30.8724Z" fill="#0E0E0F"/>
<path d="M3.17501 30.8711H0.419706C0.187943 30.8711 6.10352e-05 31.0584 6.10352e-05 31.2894V34.0356C6.10352e-05 34.2666 0.187943 34.4538 0.419706 34.4538H3.17501C3.40677 34.4538 3.59465 34.2666 3.59465 34.0356V31.2894C3.59465 31.0584 3.40677 30.8711 3.17501 30.8711Z" fill="#0E0E0F"/>
</g>
</g>
<defs>
<filter id="filter0_d_1_358" x="-30" y="-30" width="243.247" height="104" filterUnits="userSpaceOnUse" color-interpolation-filters="sRGB">
<feFlood flood-opacity="0" result="BackgroundImageFix"/>
<feColorMatrix in="SourceAlpha" type="matrix" values="0 0 0 0 0 0 0 0 0 0 0 0 0 0 0 0 0 0 127 0" result="hardAlpha"/>
<feOffset/>
<feGaussianBlur stdDeviation="15"/>
<feComposite in2="hardAlpha" operator="out"/>
<feColorMatrix type="matrix" values="0 0 0 0 0.886275 0 0 0 0 1 0 0 0 0 0.435294 0 0 0 1 0"/>
<feBlend mode="normal" in2="BackgroundImageFix" result="effect1_dropShadow_1_358"/>
<feBlend mode="normal" in="SourceGraphic" in2="effect1_dropShadow_1_358" result="shape"/>
</filter>
<clipPath id="clip0_1_358">
<rect width="183.247" height="44" fill="white"/>
</clipPath>
</defs>
</svg>
