<svg width="10" height="13" viewBox="0 0 10 13" fill="none" xmlns="http://www.w3.org/2000/svg">
<path d="M6.42866 0.0614977C6.42866 0.0614977 5.67883 2.97847 5.68563 3.68168C5.69243 4.3849 5.23117 5.703 7.12981 6.47399C7.12981 6.47399 9.33625 7.27517 9.94147 7.34301C9.94147 7.34301 7.62043 6.77734 6.98221 6.77787C6.344 6.77839 5.07683 6.61566 4.23369 9.23507L3.43147 12.1123C3.43147 12.1123 4.14172 9.06408 4.18175 8.44468C4.22179 7.82527 4.57309 6.35037 2.56933 5.62563L0.0724098 4.86075C0.0724098 4.86075 2.09214 5.42517 3.31178 5.40134C4.53141 5.3775 5.42396 3.98665 6.42866 0.0614977Z" fill="white" stroke="white" stroke-width="0.49391" stroke-miterlimit="10"/>
</svg>
