<svg width="22" height="21" viewBox="0 0 22 21" fill="none" xmlns="http://www.w3.org/2000/svg">
<g clip-path="url(#clip0_1_2260)">
<path d="M4.99494 20.625V6.70934H0.278281L0.278281 20.625H4.99494ZM2.63722 4.80825C4.282 4.80825 5.3058 3.7397 5.3058 2.40435C5.27516 1.0389 4.28206 0 2.66843 0C1.05505 0 0 1.03892 0 2.40435C0 3.73976 1.02355 4.80825 2.60643 4.80825H2.63707H2.63722ZM7.6056 20.625H12.3223V12.8538C12.3223 12.4379 12.3529 12.0224 12.4775 11.7251C12.8184 10.8942 13.5945 10.0335 14.8974 10.0335C16.6042 10.0335 17.287 11.3096 17.287 13.1803V20.6249H22.0034V12.6458C22.0034 8.37144 19.6764 6.38264 16.5731 6.38264C14.0287 6.38264 12.9115 7.77734 12.2909 8.72726H12.3224V6.70905H7.6057C7.6676 8.01482 7.6057 20.6247 7.6057 20.6247L7.6056 20.625Z" fill="white"/>
</g>
<defs>
<clipPath id="clip0_1_2260">
<rect width="21.3531" height="20.0185" fill="white" transform="scale(1.03029)"/>
</clipPath>
</defs>
</svg>
