<svg width="25" height="19" viewBox="0 0 25 19" fill="none" xmlns="http://www.w3.org/2000/svg">
<g clip-path="url(#clip0_1_2266)">
<path d="M24.429 2.31443C23.5142 2.7005 22.5439 2.95392 21.5503 3.06626C22.5852 2.47534 23.3798 1.53959 23.754 0.424664C22.7702 0.980844 21.6939 1.37271 20.5715 1.58332C19.6572 0.655396 18.3547 0.0754756 16.9131 0.0754756C14.1452 0.0754756 11.901 2.21334 11.901 4.85011C11.901 5.22439 11.9454 5.58876 12.0308 5.93832C7.86547 5.73913 4.17248 3.83828 1.70046 0.949493C1.26914 1.65469 1.02198 2.47498 1.02198 3.3499C1.02198 5.00648 1.90687 6.46787 3.25162 7.32416C2.45571 7.30041 1.67732 7.09562 0.981429 6.72688C0.981142 6.74688 0.981142 6.76688 0.981142 6.78697C0.981142 9.10038 2.70874 11.0302 5.00144 11.4689C4.26341 11.6601 3.48925 11.6881 2.73813 11.5507C3.37586 13.4476 5.22684 14.828 7.41992 14.8667C5.70464 16.1472 3.54352 16.9106 1.19547 16.9106C0.790863 16.9106 0.391982 16.888 -0.000124138 16.8439C2.21786 18.1986 4.85229 18.9891 7.68263 18.9891C16.9015 18.9891 21.9425 11.7134 21.9425 5.40385C21.9425 5.19676 21.9378 4.99084 21.928 4.78611C22.9092 4.11036 23.7561 3.27337 24.429 2.31443Z" fill="white"/>
</g>
<defs>
<clipPath id="clip0_1_2266">
<rect width="24.0223" height="18.684" fill="white" transform="scale(1.01693)"/>
</clipPath>
</defs>
</svg>
