<svg width="32" height="32" viewBox="0 0 32 32" fill="none" xmlns="http://www.w3.org/2000/svg">
<path d="M31.5213 19.8705C29.3841 28.442 20.7016 33.6585 12.1281 31.521C3.55818 29.3841 -1.65886 20.702 0.479231 12.1312C2.61545 3.55871 11.298 -1.65814 19.8688 0.478775C28.4417 2.61569 33.6584 11.2987 31.521 19.8706L31.5212 19.8705H31.5213Z" fill="#D8D8DD"/>
<g clip-path="url(#clip0_1_666)">
<path d="M16.4978 4.83105L16.345 5.33225V19.8759L16.4978 20.0231L23.494 16.0326L16.4978 4.83105Z" fill="#343434"/>
<path d="M16.4981 4.83105L9.50189 16.0326L16.4981 20.0231V12.9641V4.83105Z" fill="#8C8C8C"/>
<path d="M16.4979 21.3012L16.4117 21.4025V26.5833L16.4979 26.826L23.4982 17.3127L16.4979 21.3012Z" fill="#3C3C3B"/>
<path d="M16.4979 26.826V21.3012L9.50177 17.3127L16.4979 26.826Z" fill="#8C8C8C"/>
<path d="M16.4979 20.0231L23.4939 16.0326L16.4979 12.9641V20.0231Z" fill="#141414"/>
<path d="M9.50183 16.0326L16.4979 20.0231V12.9641L9.50183 16.0326Z" fill="#393939"/>
</g>
<defs>
<clipPath id="clip0_1_666">
<rect width="14" height="22" fill="white" transform="translate(9.5 4.83105)"/>
</clipPath>
</defs>
</svg>
