<svg width="7" height="9" viewBox="0 0 7 9" fill="none" xmlns="http://www.w3.org/2000/svg">
<path d="M4.94945 0.0495541C4.94945 0.0495541 4.20606 2.08669 4.16124 2.59105C4.11643 3.09542 3.69278 4.00729 4.99875 4.6939C4.99875 4.6939 6.52314 5.42387 6.95201 5.51525C6.95201 5.51525 5.32886 4.94592 4.87152 4.9012C4.41418 4.85648 3.5177 4.65034 2.72847 6.46768L1.95035 8.47266C1.95035 8.47266 2.67465 6.33866 2.74711 5.89766C2.81956 5.45666 3.1755 4.42466 1.79094 3.76377L0.0558407 3.03928C0.0558407 3.03928 1.46317 3.58642 2.33877 3.65552C3.21438 3.72462 3.95219 2.79109 4.94945 0.0495541Z" fill="#33B568" stroke="#33B568" stroke-width="0.275772" stroke-miterlimit="10"/>
</svg>
