<svg width="32" height="32" viewBox="0 0 32 32" fill="none" xmlns="http://www.w3.org/2000/svg">
<path d="M31.5213 19.8705C29.3841 28.442 20.7016 33.6585 12.1281 31.521C3.55818 29.3841 -1.65886 20.702 0.479231 12.1312C2.61545 3.55871 11.298 -1.65814 19.8688 0.478775C28.4417 2.61569 33.6584 11.2987 31.521 19.8706L31.5212 19.8705H31.5213Z" fill="#D8D8DD"/>
<path d="M12.1121 18.5875C12.1905 18.511 12.2984 18.4663 12.4128 18.4663H22.7869C22.9765 18.4663 23.0712 18.6896 22.9372 18.8203L20.8879 20.82C20.8095 20.8966 20.7016 20.9412 20.5872 20.9412H10.2131C10.0235 20.9412 9.92875 20.718 10.0628 20.5872L12.1121 18.5875Z" fill="#0E0E0F"/>
<path d="M12.1121 11.1212C12.1938 11.0447 12.3017 11 12.4128 11H22.7869C22.9765 11 23.0712 11.2233 22.9372 11.354L20.8879 13.3537C20.8095 13.4303 20.7016 13.4749 20.5872 13.4749H10.2131C10.0235 13.4749 9.92875 13.2517 10.0628 13.1209L12.1121 11.1212Z" fill="#0E0E0F"/>
<path d="M20.8879 14.8304C20.8095 14.7539 20.7016 14.7092 20.5872 14.7092H10.2131C10.0235 14.7092 9.92875 14.9325 10.0628 15.0632L12.1121 17.063C12.1905 17.1395 12.2984 17.1841 12.4128 17.1841H22.7869C22.9765 17.1841 23.0712 16.9609 22.9372 16.8301L20.8879 14.8304Z" fill="#0E0E0F"/>
</svg>
