<svg width="9" height="11" viewBox="0 0 9 11" fill="none" xmlns="http://www.w3.org/2000/svg">
<path d="M6.35372 0.0914276C6.35372 0.0914276 5.40413 2.69362 5.34688 3.33787C5.28963 3.98213 4.74847 5.14694 6.41669 6.02399C6.41669 6.02399 8.3639 6.95644 8.91173 7.07317C8.91173 7.07317 6.83837 6.34592 6.25417 6.2888C5.66997 6.23168 4.52483 5.96836 3.51669 8.28978L2.52274 10.8509C2.52274 10.8509 3.44794 8.12497 3.5405 7.56165C3.63305 6.99832 4.08771 5.68008 2.31911 4.83587L0.102743 3.91042C0.102743 3.91042 1.90043 4.60933 3.0189 4.69759C4.13737 4.78586 5.07984 3.59339 6.35372 0.0914276Z" fill="#33B568" stroke="#33B568" stroke-width="0.49391" stroke-miterlimit="10"/>
</svg>
