<svg width="285" height="240" viewBox="0 0 285 240" fill="none" xmlns="http://www.w3.org/2000/svg">
<g opacity="0.1" clip-path="url(#clip0_1_218)">
<path d="M268.29 0H282.788C284.01 0 285 0.929364 285 2.07579V15.682C285 16.8284 284.01 17.7578 282.788 17.7578H268.29C267.068 17.7578 266.078 16.8284 266.078 15.682V2.07579C266.078 0.929364 267.068 0 268.29 0Z" fill="#818181"/>
<path d="M256.245 0H242.144C240.701 0 239.535 1.09466 239.535 2.44879V15.3171C239.535 16.6631 240.701 17.7659 242.144 17.7659H256.245C257.464 17.7659 258.457 16.8334 258.457 15.6901V2.07579C258.457 0.932485 257.464 0 256.245 0Z" fill="#818181"/>
<path d="M188.67 0H203.168C204.39 0 205.38 0.929364 205.38 2.07579V15.682C205.38 16.8284 204.39 17.7578 203.168 17.7578H188.67C187.448 17.7578 186.458 16.8284 186.458 15.682V2.07579C186.458 0.929364 187.448 0 188.67 0Z" fill="#818181"/>
<path d="M176.565 42.4965H162.066C160.845 42.4965 159.854 41.5672 159.854 40.4207V26.8146C159.854 25.6681 160.845 24.7388 162.066 24.7388L176.565 24.7388C177.786 24.7388 178.777 25.6681 178.777 26.8146V40.4207C178.777 41.5672 177.786 42.4965 176.565 42.4965Z" fill="#818181"/>
<path d="M135.514 0H150.013C151.234 0 152.224 0.929364 152.224 2.07579V15.682C152.224 16.8284 151.234 17.7578 150.013 17.7578H135.514C134.293 17.7578 133.302 16.8284 133.302 15.682V2.07579C133.302 0.929364 134.293 0 135.514 0Z" fill="#818181"/>
<path d="M150.013 42.4965H135.515C134.293 42.4965 133.303 41.5672 133.303 40.4207V26.8146C133.303 25.6681 134.293 24.7388 135.515 24.7388L150.013 24.7388C151.235 24.7388 152.225 25.6681 152.225 26.8146V40.4207C152.225 41.5672 151.235 42.4965 150.013 42.4965Z" fill="#818181"/>
<path d="M229.72 42.4965H215.221C214 42.4965 213.009 41.5672 213.009 40.4207V26.8146C213.009 25.6681 214 24.7388 215.221 24.7388L229.72 24.7388C230.941 24.7388 231.931 25.6681 231.931 26.8146V40.4207C231.931 41.5672 230.941 42.4965 229.72 42.4965Z" fill="#818181"/>
<path d="M241.738 42.4965H255.839C257.273 42.4965 258.449 41.4019 258.449 40.0477V27.1794C258.449 25.8334 257.282 24.7307 255.839 24.7307L241.738 24.7307C240.52 24.7307 239.526 25.6631 239.526 26.8065V40.4126C239.526 41.5559 240.52 42.4884 241.738 42.4884V42.4965Z" fill="#818181"/>
<path d="M215.212 49.487H229.711C230.933 49.487 231.923 50.4164 231.923 51.5628V65.169C231.923 66.3154 230.933 67.2448 229.711 67.2448H215.212C213.991 67.2448 213.001 66.3154 213.001 65.169V51.5628C213.001 50.4164 213.991 49.487 215.212 49.487Z" fill="#818181"/>
<path d="M188.67 49.487H203.168C204.39 49.487 205.38 50.4164 205.38 51.5628V65.169C205.38 66.3154 204.39 67.2448 203.168 67.2448H188.67C187.448 67.2448 186.458 66.3154 186.458 65.169V51.5628C186.458 50.4164 187.448 49.487 188.67 49.487Z" fill="#818181"/>
<path d="M176.565 91.9835H162.066C160.845 91.9835 159.854 91.0542 159.854 89.9078V76.3016C159.854 75.1552 160.845 74.2258 162.066 74.2258H176.565C177.786 74.2258 178.777 75.1552 178.777 76.3016V89.9078C178.777 91.0542 177.786 91.9835 176.565 91.9835Z" fill="#818181"/>
<path d="M203.168 91.9835H188.669C187.448 91.9835 186.457 91.0542 186.457 89.9078V76.3016C186.457 75.1552 187.448 74.2258 188.669 74.2258H203.168C204.389 74.2258 205.38 75.1552 205.38 76.3016V89.9078C205.38 91.0542 204.389 91.9835 203.168 91.9835Z" fill="#818181"/>
<path d="M241.738 91.9835H255.839C257.273 91.9835 258.449 90.8889 258.449 89.5348V76.6665C258.449 75.3205 257.282 74.2177 255.839 74.2177L241.738 74.2177C240.52 74.2177 239.526 75.1502 239.526 76.2935V89.8996C239.526 91.043 240.52 91.9754 241.738 91.9754V91.9835Z" fill="#818181"/>
<path d="M282.788 91.9835H268.29C267.068 91.9835 266.078 91.0542 266.078 89.9078V76.3016C266.078 75.1552 267.068 74.2258 268.29 74.2258H282.788C284.01 74.2258 285 75.1552 285 76.3016V89.9078C285 91.0542 284.01 91.9835 282.788 91.9835Z" fill="#818181"/>
<path d="M255.848 98.9728H241.747C240.529 98.9728 239.535 99.9053 239.535 101.049V114.655C239.535 115.798 240.529 116.731 241.747 116.731H255.848C257.282 116.731 258.457 115.636 258.457 114.282V101.414C258.457 100.068 257.291 98.9647 255.848 98.9647V98.9728Z" fill="#818181"/>
<path d="M215.212 98.9731H229.711C230.933 98.9731 231.923 99.9024 231.923 101.049V114.655C231.923 115.801 230.933 116.731 229.711 116.731H215.212C213.991 116.731 213.001 115.801 213.001 114.655V101.049C213.001 99.9024 213.991 98.9731 215.212 98.9731Z" fill="#818181"/>
<path d="M188.67 98.9731H203.168C204.39 98.9731 205.38 99.9024 205.38 101.049V114.655C205.38 115.801 204.39 116.731 203.168 116.731H188.67C187.448 116.731 186.458 115.801 186.458 114.655V101.049C186.458 99.9024 187.448 98.9731 188.67 98.9731Z" fill="#818181"/>
<path d="M162.057 98.9731H176.555C177.777 98.9731 178.767 99.9024 178.767 101.049V114.655C178.767 115.801 177.777 116.731 176.555 116.731H162.057C160.835 116.731 159.845 115.801 159.845 114.655V101.049C159.845 99.9024 160.835 98.9731 162.057 98.9731Z" fill="#818181"/>
<path d="M135.514 98.9731H150.013C151.234 98.9731 152.224 99.9024 152.224 101.049V114.655C152.224 115.801 151.234 116.731 150.013 116.731H135.514C134.293 116.731 133.302 115.801 133.302 114.655V101.049C133.302 99.9024 134.293 98.9731 135.514 98.9731Z" fill="#818181"/>
<path d="M203.168 141.478H188.669C187.448 141.478 186.457 140.549 186.457 139.402V125.796C186.457 124.65 187.448 123.72 188.669 123.72H203.168C204.389 123.72 205.38 124.65 205.38 125.796V139.402C205.38 140.549 204.389 141.478 203.168 141.478Z" fill="#818181"/>
<path d="M229.72 141.478H215.221C214 141.478 213.009 140.549 213.009 139.402V125.796C213.009 124.65 214 123.72 215.221 123.72H229.72C230.941 123.72 231.931 124.65 231.931 125.796V139.402C231.931 140.549 230.941 141.478 229.72 141.478Z" fill="#818181"/>
<path d="M150.013 141.478H135.515C134.293 141.478 133.303 140.549 133.303 139.402V125.796C133.303 124.65 134.293 123.72 135.515 123.72H150.013C151.235 123.72 152.225 124.65 152.225 125.796V139.402C152.225 140.549 151.235 141.478 150.013 141.478Z" fill="#818181"/>
<path d="M28.8155 0H43.314C44.5356 0 45.5259 0.929364 45.5259 2.07579V15.682C45.5259 16.8284 44.5356 17.7578 43.314 17.7578H28.8155C27.5939 17.7578 26.6036 16.8284 26.6036 15.682V2.07579C26.6036 0.929364 27.5939 0 28.8155 0Z" fill="#818181"/>
<path d="M2.20321 0H16.7016C17.9232 0 18.9135 0.929364 18.9135 2.07579V15.682C18.9135 16.8284 17.9232 17.7578 16.7016 17.7578H2.20321C0.981609 17.7578 -0.0086969 16.8284 -0.0086969 15.682V2.07579C-0.0086969 0.929364 0.981609 0 2.20321 0Z" fill="#818181"/>
<path d="M16.7103 42.4965H2.21191C0.990306 42.4965 0 41.5672 0 40.4207L0 26.8146C0 25.6681 0.990306 24.7388 2.21191 24.7388L16.7103 24.7388C17.9319 24.7388 18.9222 25.6681 18.9222 26.8146L18.9222 40.4207C18.9222 41.5672 17.9319 42.4965 16.7103 42.4965Z" fill="#818181"/>
<path d="M43.3141 42.4965H28.8157C27.5941 42.4965 26.6038 41.5672 26.6038 40.4207L26.6038 26.8146C26.6038 25.6681 27.5941 24.7388 28.8157 24.7388L43.3141 24.7388C44.5357 24.7388 45.526 25.6681 45.526 26.8146V40.4207C45.526 41.5672 44.5357 42.4965 43.3141 42.4965Z" fill="#818181"/>
<path d="M69.8569 42.4965H55.3585C54.1369 42.4965 53.1466 41.5672 53.1466 40.4207V26.8146C53.1466 25.6681 54.1369 24.7388 55.3585 24.7388L69.8569 24.7388C71.0785 24.7388 72.0688 25.6681 72.0688 26.8146V40.4207C72.0688 41.5672 71.0785 42.4965 69.8569 42.4965Z" fill="#818181"/>
<path d="M81.8834 42.4965H95.9843C97.4186 42.4965 98.5937 41.4019 98.5937 40.0477L98.5937 27.1794C98.5937 25.8334 97.4273 24.7307 95.9843 24.7307L81.8834 24.7307C80.6651 24.7307 79.6715 25.6631 79.6715 26.8065V40.4126C79.6715 41.5559 80.6651 42.4884 81.8834 42.4884V42.4965Z" fill="#818181"/>
<path d="M122.934 42.4965H108.436C107.214 42.4965 106.224 41.5672 106.224 40.4207V26.8146C106.224 25.6681 107.214 24.7388 108.436 24.7388L122.934 24.7388C124.156 24.7388 125.146 25.6681 125.146 26.8146L125.146 40.4207C125.146 41.5672 124.156 42.4965 122.934 42.4965Z" fill="#818181"/>
<path d="M108.834 49.487H122.537C123.979 49.487 125.147 50.5834 125.147 51.9358V64.796C125.147 66.1484 123.979 67.2448 122.537 67.2448H108.834C107.393 67.2448 106.225 66.1484 106.225 64.796V51.9358C106.225 50.5834 107.393 49.487 108.834 49.487Z" fill="#818181"/>
<path d="M55.3671 49.4865H69.8655C71.0871 49.4865 72.0774 50.4159 72.0774 51.5623V65.1685C72.0774 66.3149 71.0871 67.2443 69.8655 67.2443H55.3671C54.1455 67.2443 53.1552 66.3149 53.1552 65.1685V51.5623C53.1552 50.4159 54.1455 49.4865 55.3671 49.4865Z" fill="#818181"/>
<path d="M2.20321 49.4865H16.7016C17.9232 49.4865 18.9135 50.4159 18.9135 51.5623V65.1685C18.9135 66.3149 17.9232 67.2443 16.7016 67.2443H2.20321C0.981609 67.2443 -0.0086969 66.3149 -0.0086969 65.1685V51.5623C-0.0086969 50.4159 0.981609 49.4865 2.20321 49.4865Z" fill="#818181"/>
<path d="M43.3141 91.9835H28.8157C27.5941 91.9835 26.6038 91.0542 26.6038 89.9078L26.6038 76.3016C26.6038 75.1552 27.5941 74.2258 28.8157 74.2258H43.3141C44.5357 74.2258 45.526 75.1552 45.526 76.3016V89.9078C45.526 91.0542 44.5357 91.9835 43.3141 91.9835Z" fill="#818181"/>
<path d="M69.8569 91.9835H55.3585C54.1369 91.9835 53.1466 91.0542 53.1466 89.9078V76.3016C53.1466 75.1552 54.1369 74.2258 55.3585 74.2258H69.8569C71.0785 74.2258 72.0688 75.1552 72.0688 76.3016V89.9078C72.0688 91.0542 71.0785 91.9835 69.8569 91.9835Z" fill="#818181"/>
<path d="M81.8834 91.9835H95.9843C97.4186 91.9835 98.5937 90.8889 98.5937 89.5348L98.5937 76.6665C98.5937 75.3205 97.4273 74.2177 95.9843 74.2177L81.8834 74.2177C80.6651 74.2177 79.6715 75.1502 79.6715 76.2935V89.8996C79.6715 91.043 80.6651 91.9754 81.8834 91.9754V91.9835Z" fill="#818181"/>
<path d="M122.934 91.9835H108.436C107.214 91.9835 106.224 91.0542 106.224 89.9078V76.3016C106.224 75.1552 107.214 74.2258 108.436 74.2258H122.934C124.156 74.2258 125.146 75.1552 125.146 76.3016L125.146 89.9078C125.146 91.0542 124.156 91.9835 122.934 91.9835Z" fill="#818181"/>
<path d="M108.437 98.9731H122.935C124.157 98.9731 125.147 99.9024 125.147 101.049V114.655C125.147 115.801 124.157 116.731 122.935 116.731H108.437C107.215 116.731 106.225 115.801 106.225 114.655V101.049C106.225 99.9024 107.215 98.9731 108.437 98.9731Z" fill="#818181"/>
<path d="M55.3671 98.9731H69.8655C71.0871 98.9731 72.0774 99.9024 72.0774 101.049V114.655C72.0774 115.801 71.0871 116.731 69.8655 116.731H55.3671C54.1455 116.731 53.1552 115.801 53.1552 114.655V101.049C53.1552 99.9024 54.1455 98.9731 55.3671 98.9731Z" fill="#818181"/>
<path d="M28.8155 98.9731H43.314C44.5356 98.9731 45.5259 99.9024 45.5259 101.049V114.655C45.5259 115.801 44.5356 116.731 43.314 116.731H28.8155C27.5939 116.731 26.6036 115.801 26.6036 114.655V101.049C26.6036 99.9024 27.5939 98.9731 28.8155 98.9731Z" fill="#818181"/>
<path d="M2.20321 98.9731H16.7016C17.9232 98.9731 18.9135 99.9024 18.9135 101.049V114.655C18.9135 115.801 17.9232 116.731 16.7016 116.731H2.20321C0.981609 116.731 -0.0086969 115.801 -0.0086969 114.655V101.049C-0.0086969 99.9024 0.981609 98.9731 2.20321 98.9731Z" fill="#818181"/>
<path d="M43.3141 141.478H28.8157C27.5941 141.478 26.6038 140.549 26.6038 139.402L26.6038 125.796C26.6038 124.65 27.5941 123.72 28.8157 123.72H43.3141C44.5357 123.72 45.526 124.65 45.526 125.796V139.402C45.526 140.549 44.5357 141.478 43.3141 141.478Z" fill="#818181"/>
<path d="M69.8569 141.478H55.3585C54.1369 141.478 53.1466 140.549 53.1466 139.402V125.796C53.1466 124.65 54.1369 123.72 55.3585 123.72H69.8569C71.0785 123.72 72.0688 124.65 72.0688 125.796V139.402C72.0688 140.549 71.0785 141.478 69.8569 141.478Z" fill="#818181"/>
<path d="M81.8834 141.478H95.9843C97.4186 141.478 98.5937 140.383 98.5937 139.029L98.5937 126.161C98.5937 124.815 97.4273 123.712 95.9843 123.712L81.8834 123.712C80.6651 123.712 79.6715 124.645 79.6715 125.788V139.394C79.6715 140.537 80.6651 141.47 81.8834 141.47V141.478Z" fill="#818181"/>
<path d="M122.934 141.478H108.436C107.214 141.478 106.224 140.549 106.224 139.402V125.796C106.224 124.65 107.214 123.72 108.436 123.72H122.934C124.156 123.72 125.146 124.65 125.146 125.796L125.146 139.402C125.146 140.549 124.156 141.478 122.934 141.478Z" fill="#818181"/>
<path d="M256.245 147.576H242.144C240.71 147.576 239.535 148.671 239.535 150.025V162.893C239.535 164.239 240.701 165.342 242.144 165.342H256.245C257.464 165.342 258.457 164.41 258.457 163.266V149.66C258.457 148.517 257.464 147.584 256.245 147.584V147.576Z" fill="#818181"/>
<path d="M215.212 147.576H229.711C230.933 147.576 231.923 148.506 231.923 149.652V163.258C231.923 164.405 230.933 165.334 229.711 165.334H215.212C213.991 165.334 213.001 164.405 213.001 163.258V149.652C213.001 148.506 213.991 147.576 215.212 147.576Z" fill="#818181"/>
<path d="M162.057 147.576H176.555C177.777 147.576 178.767 148.506 178.767 149.652V163.258C178.767 164.405 177.777 165.334 176.555 165.334H162.057C160.835 165.334 159.845 164.405 159.845 163.258V149.652C159.845 148.506 160.835 147.576 162.057 147.576Z" fill="#818181"/>
<path d="M176.565 190.073H162.066C160.845 190.073 159.854 189.143 159.854 187.997V174.391C159.854 173.244 160.845 172.315 162.066 172.315H176.565C177.786 172.315 178.777 173.244 178.777 174.391V187.997C178.777 189.143 177.786 190.073 176.565 190.073Z" fill="#818181"/>
<path d="M135.514 147.576H150.013C151.234 147.576 152.224 148.506 152.224 149.652V163.258C152.224 164.405 151.234 165.334 150.013 165.334H135.514C134.293 165.334 133.302 164.405 133.302 163.258V149.652C133.302 148.506 134.293 147.576 135.514 147.576Z" fill="#818181"/>
<path d="M150.013 190.073H135.515C134.293 190.073 133.303 189.143 133.303 187.997V174.391C133.303 173.244 134.293 172.315 135.515 172.315H150.013C151.235 172.315 152.225 173.244 152.225 174.391V187.997C152.225 189.143 151.235 190.073 150.013 190.073Z" fill="#818181"/>
<path d="M203.168 190.073H188.669C187.448 190.073 186.457 189.143 186.457 187.997V174.391C186.457 173.244 187.448 172.315 188.669 172.315H203.168C204.389 172.315 205.38 173.244 205.38 174.391V187.997C205.38 189.143 204.389 190.073 203.168 190.073Z" fill="#818181"/>
<path d="M229.72 190.073H215.221C214 190.073 213.009 189.143 213.009 187.997V174.391C213.009 173.244 214 172.315 215.221 172.315H229.72C230.941 172.315 231.931 173.244 231.931 174.391V187.997C231.931 189.143 230.941 190.073 229.72 190.073Z" fill="#818181"/>
<path d="M282.788 190.073H268.29C267.068 190.073 266.078 189.143 266.078 187.997V174.391C266.078 173.244 267.068 172.315 268.29 172.315H282.788C284.01 172.315 285 173.244 285 174.391V187.997C285 189.143 284.01 190.073 282.788 190.073Z" fill="#818181"/>
<path d="M162.057 197.063H176.555C177.777 197.063 178.767 197.992 178.767 199.138V212.745C178.767 213.891 177.777 214.82 176.555 214.82H162.057C160.835 214.82 159.845 213.891 159.845 212.745V199.138C159.845 197.992 160.835 197.063 162.057 197.063Z" fill="#818181"/>
<path d="M135.514 197.062H150.013C151.234 197.062 152.224 197.992 152.224 199.138V212.744C152.224 213.891 151.234 214.82 150.013 214.82H135.514C134.293 214.82 133.302 213.891 133.302 212.744V199.138C133.302 197.992 134.293 197.062 135.514 197.062Z" fill="#818181"/>
<path d="M108.437 147.576H122.935C124.157 147.576 125.147 148.506 125.147 149.652V163.258C125.147 164.405 124.157 165.334 122.935 165.334H108.437C107.215 165.334 106.225 164.405 106.225 163.258V149.652C106.225 148.506 107.215 147.576 108.437 147.576Z" fill="#818181"/>
<path d="M96.3911 147.576H82.2901C80.8558 147.576 79.6807 148.67 79.6807 150.024V162.893C79.6807 164.239 80.8472 165.342 82.2901 165.342H96.3911C97.6093 165.342 98.603 164.409 98.603 163.266V149.66C98.603 148.516 97.6093 147.584 96.3911 147.584V147.576Z" fill="#818181"/>
<path d="M96.3911 217.275H82.2901C80.8558 217.275 79.6807 218.37 79.6807 219.724V232.592C79.6807 233.938 80.8472 235.041 82.2901 235.041H96.3911C97.6093 235.041 98.603 234.108 98.603 232.965V219.359C98.603 218.216 97.6093 217.283 96.3911 217.283V217.275Z" fill="#818181"/>
<path d="M28.8155 147.576H43.314C44.5356 147.576 45.5259 148.506 45.5259 149.652V163.258C45.5259 164.405 44.5356 165.334 43.314 165.334H28.8155C27.5939 165.334 26.6036 164.405 26.6036 163.258V149.652C26.6036 148.506 27.5939 147.576 28.8155 147.576Z" fill="#818181"/>
<path d="M43.3141 190.073H28.8157C27.5941 190.073 26.6038 189.143 26.6038 187.997L26.6038 174.391C26.6038 173.244 27.5941 172.315 28.8157 172.315H43.3141C44.5357 172.315 45.526 173.244 45.526 174.391V187.997C45.526 189.143 44.5357 190.073 43.3141 190.073Z" fill="#818181"/>
<path d="M108.834 197.063H122.537C123.979 197.063 125.147 198.159 125.147 199.511V212.372C125.147 213.724 123.979 214.82 122.537 214.82H108.834C107.393 214.82 106.225 213.724 106.225 212.372V199.511C106.225 198.159 107.393 197.063 108.834 197.063Z" fill="#818181"/>
<path d="M28.8155 197.062H43.314C44.5356 197.062 45.5259 197.992 45.5259 199.138V212.744C45.5259 213.891 44.5356 214.82 43.314 214.82H28.8155C27.5939 214.82 26.6036 213.891 26.6036 212.744V199.138C26.6036 197.992 27.5939 197.062 28.8155 197.062Z" fill="#818181"/>
</g>
<defs>
<clipPath id="clip0_1_218">
<rect width="284.332" height="239.006" fill="white" transform="matrix(-1.00235 0 0 1.00235 285 0)"/>
</clipPath>
</defs>
</svg>
