<svg width="99" height="91" viewBox="0 0 99 91" fill="none" xmlns="http://www.w3.org/2000/svg">
<path d="M52.4356 15.1717L52.501 41.6168L61.7939 47.0097L61.7284 20.4997L52.4356 15.1717Z" fill="#14AB4C"/>
<path d="M61.728 20.4999L61.7934 47.0099L84.1749 40.5124L84.1094 14.0674L61.728 20.4999Z" fill="#0B7030"/>
<path d="M52.4355 15.1718L61.7284 20.4998L84.1098 14.0673L72.5265 26.8025L82.0157 32.2604L97.3293 13.0277L85.8768 6.40016L52.4355 15.1718Z" fill="#75EF81"/>
<path d="M72.5269 26.8023L72.5923 53.2473L82.0815 58.7053L82.0161 32.2603L72.5269 26.8023Z" fill="#14AB4C"/>
<path d="M82.0153 32.2601L82.0807 58.7051L97.3943 39.4724L97.3289 13.0274L82.0153 32.2601Z" fill="url(#paint0_linear_1_1644)"/>
<path d="M15.8522 31.7404L70.6279 46.6847L79.1354 41.8115L24.3598 26.8672L15.8522 31.7404Z" fill="#75EF81"/>
<path d="M15.8523 31.7403L15.9178 58.2503L70.6934 73.1297L70.628 46.6847L15.8523 31.7403Z" fill="#14AB4C"/>
<path d="M70.6283 46.6845L70.6937 73.1296L79.2013 68.2564L79.1359 41.8114L70.6283 46.6845Z" fill="url(#paint1_linear_1_1644)"/>
<path d="M16.7686 56.9509L16.8341 83.4609L28.4175 70.6608L28.352 44.2157L16.7686 56.9509Z" fill="#0B7030"/>
<path d="M18.8632 38.7578L3.48411 57.9255L14.9366 64.553L48.4433 55.8463L39.1505 50.4533L16.769 56.9509L28.3524 44.2157L18.8632 38.7578Z" fill="#75EF81"/>
<path d="M3.4841 57.9258L3.54954 84.4358L15.002 90.9983L14.9366 64.5533L3.4841 57.9258Z" fill="#14AB4C"/>
<path d="M14.9371 64.553L15.0025 90.998L48.5747 82.2913L48.4438 55.8463L14.9371 64.553Z" fill="url(#paint2_linear_1_1644)"/>
<path d="M93.8838 12.1893C93.8838 12.1893 91.7165 17.7008 91.5601 19.0747C91.4036 20.4487 90.1854 22.9096 93.7045 24.8724C93.7045 24.8724 97.8169 26.9684 98.9816 27.2468C98.9816 27.2468 94.5887 25.5828 93.3431 25.4298C92.0975 25.2768 89.6639 24.6534 87.3864 29.5616L85.1265 34.9829C85.1265 34.9829 87.2482 29.2057 87.4758 28.0066C87.7034 26.8075 88.7449 24.0141 85.0095 22.1162L80.3214 20.021C80.3214 20.021 84.1267 21.6099 86.5125 21.8577C88.8984 22.1055 90.9758 19.6067 93.8838 12.1893Z" fill="white" stroke="white" stroke-width="0.103171" stroke-miterlimit="10"/>
<path d="M23.023 63.5035C23.023 63.5035 19.311 64.1401 18.5121 64.5076C17.7132 64.8751 15.9732 65.0231 16.0647 67.5839C16.0647 67.5839 16.2793 70.5114 16.5115 71.2367C16.5115 71.2367 15.9696 68.2989 15.6425 67.5709C15.3154 66.843 14.8529 65.3138 11.4327 65.6918L7.73918 66.2483C7.73918 66.2483 11.5807 65.4993 12.308 65.2282C13.0352 64.957 14.8979 64.6033 14.6998 61.9462L14.2952 58.7058C14.2952 58.7058 14.6844 61.2991 15.3355 62.6786C15.9866 64.0581 18.0303 64.365 23.023 63.5035Z" fill="white" stroke="white" stroke-width="0.103171" stroke-miterlimit="10"/>
<ellipse cx="96.3796" cy="7.32708" rx="1.01513" ry="0.926926" fill="#14AB4C"/>
<ellipse cx="58.7794" cy="1.57785" rx="1.66466" ry="1.57785" fill="#0B7030"/>
<ellipse cx="53.0193" cy="74.1175" rx="0.58383" ry="0.582585" fill="#14AB4C"/>
<ellipse cx="0.918548" cy="39.38" rx="0.918548" ry="0.926926" fill="#14AB4C"/>
<ellipse cx="93.8539" cy="72.5568" rx="1.97206" ry="1.80072" fill="#D8FF35"/>
<ellipse cx="39.9552" cy="16.2428" rx="1.29998" ry="1.18703" fill="#D5FA39"/>
<defs>
<linearGradient id="paint0_linear_1_1644" x1="89.7707" y1="14.2701" x2="78.9227" y2="56.2399" gradientUnits="userSpaceOnUse">
<stop offset="0.4267" stop-color="#D4F938"/>
<stop offset="1" stop-color="#32D875" stop-opacity="0.96"/>
</linearGradient>
<linearGradient id="paint1_linear_1_1644" x1="74.9515" y1="42.6635" x2="66.0881" y2="70.544" gradientUnits="userSpaceOnUse">
<stop offset="0.4267" stop-color="#D4F938"/>
<stop offset="1" stop-color="#32D875" stop-opacity="0.96"/>
</linearGradient>
<linearGradient id="paint2_linear_1_1644" x1="31.9001" y1="56.8027" x2="28.7923" y2="90.976" gradientUnits="userSpaceOnUse">
<stop offset="0.4267" stop-color="#D4F938"/>
<stop offset="1" stop-color="#32D875" stop-opacity="0.96"/>
</linearGradient>
</defs>
</svg>
