<svg width="16" height="32" viewBox="0 0 16 32" fill="none" xmlns="http://www.w3.org/2000/svg">
<path d="M15.8256 29.1053C15.8649 28.7067 15.9059 28.2907 15.9452 27.8921C15.9675 27.6668 15.9724 27.4398 15.9774 27.2128C15.996 26.8471 15.9974 26.4798 15.9988 26.1124C16.0037 25.8854 15.9932 25.6394 15.9809 25.4107C15.9807 25.2356 15.9788 25.078 15.9787 24.9029C15.9872 24.8163 15.9612 24.7262 15.9525 24.6379C15.8878 23.704 15.8041 22.7857 15.6514 21.8607C15.6565 21.8087 15.6599 21.774 15.6306 21.7186C15.5872 21.4519 15.5265 21.1834 15.4659 20.9149C15.4191 20.6828 15.374 20.4334 15.3099 20.1995C15.2233 19.841 15.135 19.4998 15.0311 19.1396C14.9653 18.9231 14.9168 18.7083 14.8511 18.4918C14.7351 18.0779 14.5829 17.6779 14.4479 17.2796C14.3925 17.1341 14.3389 16.9713 14.2835 16.8259C14.076 16.2804 13.8667 15.7523 13.6229 15.2207C13.6229 15.2207 13.6229 15.2207 13.6246 15.2034C13.367 14.6355 13.0921 14.0659 12.7983 13.5119C12.7101 13.3457 12.6202 13.1969 12.5321 13.0307C12.3091 12.6412 12.0862 12.2517 11.8615 11.8796C11.8477 11.8432 11.8321 11.8242 11.8011 11.7861C11.7717 11.7307 11.7233 11.6909 11.6939 11.6356C11.1358 10.758 10.5397 9.91175 9.8712 9.09333C9.8712 9.09333 9.8401 9.05526 9.82455 9.03623C9.82455 9.03623 9.82456 9.03623 9.8073 9.03453C9.21652 8.31128 8.5878 7.61929 7.92287 6.94122C7.84342 6.86339 7.79849 6.78896 7.71905 6.71113C7.65515 6.65233 7.59126 6.59353 7.52736 6.53472C6.9868 6.00892 6.44624 5.48312 5.86604 5.00591L0 0C0.578489 0.494541 1.12076 1.00301 1.66132 1.52881C1.7874 1.66374 1.91349 1.79868 2.05683 1.93531C2.72176 2.61337 3.35047 3.30536 3.94125 4.02862C3.9568 4.04765 3.97064 4.08401 4.00344 4.10475C4.6547 4.92146 5.26803 5.76943 5.82618 6.64697C5.87111 6.7214 5.9333 6.79753 5.97653 6.88929C6.21673 7.28047 6.43968 7.66995 6.66263 8.05944C6.75249 8.2083 6.84236 8.35716 6.93051 8.52335C7.22436 9.07732 7.49924 9.64692 7.75687 10.2148C8.00066 10.7464 8.22548 11.2935 8.43305 11.839C8.4884 11.9844 8.54204 12.1472 8.58014 12.291C8.73235 12.691 8.86731 13.0893 8.98331 13.5032C9.04908 13.7197 9.09759 13.9345 9.16336 14.151C9.26723 14.5112 9.35555 14.8524 9.44216 15.211C9.50623 15.4448 9.53407 15.6925 9.59813 15.9263C9.65536 16.2295 9.72813 16.5516 9.78365 16.8721C9.93807 17.7798 10.0373 18.7171 10.0848 19.6493C10.0936 19.9127 10.1215 20.1604 10.1304 20.4238C10.1427 20.6525 10.136 20.8968 10.1483 21.1255C10.1469 21.4929 10.1455 21.8603 10.1286 22.2086C10.1064 22.4339 10.1187 22.6626 10.0965 22.8879C10.0571 23.2865 10.0178 23.6851 9.97853 24.0838C9.95973 24.2744 9.94093 24.465 9.92213 24.6557C9.86402 25.245 9.75244 25.8464 9.64085 26.4479L15.5069 31.4539C15.6185 30.8524 15.7128 30.2492 15.7882 29.6616C15.807 29.471 15.8258 29.2803 15.8446 29.0897L15.8256 29.1053Z" fill="#269B56"/>
</svg>
