<svg width="106" height="100" viewBox="0 0 106 100" fill="none" xmlns="http://www.w3.org/2000/svg">
<path d="M103.83 61.7742C103.96 61.2666 104.082 60.759 104.192 60.2475C104.208 60.185 104.22 60.1187 104.232 60.0562C104.33 59.5994 104.42 59.1386 104.507 58.674C104.531 58.5373 104.558 58.3968 104.582 58.2601C104.672 57.7369 104.759 57.2137 104.834 56.6826C106.109 47.6397 104.684 38.9637 101.162 31.3966L98.8867 26.512C99.7093 28.2808 100.414 30.1159 101.004 31.994C100.937 31.8496 100.878 31.7051 100.811 31.5606L98.5364 26.6721C98.623 26.8595 98.7017 27.0509 98.7883 27.2383C98.9182 27.5233 99.0481 27.8083 99.1701 28.0973C99.233 28.2456 99.2881 28.3979 99.3511 28.5463C99.4849 28.8782 99.6227 29.2062 99.7526 29.542C99.7959 29.6591 99.8391 29.7801 99.8824 29.8973C100.02 30.2682 100.158 30.6352 100.284 31.0101C100.374 31.2756 100.457 31.5411 100.54 31.8066C100.615 32.037 100.693 32.2674 100.764 32.4977C100.843 32.7515 100.91 33.0092 100.981 33.2669C101.051 33.5168 101.126 33.7628 101.189 34.0127C101.252 34.2431 101.303 34.4813 101.358 34.7116C101.425 34.9888 101.5 35.2661 101.563 35.5433C101.63 35.84 101.689 36.1446 101.748 36.4453C101.791 36.6639 101.842 36.8787 101.882 37.0973C101.961 37.5229 102.031 37.9524 102.098 38.3819C102.114 38.4795 102.134 38.5732 102.146 38.667C102.197 38.9988 102.236 39.3346 102.275 39.6665C102.299 39.8618 102.331 40.057 102.354 40.2561C102.393 40.5958 102.421 40.9394 102.453 41.283C102.468 41.4743 102.492 41.6657 102.508 41.8609C102.539 42.2982 102.563 42.7355 102.582 43.1728C102.586 43.2743 102.594 43.3759 102.602 43.4774C102.614 43.8093 102.618 44.1451 102.626 44.4809C102.626 44.6917 102.638 44.8986 102.641 45.1095C102.641 45.3321 102.634 45.5546 102.634 45.7772C102.634 46.1013 102.634 46.4253 102.622 46.7533C102.614 47.0423 102.594 47.3351 102.578 47.6279C102.567 47.8896 102.559 48.1512 102.539 48.4128C102.519 48.7251 102.484 49.0375 102.456 49.3538C102.386 50.1542 102.299 50.9546 102.189 51.7629C102.114 52.29 102.027 52.8132 101.937 53.3364C101.913 53.4731 101.89 53.6097 101.862 53.7464C101.776 54.215 101.685 54.6835 101.583 55.1442C101.571 55.1989 101.559 55.2536 101.547 55.3121C101.433 55.8236 101.311 56.3273 101.185 56.8349C101.154 56.9638 101.118 57.0926 101.083 57.2215C100.969 57.6549 100.851 58.0844 100.725 58.51C100.697 58.5998 100.674 58.6935 100.646 58.7833C100.603 58.9278 100.555 59.0683 100.512 59.2089C100.441 59.4354 100.37 59.6579 100.3 59.8844C100.248 60.0367 100.197 60.189 100.146 60.3412C100.075 60.5521 100.001 60.7629 99.9297 60.9738C99.8746 61.13 99.8155 61.2861 99.7604 61.4423C99.6857 61.6454 99.6109 61.8523 99.5322 62.0553C99.4731 62.2115 99.4102 62.3677 99.3511 62.5239C99.2724 62.7269 99.1898 62.9261 99.111 63.1252C99.0481 63.2814 98.9851 63.4336 98.9182 63.5859C98.8355 63.7851 98.7489 63.9842 98.6624 64.1833C98.5954 64.3356 98.5285 64.4879 98.4616 64.6363C98.3711 64.8354 98.2806 65.0345 98.1861 65.2337C98.1192 65.3781 98.0484 65.5265 97.9815 65.671C97.8831 65.874 97.7847 66.077 97.6823 66.2801C97.6154 66.4167 97.5446 66.5573 97.4777 66.694C97.4304 66.7877 97.3793 66.8814 97.3321 66.979C97.1116 67.4085 96.8834 67.8341 96.6512 68.2558C96.6 68.3456 96.5528 68.4354 96.5016 68.5252C96.2379 68.9938 95.9663 69.4545 95.6908 69.9152C95.6318 70.0129 95.5688 70.1144 95.5098 70.212C95.25 70.6337 94.9863 71.0476 94.7147 71.4614C94.6793 71.5161 94.64 71.5747 94.6045 71.6333C94.3054 72.0823 93.9984 72.5274 93.6875 72.9647C93.6127 73.0701 93.5379 73.1717 93.4632 73.2771C93.1719 73.6792 92.8767 74.0775 92.5737 74.4719C92.554 74.4992 92.5343 74.5265 92.5146 74.5539C92.1958 74.9678 91.8652 75.3777 91.5307 75.7838C91.448 75.8853 91.3654 75.9829 91.2827 76.0845C90.9561 76.4749 90.6255 76.8615 90.2909 77.2402C90.2752 77.2558 90.2634 77.2715 90.2516 77.2871C89.9013 77.6814 89.5431 78.0641 89.185 78.4467C89.0984 78.5404 89.0118 78.6302 88.9213 78.724C88.5395 79.1222 88.1538 79.5127 87.7602 79.8953C87.7248 79.9266 87.6933 79.9617 87.6579 79.9929C87.2879 80.3522 86.9061 80.7075 86.5244 81.0589C86.4378 81.137 86.3512 81.2151 86.2646 81.2932C85.8631 81.6563 85.4538 82.0155 85.0406 82.3669C84.9619 82.4333 84.8831 82.4997 84.8044 82.5621C84.4226 82.8823 84.0369 83.1947 83.6473 83.5031C83.5489 83.5812 83.4505 83.6632 83.3521 83.7374C82.8247 84.1474 82.2894 84.5457 81.7463 84.9361C81.6873 84.9791 81.6282 85.022 81.5692 85.065C81.0536 85.432 80.5262 85.7912 79.9949 86.1426C79.9083 86.1973 79.8256 86.2559 79.7391 86.3105C79.2156 86.6502 78.6882 86.9821 78.1529 87.3023C78.0585 87.357 77.9679 87.4116 77.8735 87.4702C77.3343 87.7904 76.7872 88.1027 76.2362 88.4034C76.1417 88.4541 76.0473 88.5049 75.9528 88.5557C75.5356 88.7821 75.1145 89.0008 74.6894 89.2155C74.6068 89.2546 74.5281 89.2975 74.4454 89.3405C73.9652 89.5787 73.4811 89.809 72.9931 90.0316C72.8829 90.0824 72.7688 90.1331 72.6546 90.1839C72.202 90.3869 71.7415 90.59 71.281 90.7813C71.2299 90.8047 71.1787 90.8242 71.1236 90.8477C70.6238 91.0546 70.12 91.2498 69.6122 91.4411C69.4942 91.488 69.3722 91.531 69.2502 91.5739C68.7346 91.7652 68.219 91.9487 67.6995 92.1205C67.6955 92.1205 67.6916 92.1205 67.6837 92.1244C67.1681 92.2962 66.6447 92.4563 66.1212 92.6125C65.9992 92.6477 65.8732 92.6867 65.7512 92.7218C65.2278 92.8741 64.7043 93.0186 64.1769 93.1553C64.1179 93.1709 64.0588 93.1826 63.9959 93.1982C63.5118 93.3192 63.0237 93.4364 62.5318 93.5418C62.4097 93.5691 62.2877 93.5965 62.1657 93.6238C61.6344 93.737 61.0991 93.8425 60.5639 93.9401C60.4694 93.9557 60.3749 93.9713 60.2844 93.9869C59.8082 94.0689 59.328 94.147 58.8479 94.2173C58.7337 94.2329 58.6235 94.2524 58.5094 94.2681C57.9702 94.3422 57.427 94.4086 56.88 94.4672C56.7658 94.4789 56.6517 94.4906 56.5375 94.5023C56.0495 94.5492 55.5615 94.5921 55.0734 94.6273C54.979 94.6351 54.8845 94.6429 54.7901 94.6468C54.239 94.6819 53.688 94.7093 53.1331 94.7249C53.0071 94.7288 52.8773 94.7327 52.7513 94.7366C52.2357 94.7483 51.7241 94.7561 51.2045 94.7522C51.1416 94.7522 51.0825 94.7522 51.0196 94.7522C50.4567 94.7483 49.8939 94.7288 49.3311 94.7054C49.1973 94.7015 49.0635 94.6937 48.9297 94.6858C48.359 94.6585 47.7843 94.6234 47.2097 94.5726C46.8161 94.5375 46.4265 94.5023 46.0329 94.4594C45.907 94.4438 45.781 94.4281 45.6551 94.4164C45.3914 94.3852 45.1277 94.354 44.8679 94.3188C44.7184 94.2993 44.5727 94.2759 44.4232 94.2563C44.187 94.2212 43.9469 94.19 43.7108 94.1509C43.5573 94.1275 43.3999 94.1002 43.2464 94.0767C43.0142 94.0377 42.7859 93.9986 42.5576 93.9557C42.4041 93.9284 42.2506 93.901 42.101 93.8698C41.8649 93.8268 41.6327 93.78 41.4005 93.7292C41.2588 93.698 41.1132 93.6707 40.9715 93.6394C40.7196 93.5848 40.4638 93.5262 40.2119 93.4676C40.0938 93.4403 39.9718 93.413 39.8537 93.3856C39.4837 93.2958 39.1177 93.206 38.7517 93.1084C38.7438 93.1084 38.7359 93.1045 38.7281 93.1006C38.3699 93.0069 38.0157 92.9054 37.6615 92.8038C37.5434 92.7687 37.4253 92.7336 37.3033 92.6984C37.0632 92.6281 36.8232 92.554 36.5831 92.4798C36.4453 92.4368 36.3076 92.39 36.1698 92.347C35.9494 92.2767 35.7329 92.2025 35.5165 92.1284C35.3748 92.0815 35.2331 92.0307 35.0914 91.98C34.8789 91.9058 34.6663 91.8277 34.4577 91.7496C34.316 91.6988 34.1783 91.6481 34.0405 91.5934C33.8241 91.5114 33.6115 91.4294 33.399 91.3435C33.2691 91.2928 33.1353 91.242 33.0054 91.1873C32.7732 91.0936 32.541 90.996 32.3088 90.8945C32.2025 90.8476 32.0963 90.8047 31.99 90.7578C31.6515 90.6095 31.317 90.4611 30.9864 90.3088C30.9746 90.3049 30.9628 90.2971 30.9509 90.2932C30.6321 90.1448 30.3133 89.9926 30.0024 89.8403C29.8922 89.7856 29.786 89.7309 29.6797 89.6763C29.4632 89.567 29.2467 89.4576 29.0303 89.3444C28.9043 89.278 28.7823 89.2116 28.6564 89.1453C28.4596 89.0398 28.2628 88.9344 28.066 88.8251C27.9401 88.7548 27.8102 88.6845 27.6842 88.6103C27.4914 88.501 27.3025 88.3917 27.1135 88.2823C26.9876 88.2082 26.8656 88.1379 26.7396 88.0637C26.5468 87.9505 26.3539 87.8333 26.165 87.7162C26.0469 87.6459 25.9289 87.5717 25.8147 87.4975C25.6061 87.3648 25.4015 87.232 25.1929 87.0993C25.0984 87.0368 25.004 86.9782 24.9095 86.9157C24.6104 86.7166 24.3152 86.5175 24.02 86.3105C24.0043 86.2988 23.9885 86.2871 23.9728 86.2754C23.6973 86.0802 23.4218 85.8849 23.1502 85.6858C23.0557 85.6155 22.9613 85.5452 22.8708 85.475C22.6779 85.3305 22.4851 85.186 22.2961 85.0415C22.1859 84.9596 22.0797 84.8737 21.9734 84.7878C21.8002 84.6511 21.627 84.5144 21.4578 84.3778C21.3476 84.288 21.2374 84.1982 21.1272 84.1045C20.9619 83.9678 20.7966 83.8272 20.6313 83.6906C20.5211 83.5969 20.4148 83.5071 20.3086 83.4133C20.1433 83.2689 19.9779 83.1244 19.8126 82.976C19.7103 82.8862 19.6119 82.7964 19.5096 82.7066C19.3285 82.5426 19.1514 82.3786 18.9743 82.2107C18.8917 82.1365 18.813 82.0585 18.7303 81.9843C17.3882 80.7075 16.1287 79.3487 14.9598 77.9235C12.6377 75.0849 10.6737 71.9651 9.12303 68.6345L11.3979 73.5192C11.4727 73.6792 11.5514 73.8354 11.6262 73.9916C10.5596 72.3283 9.6032 70.5946 8.76487 68.7946L11.0398 73.6792C17.6952 87.9661 31.8365 98.3249 49.4374 99.8204C50.0159 99.8711 50.5906 99.9063 51.1652 99.9336C51.299 99.9414 51.4368 99.9453 51.5706 99.9531C52.1373 99.9765 52.7041 99.9961 53.2708 100C53.3299 100 53.3889 100 53.4479 100C53.9714 100 54.4909 100 55.0105 99.9843C55.1403 99.9843 55.2702 99.9804 55.3962 99.9726C55.955 99.9531 56.51 99.9297 57.0649 99.8945C57.1594 99.8867 57.2499 99.8789 57.3444 99.875C57.8364 99.8399 58.3283 99.7969 58.8203 99.7501C58.9384 99.7384 59.0525 99.7266 59.1706 99.7149C59.7177 99.6564 60.2647 99.59 60.8118 99.5158C60.922 99.5002 61.0362 99.4846 61.1464 99.465C61.6265 99.3948 62.1067 99.3206 62.5869 99.2347C62.6853 99.219 62.7836 99.2034 62.882 99.1839C63.4212 99.0863 63.9604 98.9809 64.4918 98.8676C64.6138 98.8403 64.7319 98.813 64.8539 98.7895C65.338 98.6841 65.8221 98.5709 66.3023 98.4499C66.3731 98.4303 66.4439 98.4147 66.5148 98.3991C67.0461 98.2624 67.5735 98.118 68.097 97.9657C68.2229 97.9305 68.3449 97.8915 68.4669 97.8564C68.9747 97.7041 69.4824 97.5479 69.9862 97.38C70.0098 97.3722 70.0334 97.3644 70.057 97.3566C70.5805 97.1848 71.096 96.9973 71.6116 96.8099C71.7336 96.7631 71.8557 96.7201 71.9777 96.6733C72.4893 96.4819 73.001 96.2828 73.5047 96.0759C73.5402 96.0603 73.5795 96.0446 73.615 96.029C74.0912 95.8299 74.5635 95.6268 75.0318 95.416C75.1499 95.3652 75.2641 95.3106 75.3782 95.2598C75.8702 95.0333 76.3582 94.803 76.8423 94.5648C76.9131 94.5297 76.984 94.4945 77.0548 94.4555C77.4878 94.2368 77.9168 94.0143 78.3458 93.7839C78.4088 93.7487 78.4757 93.7175 78.5426 93.6824C78.578 93.6628 78.6095 93.6433 78.6449 93.6238C79.2195 93.3114 79.7863 92.9874 80.3452 92.6555C80.4357 92.6008 80.5262 92.55 80.6167 92.4954C81.1717 92.1596 81.7227 91.816 82.2658 91.4607C82.3524 91.4021 82.439 91.3474 82.5295 91.2889C83.0727 90.9296 83.6119 90.5587 84.1432 90.18C84.218 90.1253 84.2928 90.0706 84.3715 90.016C84.9107 89.6255 85.442 89.2272 85.9655 88.8173C85.9852 88.8017 86.0009 88.7899 86.0206 88.7782C86.0678 88.7392 86.115 88.7001 86.1623 88.6611C86.5558 88.3487 86.9455 88.0325 87.3273 87.7123C87.406 87.6459 87.4847 87.5834 87.5595 87.5171C87.9767 87.1617 88.3899 86.8025 88.7953 86.4355C88.8819 86.3574 88.9685 86.2793 89.0551 86.1973C89.4408 85.842 89.8265 85.4828 90.2004 85.1157C90.2319 85.0845 90.2634 85.0533 90.2949 85.0259C90.6924 84.6394 91.082 84.2411 91.4638 83.8429C91.5071 83.796 91.5543 83.753 91.5976 83.7062C91.6409 83.6593 91.6842 83.6125 91.7275 83.5656C92.0896 83.1791 92.4517 82.7925 92.802 82.3982C92.8177 82.3786 92.8334 82.3591 92.8492 82.3435C93.1877 81.9648 93.5183 81.5743 93.8449 81.1838C93.9276 81.0823 94.0142 80.9847 94.0968 80.8832C94.4314 80.4771 94.762 80.0632 95.0847 79.6454C95.1083 79.6142 95.1319 79.583 95.1556 79.5517C95.4586 79.1574 95.7538 78.7591 96.045 78.3569C96.0844 78.2984 96.1316 78.2437 96.171 78.189C96.2064 78.1422 96.2379 78.0914 96.2694 78.0446C96.5843 77.6033 96.8952 77.1543 97.1943 76.7014C97.2337 76.6428 97.2691 76.5842 97.3084 76.5257C97.58 76.1118 97.8476 75.694 98.1074 75.2684C98.1704 75.1708 98.2294 75.0693 98.2924 74.9717C98.5718 74.5109 98.8473 74.0424 99.111 73.5699C99.1622 73.4762 99.2134 73.3825 99.2645 73.2927C99.5007 72.8671 99.729 72.4376 99.9533 72.0042C99.9848 71.9456 100.016 71.8909 100.044 71.8324C100.063 71.7972 100.079 71.7621 100.095 71.727C100.166 71.5903 100.233 71.4497 100.304 71.3092C100.406 71.1061 100.504 70.8992 100.607 70.6962C100.677 70.5478 100.744 70.3994 100.815 70.2549C100.91 70.0558 101 69.8528 101.091 69.6536C101.158 69.5014 101.225 69.3491 101.295 69.1929C101.382 68.9938 101.469 68.7946 101.555 68.5955C101.622 68.4393 101.685 68.2831 101.752 68.123C101.835 67.9239 101.913 67.7209 101.996 67.5178C102.059 67.3617 102.118 67.2016 102.181 67.0415C102.26 66.8384 102.334 66.6315 102.409 66.4285C102.468 66.2723 102.523 66.1122 102.582 65.9521C102.657 65.7413 102.728 65.5304 102.799 65.3196C102.85 65.1634 102.905 65.0072 102.956 64.851C103.027 64.6324 103.098 64.4098 103.165 64.1911C103.212 64.0428 103.259 63.8905 103.303 63.7421C103.314 63.707 103.326 63.6718 103.334 63.6367C103.354 63.5664 103.373 63.5 103.393 63.4297C103.515 63.0081 103.633 62.5864 103.743 62.1647C103.779 62.0358 103.81 61.907 103.846 61.7742H103.83Z" fill="#33B568"/>
<path d="M60.3803 0.742189C73.9076 1.87842 85.4001 8.15307 93.0513 17.3913C100.699 26.6256 104.504 38.8118 102.651 51.7671C100.797 64.7225 93.6377 75.9872 83.5621 83.7378C73.4825 91.4805 60.4866 95.7053 46.9592 94.5691C33.4319 93.4328 21.9355 87.1543 14.2882 77.9239C6.63702 68.6856 2.83111 56.4995 4.68486 43.5441C6.53862 30.5887 13.7018 19.3201 23.7774 11.5774C33.857 3.8268 46.849 -0.394042 60.3803 0.742189Z" fill="#F2FFBD"/>
<path d="M59.781 4.91876C72.1043 5.95386 82.574 11.67 89.5442 20.086C96.5108 28.4984 99.9779 39.6 98.2892 51.4022C96.6004 63.2045 90.0784 73.4666 80.8995 80.5273C71.7171 87.5809 59.8778 91.4297 47.5545 90.3946C35.2312 89.3595 24.758 83.6397 17.7913 75.2309C10.8212 66.8149 7.35399 55.7134 9.04275 43.9111C10.7315 32.1088 17.2571 21.8432 26.436 14.7896C35.6184 7.72883 47.4541 3.88366 59.781 4.91876Z" fill="url(#paint0_linear_1_1148)"/>
<path d="M50.1953 67.5807L52.3149 39.0936L45.8651 42.3411L46.5129 33.6346L52.9855 30.0794L59.9641 30.5986L57.1739 68.0999L50.1953 67.5807Z" fill="#33B568"/>
<g opacity="0.7">
<path fill-rule="evenodd" clip-rule="evenodd" d="M67.3234 79.1009C67.9885 78.4996 68.6379 77.8788 69.2322 77.1837C70.0155 76.6176 71.1175 75.5282 72.0503 73.5095C73.0067 71.4401 73.2822 67.6761 73.2822 67.6761C73.2822 67.6761 68.449 71.7447 68.264 76.6722C68.2522 77.0158 68.2404 77.2501 68.2365 77.4102C67.7052 77.8944 67.1581 78.3551 66.6071 78.8041C63.3049 81.5217 58.2041 82.654 58.2041 82.654C58.2041 82.654 58.9952 82.8649 59.806 83.3959C61.7857 82.9039 64.7415 81.0727 66.2961 79.9365C66.4654 80.3777 67.2761 82.041 69.8265 81.8888C71.5268 81.7833 74.5731 79.8271 74.5731 79.8271C74.5731 79.8271 71.2159 76.5863 67.3273 79.1009H67.3234Z" fill="#33B568"/>
<path fill-rule="evenodd" clip-rule="evenodd" d="M73.6803 75.1379C73.0191 75.8641 72.9286 75.9618 72.9207 75.9696C72.9207 75.9735 74.1172 77.6993 77.1438 76.485C78.9031 75.7782 81.6267 72.9709 81.6267 72.9709C81.6267 72.9709 77.1832 71.2841 73.6843 75.1379H73.6803Z" fill="#33B568"/>
<path fill-rule="evenodd" clip-rule="evenodd" d="M74.2659 72.4827C74.4509 73.3105 74.4706 73.4277 74.4745 73.4394C74.4784 73.4355 76.6038 72.065 77.4736 68.3517C77.9774 66.2003 77.3634 62.8033 77.3634 62.8033C77.3634 62.8033 73.2859 68.1018 74.2698 72.4827H74.2659Z" fill="#33B568"/>
<path fill-rule="evenodd" clip-rule="evenodd" d="M79.5676 69.1909C79.052 70.0655 78.9772 70.1827 78.9694 70.1944C78.9733 70.1944 80.6381 71.276 83.5191 69.1206C85.1958 67.8673 87.3762 64.4351 87.3762 64.4351C87.3762 64.4351 82.3108 64.5601 79.5676 69.1909Z" fill="#33B568"/>
<path fill-rule="evenodd" clip-rule="evenodd" d="M79.9887 67.4139C79.9887 67.4139 81.8897 65.446 81.9054 61.8889C81.9133 59.8273 80.4492 57.0746 80.4492 57.0746C80.4492 57.0746 77.458 63.1735 79.54 66.6564C79.9336 67.3163 79.9808 67.4061 79.9847 67.4178L79.9887 67.4139Z" fill="#33B568"/>
<path fill-rule="evenodd" clip-rule="evenodd" d="M84.3063 61.8716C83.9757 62.8204 83.9284 62.9493 83.9206 62.9649C83.9245 62.9649 85.9318 63.3124 88.4349 60.3957C89.8912 58.7011 91.3514 54.9215 91.3514 54.9215C91.3514 54.9215 86.0656 56.8464 84.3063 61.8755" fill="#33B568"/>
<path fill-rule="evenodd" clip-rule="evenodd" d="M84.3211 60.1679C84.3211 60.1679 85.8364 57.7666 84.9941 54.6469C84.5022 52.839 82.2981 50.9531 82.2981 50.9531C82.2981 50.9531 80.6451 57.3605 83.6678 59.6603C84.2385 60.0937 84.3133 60.1562 84.3211 60.164" fill="#33B568"/>
<path fill-rule="evenodd" clip-rule="evenodd" d="M87.5024 53.7773C87.3843 54.7261 87.3647 54.855 87.3647 54.8667C87.3686 54.8667 89.5569 54.4528 91.4776 51.0051C92.5914 49.0059 93.1975 45.1795 93.1975 45.1795C93.1975 45.1795 88.1203 48.7482 87.5024 53.7734" fill="#33B568"/>
<path fill-rule="evenodd" clip-rule="evenodd" d="M86.4004 47.5444C85.5424 46.0333 82.8858 44.9284 82.8858 44.9284C82.8858 44.9284 82.3741 51.2147 85.9636 52.472C86.6405 52.7102 86.731 52.7453 86.7389 52.7492C86.7389 52.7414 87.8685 50.1449 86.3965 47.5444H86.4004Z" fill="#33B568"/>
<path fill-rule="evenodd" clip-rule="evenodd" d="M89.0016 46.5608C89.0016 46.5608 91.2017 45.4168 92.3706 41.7191C93.0476 39.5755 92.7406 36.0185 92.7406 36.0185C92.7406 36.0185 88.2931 40.9421 88.8795 45.5534C88.9897 46.4241 89.0016 46.5452 89.0016 46.5569V46.5608Z" fill="#33B568"/>
<path fill-rule="evenodd" clip-rule="evenodd" d="M87.1431 45.2735C87.9027 45.2735 88.005 45.2735 88.0168 45.2775C88.0168 45.2696 88.6387 42.595 86.5331 40.7325C85.309 39.6549 82.2903 39.4987 82.2903 39.4987C82.2903 39.4987 83.1128 45.2814 87.147 45.2735H87.1431Z" fill="#33B568"/>
<path fill-rule="evenodd" clip-rule="evenodd" d="M88.6838 38.7168C88.6838 38.7168 90.7068 36.9364 91.0217 33.2895C91.2027 31.1771 89.9984 28.1745 89.9984 28.1745C89.9984 28.1745 86.5624 34.0548 88.3099 37.8813C88.6405 38.6036 88.6799 38.7051 88.6838 38.7168Z" fill="#33B568"/>
<path fill-rule="evenodd" clip-rule="evenodd" d="M80.4136 34.4145C80.4136 34.4145 82.2594 39.5451 86.4589 38.5416C87.254 38.3542 87.3602 38.3308 87.372 38.3308C87.372 38.323 87.561 35.703 85.046 34.5082C83.5858 33.8132 80.4136 34.4145 80.4136 34.4145Z" fill="#33B568"/>
<path fill-rule="evenodd" clip-rule="evenodd" d="M85.8186 31.373C86.3421 31.8884 86.409 31.9626 86.4169 31.9704C86.4208 31.9665 88.0935 29.694 87.5189 26.3986C87.1843 24.4853 85.1771 22.2831 85.1771 22.2831C85.1771 22.2831 83.0439 28.6437 85.8186 31.373Z" fill="#33B568"/>
<path fill-rule="evenodd" clip-rule="evenodd" d="M85.1129 32.4639C85.1129 32.4639 85.1011 29.8986 82.4326 29.0122C80.8819 28.4968 77.6821 29.43 77.6821 29.43C77.6821 29.43 79.9728 34.2053 84.1959 32.7723C84.9948 32.5029 85.1011 32.4717 85.1129 32.4678" fill="#33B568"/>
<path fill-rule="evenodd" clip-rule="evenodd" d="M82.12 27.6548C82.8757 27.7016 82.9741 27.7133 82.9859 27.7172C82.9859 27.7094 83.7061 25.0348 81.691 23.0122C80.5181 21.8409 77.5309 21.4894 77.5309 21.4894C77.5309 21.4894 78.1212 27.4049 82.12 27.6548Z" fill="#33B568"/>
</g>
<g opacity="0.7">
<path fill-rule="evenodd" clip-rule="evenodd" d="M22.074 75.0441C22.074 75.0441 24.4394 77.0003 26.1042 77.1057C28.5995 77.2619 29.9849 75.5985 30.3116 75.1534C31.4687 76.2896 33.7908 78.117 35.5974 78.6128C36.5971 78.0818 37.459 77.871 37.459 77.871C37.459 77.871 32.7518 76.7386 30.3943 74.0211C30.0007 73.572 29.611 73.1113 29.2489 72.6271C29.2962 72.467 29.3709 72.2328 29.4772 71.8892C31.0043 66.9577 27.5841 62.893 27.5841 62.893C27.5841 62.893 26.5529 66.6609 26.7891 68.7265C27.0213 70.7451 27.7455 71.8345 28.3319 72.4007C28.6822 73.0957 29.1191 73.7204 29.5717 74.3178C26.5569 71.8033 22.074 75.0441 22.074 75.0441Z" fill="#33B568"/>
<path fill-rule="evenodd" clip-rule="evenodd" d="M17.4074 68.1878C17.4074 68.1878 19.1549 70.9952 20.6662 71.7019C23.2717 72.9162 25.0625 71.1943 25.0664 71.1865C25.0586 71.1787 25.0035 71.0811 24.5941 70.3548C22.4334 66.501 17.4074 68.1878 17.4074 68.1878Z" fill="#33B568"/>
<path fill-rule="evenodd" clip-rule="evenodd" d="M25.2003 58.015C25.2003 58.015 23.4056 61.412 23.1616 63.5634C22.7405 67.2766 24.3896 68.6432 24.3935 68.6511C24.4014 68.6393 24.4604 68.5222 24.9327 67.6944C27.4359 63.3135 25.2003 58.015 25.2003 58.015Z" fill="#33B568"/>
<path fill-rule="evenodd" clip-rule="evenodd" d="M20.7768 64.4035C19.6433 59.7726 14.6212 59.6477 14.6212 59.6477C14.6212 59.6477 15.6091 63.0837 16.8528 64.3332C18.986 66.4885 21.0248 65.4069 21.0287 65.4069C21.0248 65.3952 20.9933 65.2781 20.7808 64.4035" fill="#33B568"/>
<path fill-rule="evenodd" clip-rule="evenodd" d="M21.682 61.8686C24.9723 58.3857 24.1025 52.2867 24.1025 52.2867C24.1025 52.2867 21.682 55.0395 20.9735 57.1011C19.7574 60.6581 20.9696 62.6221 20.9735 62.626C20.9814 62.6182 21.0641 62.5245 21.6859 61.8647L21.682 61.8686Z" fill="#33B568"/>
<path fill-rule="evenodd" clip-rule="evenodd" d="M18.58 57.0867C18.5722 52.0576 13.9555 50.1327 13.9555 50.1327C13.9555 50.1327 14.1011 53.9162 14.967 55.6069C16.4586 58.5275 18.584 58.18 18.5879 58.1761C18.5879 58.1605 18.584 58.0355 18.58 57.0828" fill="#33B568"/>
<path fill-rule="evenodd" clip-rule="evenodd" d="M19.1582 55.3809C19.1582 55.3809 19.2645 55.3107 19.9847 54.8772C23.8064 52.5735 24.3771 46.1701 24.3771 46.1701C24.3771 46.1701 21.5197 48.056 20.4019 49.8638C18.4773 52.9796 19.1543 55.377 19.1582 55.3848" fill="#33B568"/>
<path fill-rule="evenodd" clip-rule="evenodd" d="M18.198 48.9882C19.3276 43.963 15.4902 40.3942 15.4902 40.3942C15.4902 40.3942 14.7699 44.2168 15.1871 46.2198C15.9113 49.6636 17.954 50.0775 17.9579 50.0814C17.9579 50.0697 17.9855 49.9409 18.198 48.9921" fill="#33B568"/>
<path fill-rule="evenodd" clip-rule="evenodd" d="M19.3158 47.9661C19.3158 47.9661 19.4299 47.9271 20.1895 47.6889C24.2158 46.4316 25.8885 40.1453 25.8885 40.1453C25.8885 40.1453 22.8462 41.2503 21.4647 42.7614C19.0875 45.3618 19.3158 47.9583 19.3158 47.9661Z" fill="#33B568"/>
<path fill-rule="evenodd" clip-rule="evenodd" d="M19.6736 40.7702C21.858 36.1589 19.1265 31.2353 19.1265 31.2353C19.1265 31.2353 17.5837 34.7923 17.5168 36.936C17.4026 40.6297 19.1974 41.7737 19.2013 41.7776C19.2052 41.7659 19.2603 41.6449 19.6697 40.7741L19.6736 40.7702Z" fill="#33B568"/>
<path fill-rule="evenodd" clip-rule="evenodd" d="M28.3651 34.7129C28.3651 34.7129 25.2913 34.8691 23.6933 35.9468C20.9422 37.8093 20.6313 40.4839 20.6313 40.4917C20.6431 40.4917 20.7454 40.4839 21.505 40.4878C25.5314 40.4956 28.3651 34.7129 28.3651 34.7129Z" fill="#33B568"/>
<path fill-rule="evenodd" clip-rule="evenodd" d="M22.9104 33.096C25.9882 29.2695 24.591 23.3892 24.591 23.3892C24.591 23.3892 22.3476 26.3879 21.7927 28.5042C20.8402 32.1472 22.2413 33.9238 22.2453 33.9316C22.2531 33.9199 22.3279 33.8183 22.9104 33.096Z" fill="#33B568"/>
<path fill-rule="evenodd" clip-rule="evenodd" d="M32.0086 29.6297C32.0086 29.6297 29.0489 29.0323 27.3447 29.7234C24.4164 30.9221 23.6962 33.5382 23.6923 33.546C23.7041 33.546 23.8025 33.5694 24.5306 33.7569C28.3798 34.7564 32.0086 29.6297 32.0086 29.6297Z" fill="#33B568"/>
<path fill-rule="evenodd" clip-rule="evenodd" d="M27.6655 26.5874C31.3887 23.8581 31.4635 17.4975 31.4635 17.4975C31.4635 17.4975 28.6966 19.6997 27.697 21.6129C25.977 24.9123 26.8626 27.1809 26.8626 27.1848C26.8704 27.177 26.9649 27.1028 27.6694 26.5874" fill="#33B568"/>
<path fill-rule="evenodd" clip-rule="evenodd" d="M27.9871 27.6806C27.9871 27.6806 28.0933 27.7157 28.7978 27.9851C32.525 29.4181 36.4726 24.6428 36.4726 24.6428C36.4726 24.6428 33.5956 23.7135 31.8677 24.225C28.8923 25.1114 27.991 27.6689 27.9871 27.6767" fill="#33B568"/>
<path fill-rule="evenodd" clip-rule="evenodd" d="M32.651 22.8669C36.7324 22.6131 39.3773 16.7016 39.3773 16.7016C39.3773 16.7016 36.268 17.053 34.6897 18.2244C31.974 20.247 31.7655 22.9216 31.7615 22.9294C31.7733 22.9294 31.8757 22.9177 32.6471 22.8669" fill="#33B568"/>
</g>
<path d="M92.0717 3.35453C92.0717 3.35453 90.6868 8.74215 90.6994 10.041C90.7119 11.3398 89.86 13.7743 93.3667 15.1984C93.3667 15.1984 97.442 16.6781 98.5598 16.8034C98.5598 16.8034 94.2729 15.7586 93.0941 15.7596C91.9153 15.7606 89.5749 15.46 88.0176 20.2981L86.5359 25.6123C86.5359 25.6123 87.8477 19.9823 87.9217 18.8382C87.9957 17.6942 88.6445 14.97 84.9436 13.6314L80.3318 12.2187C80.3318 12.2187 84.0622 13.2612 86.3149 13.2172C88.5675 13.1732 90.216 10.6043 92.0717 3.35453Z" fill="#33B568" stroke="#33B568" stroke-width="0.49391" stroke-miterlimit="10"/>
<path d="M5.42717 70.8871C5.42717 70.8871 4.79548 73.3445 4.80121 73.9369C4.80694 74.5294 4.41834 75.6398 6.01786 76.2893C6.01786 76.2893 7.87667 76.9643 8.38653 77.0214C8.38653 77.0214 6.43117 76.5449 5.89351 76.5453C5.35585 76.5458 4.28832 76.4087 3.57802 78.6154L2.90219 81.0393C2.90219 81.0393 3.50053 78.4713 3.53427 77.9495C3.568 77.4277 3.86395 76.1852 2.17588 75.5746L0.0723501 74.9303C0.0723501 74.9303 1.77387 75.4057 2.80135 75.3857C3.82884 75.3656 4.58076 74.1939 5.42717 70.8871Z" fill="#33B568" stroke="#33B568" stroke-width="0.49391" stroke-miterlimit="10"/>
<ellipse cx="32.3161" cy="1.17794" rx="1.17794" ry="1.17794" fill="#33B568"/>
<ellipse cx="99.6607" cy="82.4221" rx="1.90352" ry="1.90352" fill="#33B568"/>
<ellipse cx="3.71763" cy="68.1467" rx="0.503463" ry="0.503463" fill="#33B568"/>
<defs>
<linearGradient id="paint0_linear_1_1148" x1="54.052" y1="7.08668" x2="54.052" y2="90.5602" gradientUnits="userSpaceOnUse">
<stop offset="0.4375" stop-color="#D4F938"/>
<stop offset="1" stop-color="#32D875" stop-opacity="0.96"/>
</linearGradient>
</defs>
</svg>
