<svg width="100" height="24" viewBox="0 0 100 24" fill="none" xmlns="http://www.w3.org/2000/svg">
<g clip-path="url(#clip0_1_23)">
<path d="M34.0942 0.0527344H36.2838V18.6794H34.3878L34.0942 16.497C33.1861 17.7473 31.7179 18.8385 29.4229 18.8385C25.6581 18.8385 22.8827 16.3109 22.8827 11.8936C22.8827 7.74204 25.6596 4.94879 29.4229 4.94879C31.7194 4.94879 33.2674 5.88088 34.0942 7.18369V0.0527344ZM34.1213 11.9462C34.1213 8.9653 32.3052 6.89101 29.6367 6.89101C26.9682 6.89101 25.125 8.93979 25.125 11.8936C25.125 14.8475 26.9396 16.8963 29.6367 16.8963C32.3338 16.8963 34.1213 14.8475 34.1213 11.9477V11.9462Z" fill="#E2FF6F"/>
<path d="M36.8165 11.8931C36.8165 7.7685 39.4323 4.94824 43.2769 4.94824C47.1214 4.94824 49.6303 7.36926 49.7372 11.3873C49.7372 11.68 49.7101 11.9997 49.6845 12.3178H39.113V12.504C39.1928 15.0856 40.8222 16.8942 43.4109 16.8942C45.3324 16.8942 46.8278 15.8826 47.2826 14.1265H49.4978C48.9632 16.8402 46.7209 18.8364 43.5705 18.8364C39.4865 18.8364 36.8165 16.0432 36.8165 11.8916V11.8931ZM47.388 10.5092C47.1741 8.16775 45.5734 6.86344 43.304 6.86344C41.3011 6.86344 39.4594 8.29984 39.2456 10.5092H47.388Z" fill="#E2FF6F"/>
<path d="M62.4452 11.1216V18.6788H60.2556V11.2552C60.2556 8.43492 58.947 6.94449 56.5722 6.94449C54.0091 6.94449 52.4611 8.83417 52.4611 11.8931V18.6788H50.2715V5.10884H52.1674L52.4611 6.94449C53.2622 5.90734 54.6507 4.94824 56.9457 4.94824C60.0162 4.94824 62.4452 6.62479 62.4452 11.1216Z" fill="#E2FF6F"/>
<path d="M64.9552 14.2088C65.035 15.8058 66.4505 16.9766 68.7199 16.9766C70.6415 16.9766 72.0028 16.1511 72.0028 14.9008C72.0028 13.1972 70.5075 13.0651 68.479 12.825C65.4356 12.4527 63.0065 11.8404 63.0065 9.02009C63.0065 6.54505 65.2759 4.92253 68.3465 4.94955C71.4426 4.97657 73.6864 6.41297 73.8988 9.23323H71.6565C71.4968 7.84936 70.2153 6.81222 68.3465 6.81222C66.4777 6.81222 65.169 7.61071 65.169 8.861C65.169 10.3514 66.6102 10.5375 68.5859 10.7762C71.6821 11.1484 74.1653 11.7338 74.1653 14.7402C74.1653 17.2677 71.7363 18.8377 68.7199 18.8377C65.1961 18.8377 62.7671 17.1882 62.7129 14.2073H64.9552V14.2088Z" fill="#E2FF6F"/>
<path d="M75.3945 1.41088C75.3945 0.585366 76.0089 0 76.8101 0C77.6112 0 78.2256 0.585366 78.2256 1.41088C78.2256 2.2364 77.6112 2.82176 76.8101 2.82176C76.0089 2.82176 75.3945 2.2364 75.3945 1.41088ZM75.6882 5.10919H77.8778V18.6792H75.6882V5.10919Z" fill="#E2FF6F"/>
<path d="M80.9718 7.10431H78.5156V5.10807H80.9718V1.30469H83.1613V5.10957H86.6852V7.10581H83.1613V15.1148C83.1613 16.2585 83.5619 16.6848 84.7365 16.6848H86.899V18.681H84.5227C81.9069 18.681 80.9718 17.5373 80.9718 15.1418V7.10431Z" fill="#E2FF6F"/>
<path d="M87.0605 5.10938H89.3826L93.5736 15.9386L97.632 5.10938H99.9541L93.6805 20.9683C92.8267 23.1507 92.3192 24.0017 90.3976 24.0017H87.7819V22.0054H89.7305C90.9849 22.0054 91.1988 21.6857 91.7063 20.4084L92.3734 18.7589L87.0605 5.10938Z" fill="#E2FF6F"/>
<path d="M1.73179 3.21973H0.228898C0.102481 3.21973 0 3.32187 0 3.44787V4.94581C0 5.07181 0.102481 5.17395 0.228898 5.17395H1.73179C1.85821 5.17395 1.96069 5.07181 1.96069 4.94581V3.44787C1.96069 3.32187 1.85821 3.21973 1.73179 3.21973Z" fill="#E2FF6F"/>
<path d="M4.44308 3.21973H2.98085C2.85435 3.21973 2.75195 3.32179 2.75195 3.44787V4.94581C2.75195 5.07188 2.85435 5.17395 2.98085 5.17395H4.44308C4.59217 5.17395 4.71264 5.05387 4.71264 4.90528V3.4899C4.71264 3.3413 4.59217 3.22123 4.44308 3.22123V3.21973Z" fill="#E2FF6F"/>
<path d="M7.23179 3.21973H5.7289C5.60248 3.21973 5.5 3.32187 5.5 3.44787V4.94581C5.5 5.07181 5.60248 5.17395 5.7289 5.17395H7.23179C7.35821 5.17395 7.46069 5.07181 7.46069 4.94581V3.44787C7.46069 3.32187 7.35821 3.21973 7.23179 3.21973Z" fill="#E2FF6F"/>
<path d="M9.98387 3.21973H8.48097C8.35456 3.21973 8.25208 3.32187 8.25208 3.44787V4.94581C8.25208 5.07181 8.35456 5.17395 8.48097 5.17395H9.98387C10.1103 5.17395 10.2128 5.07181 10.2128 4.94581V3.44787C10.2128 3.32187 10.1103 3.21973 9.98387 3.21973Z" fill="#E2FF6F"/>
<path d="M12.7435 5.94434H11.2406C11.1142 5.94434 11.0117 6.04648 11.0117 6.17248V7.67041C11.0117 7.79641 11.1142 7.89856 11.2406 7.89856H12.7435C12.8699 7.89856 12.9724 7.79641 12.9724 7.67041V6.17248C12.9724 6.04648 12.8699 5.94434 12.7435 5.94434Z" fill="#E2FF6F"/>
<path d="M9.98374 5.94434H8.48085C8.35443 5.94434 8.25195 6.04648 8.25195 6.17248V7.67041C8.25195 7.79641 8.35443 7.89856 8.48085 7.89856H9.98374C10.1102 7.89856 10.2126 7.79641 10.2126 7.67041V6.17248C10.2126 6.04648 10.1102 5.94434 9.98374 5.94434Z" fill="#E2FF6F"/>
<path d="M7.23179 5.94434H5.7289C5.60248 5.94434 5.5 6.04648 5.5 6.17248V7.67041C5.5 7.79641 5.60248 7.89856 5.7289 7.89856H7.23179C7.35821 7.89856 7.46069 7.79641 7.46069 7.67041V6.17248C7.46069 6.04648 7.35821 5.94434 7.23179 5.94434Z" fill="#E2FF6F"/>
<path d="M4.48374 5.94388H3.02151C2.87243 5.94388 2.75195 6.06396 2.75195 6.21255V7.62794C2.75195 7.77653 2.87243 7.8966 3.02151 7.8966H4.48374C4.61024 7.8966 4.71264 7.79454 4.71264 7.66846V6.17053C4.71264 6.04445 4.61024 5.94238 4.48374 5.94238V5.94388Z" fill="#E2FF6F"/>
<path d="M1.73179 5.94434H0.228898C0.102481 5.94434 0 6.04648 0 6.17248V7.67041C0 7.79641 0.102481 7.89856 0.228898 7.89856H1.73179C1.85821 7.89856 1.96069 7.79641 1.96069 7.67041V6.17248C1.96069 6.04648 1.85821 5.94434 1.73179 5.94434Z" fill="#E2FF6F"/>
<path d="M1.69099 8.66797H0.26942C0.120547 8.66797 -0.000137329 8.78826 -0.000137329 8.93664V10.3535C-0.000137329 10.5019 0.120547 10.6222 0.26942 10.6222H1.69099C1.83987 10.6222 1.96055 10.5019 1.96055 10.3535V8.93664C1.96055 8.78826 1.83987 8.66797 1.69099 8.66797Z" fill="#E2FF6F"/>
<path d="M4.48374 8.66849H3.02151C2.87243 8.66849 2.75195 8.78857 2.75195 8.93716V10.3525C2.75195 10.5011 2.87243 10.6212 3.02151 10.6212H4.48374C4.61024 10.6212 4.71264 10.5191 4.71264 10.3931V8.89513C4.71264 8.76906 4.61024 8.66699 4.48374 8.66699V8.66849Z" fill="#E2FF6F"/>
<path d="M7.23179 8.66797H5.7289C5.60248 8.66797 5.5 8.77011 5.5 8.89611V10.394C5.5 10.52 5.60248 10.6222 5.7289 10.6222H7.23179C7.35821 10.6222 7.46069 10.52 7.46069 10.394V8.89611C7.46069 8.77011 7.35821 8.66797 7.23179 8.66797Z" fill="#E2FF6F"/>
<path d="M9.98387 8.66797H8.48097C8.35456 8.66797 8.25208 8.77011 8.25208 8.89611V10.394C8.25208 10.52 8.35456 10.6222 8.48097 10.6222H9.98387C10.1103 10.6222 10.2128 10.52 10.2128 10.394V8.89611C10.2128 8.77011 10.1103 8.66797 9.98387 8.66797Z" fill="#E2FF6F"/>
<path d="M12.7435 8.66797H11.2406C11.1142 8.66797 11.0117 8.77011 11.0117 8.89611V10.394C11.0117 10.52 11.1142 10.6222 11.2406 10.6222H12.7435C12.8699 10.6222 12.9724 10.52 12.9724 10.394V8.89611C12.9724 8.77011 12.8699 8.66797 12.7435 8.66797Z" fill="#E2FF6F"/>
<path d="M15.4935 8.66797H13.9906C13.8642 8.66797 13.7617 8.77011 13.7617 8.89611V10.394C13.7617 10.52 13.8642 10.6222 13.9906 10.6222H15.4935C15.6199 10.6222 15.7224 10.52 15.7224 10.394V8.89611C15.7224 8.77011 15.6199 8.66797 15.4935 8.66797Z" fill="#E2FF6F"/>
<path d="M15.4935 11.3926H13.9906C13.8642 11.3926 13.7617 11.4947 13.7617 11.6207V13.1187C13.7617 13.2447 13.8642 13.3468 13.9906 13.3468H15.4935C15.6199 13.3468 15.7224 13.2447 15.7224 13.1187V11.6207C15.7224 11.4947 15.6199 11.3926 15.4935 11.3926Z" fill="#E2FF6F"/>
<path d="M12.7435 11.3926H11.2406C11.1142 11.3926 11.0117 11.4947 11.0117 11.6207V13.1187C11.0117 13.2447 11.1142 13.3468 11.2406 13.3468H12.7435C12.8699 13.3468 12.9724 13.2447 12.9724 13.1187V11.6207C12.9724 11.4947 12.8699 11.3926 12.7435 11.3926Z" fill="#E2FF6F"/>
<path d="M9.98374 11.3926H8.48085C8.35443 11.3926 8.25195 11.4947 8.25195 11.6207V13.1187C8.25195 13.2447 8.35443 13.3468 8.48085 13.3468H9.98374C10.1102 13.3468 10.2126 13.2447 10.2126 13.1187V11.6207C10.2126 11.4947 10.1102 11.3926 9.98374 11.3926Z" fill="#E2FF6F"/>
<path d="M7.23179 11.3926H5.7289C5.60248 11.3926 5.5 11.4947 5.5 11.6207V13.1187C5.5 13.2447 5.60248 13.3468 5.7289 13.3468H7.23179C7.35821 13.3468 7.46069 13.2447 7.46069 13.1187V11.6207C7.46069 11.4947 7.35821 11.3926 7.23179 11.3926Z" fill="#E2FF6F"/>
<path d="M4.48374 11.3921H3.02151C2.87243 11.3921 2.75195 11.5122 2.75195 11.6608V13.0762C2.75195 13.2248 2.87243 13.3448 3.02151 13.3448H4.48374C4.61024 13.3448 4.71264 13.2428 4.71264 13.1167V11.6188C4.71264 11.4927 4.61024 11.3906 4.48374 11.3906V11.3921Z" fill="#E2FF6F"/>
<path d="M1.73179 11.3926H0.228898C0.102481 11.3926 0 11.4947 0 11.6207V13.1187C0 13.2447 0.102481 13.3468 0.228898 13.3468H1.73179C1.85821 13.3468 1.96069 13.2447 1.96069 13.1187V11.6207C1.96069 11.4947 1.85821 11.3926 1.73179 11.3926Z" fill="#E2FF6F"/>
<path d="M1.73165 14.1162H0.22876C0.102344 14.1162 -0.000137329 14.2184 -0.000137329 14.3444V15.8423C-0.000137329 15.9683 0.102344 16.0704 0.22876 16.0704H1.73165C1.85807 16.0704 1.96055 15.9683 1.96055 15.8423V14.3444C1.96055 14.2184 1.85807 14.1162 1.73165 14.1162Z" fill="#E2FF6F"/>
<path d="M4.44273 14.1109H2.98049C2.83141 14.1109 2.71094 14.231 2.71094 14.3795V15.7949C2.71094 15.9435 2.83141 16.0636 2.98049 16.0636H4.44273C4.56922 16.0636 4.67163 15.9615 4.67163 15.8355V14.3375C4.67163 14.2114 4.56922 14.1094 4.44273 14.1094V14.1109Z" fill="#E2FF6F"/>
<path d="M7.23179 14.1162H5.7289C5.60248 14.1162 5.5 14.2184 5.5 14.3444V15.8423C5.5 15.9683 5.60248 16.0704 5.7289 16.0704H7.23179C7.35821 16.0704 7.46069 15.9683 7.46069 15.8423V14.3444C7.46069 14.2184 7.35821 14.1162 7.23179 14.1162Z" fill="#E2FF6F"/>
<path d="M9.98387 14.1162H8.48097C8.35456 14.1162 8.25208 14.2184 8.25208 14.3444V15.8423C8.25208 15.9683 8.35456 16.0704 8.48097 16.0704H9.98387C10.1103 16.0704 10.2128 15.9683 10.2128 15.8423V14.3444C10.2128 14.2184 10.1103 14.1162 9.98387 14.1162Z" fill="#E2FF6F"/>
<path d="M12.7435 14.1162H11.2406C11.1142 14.1162 11.0117 14.2184 11.0117 14.3444V15.8423C11.0117 15.9683 11.1142 16.0704 11.2406 16.0704H12.7435C12.8699 16.0704 12.9724 15.9683 12.9724 15.8423V14.3444C12.9724 14.2184 12.8699 14.1162 12.7435 14.1162Z" fill="#E2FF6F"/>
<path d="M9.98374 16.8389H8.48085C8.35443 16.8389 8.25195 16.941 8.25195 17.067V18.5649C8.25195 18.6909 8.35443 18.7931 8.48085 18.7931H9.98374C10.1102 18.7931 10.2126 18.6909 10.2126 18.5649V17.067C10.2126 16.941 10.1102 16.8389 9.98374 16.8389Z" fill="#E2FF6F"/>
<path d="M7.23179 16.8389H5.7289C5.60248 16.8389 5.5 16.941 5.5 17.067V18.5649C5.5 18.6909 5.60248 18.7931 5.7289 18.7931H7.23179C7.35821 18.7931 7.46069 18.6909 7.46069 18.5649V17.067C7.46069 16.941 7.35821 16.8389 7.23179 16.8389Z" fill="#E2FF6F"/>
<path d="M4.48374 16.8394H3.02151C2.87243 16.8394 2.75195 16.9595 2.75195 17.1081V18.5234C2.75195 18.672 2.87243 18.7921 3.02151 18.7921H4.48374C4.61024 18.7921 4.71264 18.69 4.71264 18.564V17.066C4.71264 16.94 4.61024 16.8379 4.48374 16.8379V16.8394Z" fill="#E2FF6F"/>
<path d="M1.73179 16.8389H0.228898C0.102481 16.8389 0 16.941 0 17.067V18.5649C0 18.6909 0.102481 18.7931 0.228898 18.7931H1.73179C1.85821 18.7931 1.96069 18.6909 1.96069 18.5649V17.067C1.96069 16.941 1.85821 16.8389 1.73179 16.8389Z" fill="#E2FF6F"/>
</g>
<defs>
<clipPath id="clip0_1_23">
<rect width="99.9529" height="24" fill="white"/>
</clipPath>
</defs>
</svg>
