<svg width="77" height="57" viewBox="0 0 77 57" fill="none" xmlns="http://www.w3.org/2000/svg">
<path d="M45.6119 11.216L45.5728 24.7277L37.23 27.8105L37.2691 14.289L45.6119 11.216Z" fill="#27A65A"/>
<path d="M22.3126 20.562L22.2735 34.0834L11.1856 27.6836L11.2247 14.172L22.3126 20.562Z" fill="#1D974F"/>
<path d="M66.8108 23.4399L66.7815 36.9613L45.5728 24.7277L45.6119 11.216L66.8108 23.4399Z" fill="#1D974F"/>
<path d="M77 17.5279L76.9609 31.0493L66.7815 36.9613L66.8108 23.4399L77 17.5279Z" fill="#33B568"/>
<mask id="mask0_1_804" style="mask-type:luminance" maskUnits="userSpaceOnUse" x="22" y="19" width="17" height="21">
<path d="M38.1776 26.0544L38.1386 39.5758C38.1386 38.0637 37.0933 36.5808 34.9148 35.3223C30.4796 32.7663 24.6767 33.0883 22.2736 34.0833L22.3126 20.5619C24.7256 19.5668 30.5284 19.2449 34.9538 21.8009C37.1323 23.0594 38.1776 24.5423 38.1776 26.0544Z" fill="white"/>
</mask>
<g mask="url(#mask0_1_804)">
<path d="M38.1776 26.0544L38.1386 39.5758C38.1386 38.0637 37.0933 36.5808 34.9148 35.3223C30.4796 32.7663 24.6767 33.0883 22.2736 34.0833L22.3126 20.5619C24.7256 19.5668 30.5284 19.2449 34.9538 21.8009C37.1323 23.0594 38.1776 24.5423 38.1776 26.0544Z" fill="#26A258"/>
</g>
<mask id="mask1_1_804" style="mask-type:luminance" maskUnits="userSpaceOnUse" x="15" y="22" width="4" height="19">
<path d="M15.572 40.2782L15.611 26.7568C15.611 25.2837 16.6954 23.8203 18.8641 22.5619L18.8251 36.0833C16.6563 37.3418 15.572 38.8149 15.572 40.2782Z" fill="white"/>
</mask>
<g mask="url(#mask1_1_804)">
<path d="M18.8641 22.5619L18.8251 36.0833C16.6563 37.3418 15.572 38.8149 15.572 40.2782L15.611 26.7568C15.611 25.2837 16.6954 23.8203 18.8641 22.5619Z" fill="#26A258"/>
</g>
<mask id="mask2_1_804" style="mask-type:luminance" maskUnits="userSpaceOnUse" x="0" y="25" width="56" height="32">
<path d="M55.0293 28.0641L54.9902 41.5855C54.9805 45.0683 52.4796 48.5511 47.3215 51.5461C35.7549 58.258 20.3393 57.1849 9.25135 50.7851C3.69273 47.5852 -0.00974981 43.4878 1.92853e-05 39.2539L0.0390966 25.7325C0.0293275 29.9664 3.74158 34.0541 9.29043 37.2637C20.3783 43.6537 35.794 44.7366 47.3606 38.0246C52.5187 35.0296 55.0195 31.5371 55.0293 28.0641Z" fill="white"/>
</mask>
<g mask="url(#mask2_1_804)">
<path d="M55.0293 28.0641L54.9902 41.5855C54.9805 45.0683 52.4796 48.5511 47.3215 51.5461C35.7549 58.258 20.3393 57.1849 9.25135 50.7851C3.69273 47.5852 -0.00974981 43.4878 1.92853e-05 39.2539L0.0390966 25.7325C0.0293275 29.9664 3.74158 34.0541 9.29043 37.2637C20.3783 43.6537 35.794 44.7366 47.3606 38.0246C52.5187 35.0296 55.0195 31.5371 55.0293 28.0641Z" fill="#33B568"/>
</g>
<path d="M77 17.531L66.8108 23.443L45.6021 11.2191L37.2593 14.3019C40.0239 14.6141 43.2771 15.6189 47.087 17.8237C57.3446 23.7356 57.8721 31.9304 47.341 38.0375C35.7744 44.7494 20.3588 43.6763 9.27084 37.2766C-0.566639 31.5987 -4.62081 23.1308 7.56125 16.0579L18.8543 22.5747C14.4485 25.1307 14.5364 28.5257 18.9716 31.0914C23.4067 33.6572 29.6199 33.6474 34.3774 30.8866C39.135 28.1257 39.5257 24.4576 34.944 21.8138C30.3623 19.17 24.706 19.5797 22.3028 20.5748L11.2149 14.1848L46.5692 0L76.9902 17.5408L77 17.531Z" fill="url(#paint0_linear_1_804)"/>
<defs>
<linearGradient id="paint0_linear_1_804" x1="38.51" y1="0" x2="38.51" y2="42.5979" gradientUnits="userSpaceOnUse">
<stop offset="0.34375" stop-color="#D4F93A"/>
<stop offset="1" stop-color="#3CC161"/>
</linearGradient>
</defs>
</svg>
