<svg width="92" height="70" viewBox="0 0 92 70" fill="none" xmlns="http://www.w3.org/2000/svg">
<mask id="mask0_1_831" style="mask-type:luminance" maskUnits="userSpaceOnUse" x="36" y="7" width="12" height="17">
<path d="M47.0873 9.3713L47.0481 22.9294C47.0481 22.3816 46.7053 21.8435 45.8824 21.374C43.0319 19.7306 39.1529 21.4131 36.4003 23.0174L36.4395 9.45934C39.2019 7.85507 43.0711 6.17254 45.9216 7.81594C46.7542 8.29527 47.0971 8.8235 47.0873 9.3713Z" fill="white"/>
</mask>
<g mask="url(#mask0_1_831)">
<path d="M47.0873 9.3713L47.0481 22.9294C47.0481 22.3816 46.7053 21.8435 45.8824 21.374C43.0319 19.7306 39.1529 21.4131 36.4003 23.0174L36.4395 9.45934C39.2019 7.85507 43.0711 6.17254 45.9216 7.81594C46.7542 8.29527 47.0971 8.8235 47.0873 9.3713Z" fill="#36D068"/>
</g>
<mask id="mask1_1_831" style="mask-type:luminance" maskUnits="userSpaceOnUse" x="32" y="9" width="5" height="18">
<path d="M32.4135 26.9401L32.4527 13.382C32.4527 12.0419 34.4804 10.5941 36.4297 9.45937L36.3905 23.0174C34.4314 24.1522 32.4135 25.6097 32.4135 26.9401Z" fill="white"/>
</mask>
<g mask="url(#mask1_1_831)">
<path d="M36.4297 9.45937L36.3905 23.0174C34.4314 24.1522 32.4135 25.6097 32.4135 26.9401L32.4527 13.382C32.4527 12.0419 34.4804 10.5941 36.4297 9.45937Z" fill="#36D068"/>
</g>
<mask id="mask2_1_831" style="mask-type:luminance" maskUnits="userSpaceOnUse" x="52" y="9" width="8" height="24">
<path d="M59.6746 9.97783L59.6354 23.5359C59.6354 26.5097 57.2747 29.6302 52.5826 32.3496L52.6218 18.7915C57.3138 16.0721 59.6648 12.9516 59.6746 9.97783Z" fill="white"/>
</mask>
<g mask="url(#mask2_1_831)">
<path d="M59.6746 9.97783L59.6354 23.5359C59.6354 26.5097 57.2747 29.6302 52.5826 32.3496L52.6218 18.7915C57.3138 16.0721 59.6648 12.9516 59.6746 9.97783Z" fill="#33B568"/>
</g>
<mask id="mask3_1_831" style="mask-type:luminance" maskUnits="userSpaceOnUse" x="19" y="12" width="34" height="25">
<path d="M19.8262 26.2847L19.8654 12.7266C19.8654 15.3091 21.6286 17.784 25.1942 19.8382C32.7662 24.2011 43.8547 23.888 52.6218 18.7915L52.5826 32.3496C43.8156 37.4363 32.727 37.7591 25.155 33.3963C21.5894 31.342 19.8164 28.8672 19.8262 26.2847Z" fill="white"/>
</mask>
<g mask="url(#mask3_1_831)">
<path d="M52.6218 18.7915L52.5826 32.3496C43.8156 37.4363 32.727 37.7591 25.155 33.3963C21.5894 31.342 19.8164 28.8672 19.8262 26.2847L19.8654 12.7266C19.8654 15.3091 21.6286 17.784 25.1942 19.8382C32.7662 24.2011 43.8547 23.888 52.6218 18.7915Z" fill="#33B568"/>
</g>
<path d="M10.1874 36.3407L10.158 49.8988L0 44.0491L0.0391832 30.491L10.1874 36.3407Z" fill="#1D974F"/>
<path d="M92 25.3652L91.9608 38.9232L10.158 49.8988L10.1874 36.3407L92 25.3652Z" fill="#33B568"/>
<mask id="mask4_1_831" style="mask-type:luminance" maskUnits="userSpaceOnUse" x="44" y="40" width="16" height="21">
<path d="M59.4591 42.4741L59.4199 56.0321C59.4199 55.4843 59.0771 54.9463 58.2444 54.467C55.3939 52.8236 51.5247 54.5061 48.7623 56.1006C46.8032 57.2353 44.7853 58.6929 44.7853 60.0232L44.8245 46.4652C44.8245 45.125 46.8522 43.6773 48.8015 42.5425C51.5639 40.9383 55.4331 39.2655 58.2836 40.9089C59.1162 41.3883 59.4591 41.9165 59.4591 42.4741Z" fill="white"/>
</mask>
<g mask="url(#mask4_1_831)">
<path d="M59.4591 42.4741L59.4199 56.0321C59.4199 55.4843 59.0771 54.9463 58.2444 54.467C55.3939 52.8236 51.5247 54.5061 48.7623 56.1006C46.8032 57.2353 44.7853 58.6929 44.7853 60.0232L44.8245 46.4652C44.8245 45.125 46.8522 43.6773 48.8015 42.5425C51.5639 40.9383 55.4331 39.2655 58.2836 40.9089C59.1162 41.3883 59.4591 41.9165 59.4591 42.4741Z" fill="#36D068"/>
</g>
<mask id="mask5_1_831" style="mask-type:luminance" maskUnits="userSpaceOnUse" x="32" y="43" width="41" height="27">
<path d="M72.0562 43.0806L72.017 56.6386C72.017 59.6124 69.6661 62.7231 64.974 65.4524C56.1972 70.5391 45.1184 70.8619 37.5464 66.4991C33.9808 64.4448 32.2078 61.9699 32.2176 59.3874L32.2568 45.8294C32.2568 48.4119 34.0298 50.8867 37.5856 52.941C45.1576 57.3038 56.2461 56.9908 65.0132 51.8943C69.7052 49.1749 72.0562 46.0641 72.0562 43.0806Z" fill="white"/>
</mask>
<g mask="url(#mask5_1_831)">
<path d="M72.0562 43.0806L72.017 56.6386C72.017 59.6124 69.6661 62.7231 64.974 65.4524C56.1972 70.5391 45.1184 70.8619 37.5464 66.4991C33.9808 64.4448 32.2078 61.9699 32.2176 59.3874L32.2568 45.8294C32.2568 48.4119 34.0298 50.8867 37.5856 52.941C45.1576 57.3038 56.2461 56.9908 65.0132 51.8943C69.7052 49.1749 72.0562 46.0641 72.0562 43.0806Z" fill="#33B568"/>
</g>
<path d="M52.6218 18.9272C43.8548 24.014 32.7662 24.3368 25.1942 19.9739C17.6222 15.6111 18.1414 9.194 26.9084 4.10729C35.6755 -0.979429 46.8326 -1.34137 54.4046 3.02147C61.9766 7.38431 61.3888 13.8405 52.6218 18.9272ZM36.4199 9.58529C33.6576 11.1896 30.7581 13.4297 33.6184 15.0731C36.4787 16.7165 40.3284 15.0339 43.1005 13.4297C45.8726 11.8254 48.7623 9.58529 45.9118 7.94189C43.0613 6.29849 39.1823 7.98102 36.4297 9.58529" fill="url(#paint0_linear_1_831)"/>
<path d="M81.9204 19.6871L92 25.4977L10.1874 36.4733L0.0392174 30.6235L81.9204 19.6871Z" fill="url(#paint1_linear_1_831)"/>
<path d="M66.7763 36.1212C74.3483 40.484 73.7704 46.9402 65.0033 52.0269C56.2363 57.1137 45.1477 57.4365 37.5757 53.0736C30.0038 48.7108 30.5131 42.2937 39.29 37.207C48.0668 32.1203 59.2044 31.7583 66.7763 36.1309V36.1212ZM45.9999 48.1826C48.8504 49.826 52.7099 48.1434 55.482 46.5392C58.2542 44.9349 61.1341 42.6948 58.2836 41.0514C55.4331 39.408 51.5638 41.0905 48.8015 42.685C46.0391 44.2795 43.1396 46.5294 45.9999 48.1728" fill="url(#paint2_linear_1_831)"/>
<defs>
<linearGradient id="paint0_linear_1_831" x1="39.7841" y1="0" x2="39.7841" y2="23.0128" gradientUnits="userSpaceOnUse">
<stop offset="0.34375" stop-color="#D4F93A"/>
<stop offset="1" stop-color="#3CC161"/>
</linearGradient>
<linearGradient id="paint1_linear_1_831" x1="46.0196" y1="19.6871" x2="46.0196" y2="36.4733" gradientUnits="userSpaceOnUse">
<stop offset="0.34375" stop-color="#D4F93A"/>
<stop offset="1" stop-color="#3CC161"/>
</linearGradient>
<linearGradient id="paint2_linear_1_831" x1="52.1612" y1="33.1012" x2="52.1612" y2="56.1125" gradientUnits="userSpaceOnUse">
<stop offset="0.34375" stop-color="#D4F93A"/>
<stop offset="1" stop-color="#3CC161"/>
</linearGradient>
</defs>
</svg>
