<svg width="65" height="71" viewBox="0 0 65 71" fill="none" xmlns="http://www.w3.org/2000/svg">
<path d="M48.8956 40.0569L50.9883 38.8406C60.8571 44.538 60.9087 53.7638 51.1046 59.4612C41.3103 65.1528 25.3723 65.1594 15.5043 59.4612C5.64692 53.7696 5.5945 44.5314 15.3888 38.8398C25.1929 33.1425 41.1309 33.1482 50.9891 38.8398L48.8964 40.0561C40.2054 35.0369 26.1397 35.0312 17.4962 40.0561C8.85926 45.0737 8.90513 53.2274 17.5986 58.2449C26.2994 63.2698 40.3643 63.2641 48.9996 58.2449C57.6464 53.2208 57.6005 45.081 48.8972 40.0569H48.8956Z" fill="#58F28A"/>
<path d="M47.9947 35.2917C50.6247 36.9077 53.2613 39.002 54.5243 41.8302C62.4896 59.6807 33.2271 67.2709 17.5979 58.2449C14.157 56.2595 12.0717 53.7827 11.3419 51.2027C10.3877 47.7413 10.699 44.0777 12.1741 41.401C12.5533 40.713 13.4412 39.1027 15.4806 37.3721C17.0295 36.0575 18.8085 34.9599 20.7668 34.1098C24.8908 32.3193 29.7281 31.4888 34.7563 31.7067C41.7863 32.0113 46.3566 34.3145 47.9956 35.2908C47.0626 34.7527 46.287 35.3564 46.2395 35.394C39.0392 31.2332 27.3676 31.2291 20.2058 35.394C13.0472 39.5499 13.0849 46.3186 20.2901 50.4745C27.4995 54.6402 39.171 54.6353 46.3247 50.4745C53.4931 46.3113 53.4554 39.5581 46.2395 35.3949C46.287 35.358 47.0626 34.7535 47.9956 35.2917H47.9947Z" fill="#28A45A"/>
<path d="M58.4239 49.223C57.5909 54.0784 61.2046 60.8356 51.0311 66.7475C35.383 75.8415 7.9667 69.4078 8.00355 56.366L8.07727 49.0797C8.06662 52.8359 10.5443 56.5978 15.5045 59.462C31.0682 68.4479 58.387 62.2968 58.4239 49.223Z" fill="#28A45A"/>
<path d="M46.2466 32.4996C53.4625 36.6629 53.5001 43.416 46.3318 47.5793C39.1781 51.7401 27.5066 51.745 20.2972 47.5793C13.092 43.4234 13.0535 36.6547 20.2129 32.4988C27.3747 28.3339 39.0462 28.338 46.2466 32.4988V32.4996Z" fill="#58F28A"/>
<circle cx="33.2138" cy="31.062" r="23.8135" fill="url(#paint0_linear_1_176)"/>
<path d="M4.02066 21.4057C4.02066 21.4057 3.41799 23.0571 3.38166 23.466C3.34533 23.8749 3.00188 24.6142 4.06063 25.1708C4.06063 25.1708 5.29644 25.7626 5.64412 25.8367C5.64412 25.8367 4.32824 25.3751 3.95748 25.3389C3.58671 25.3026 2.85994 25.1355 2.22012 26.6088L1.5893 28.2342C1.5893 28.2342 2.17649 26.5042 2.23523 26.1467C2.29397 25.7892 2.58252 24.9525 1.46006 24.4167L0.0534302 23.8294C0.0534302 23.8294 1.19435 24.273 1.90419 24.329C2.61404 24.385 3.21218 23.6282 4.02066 21.4057Z" fill="#33B568" stroke="#33B568" stroke-width="0.275772" stroke-miterlimit="10"/>
<circle cx="18.6672" cy="0.816169" r="0.816168" transform="rotate(5.63183 18.6672 0.816169)" fill="white"/>
<circle cx="5.28239" cy="40.9316" r="0.816168" transform="rotate(5.63183 5.28239 40.9316)" fill="#33B568"/>
<circle cx="8.07722" cy="68.4943" r="0.816168" transform="rotate(5.63183 8.07722 68.4943)" fill="white"/>
<circle cx="63.9735" cy="57.7673" r="0.453542" transform="rotate(5.63183 63.9735 57.7673)" fill="white"/>
<circle cx="47.5837" cy="4.1801" r="1.3189" transform="rotate(5.63183 47.5837 4.1801)" fill="#33B568"/>
<path d="M56.5388 10.6713C56.5388 10.6713 55.2175 14.2921 55.1379 15.1885C55.0582 16.085 54.3052 17.7057 56.6264 18.9261C56.6264 18.9261 59.3358 20.2235 60.0981 20.3859C60.0981 20.3859 57.2132 19.374 56.4003 19.2945C55.5874 19.2151 53.9941 18.8487 52.5913 22.0788L51.2083 25.6424C51.2083 25.6424 52.4956 21.8494 52.6244 21.0656C52.7532 20.2818 53.3858 18.4476 50.9249 17.2729L47.841 15.9852C47.841 15.9852 50.3424 16.9577 51.8987 17.0805C53.4549 17.2033 54.7663 15.5441 56.5388 10.6713Z" fill="white" stroke="white" stroke-width="0.275772" stroke-miterlimit="10"/>
<defs>
<linearGradient id="paint0_linear_1_176" x1="33.4765" y1="8.58941" x2="33.4765" y2="54.9201" gradientUnits="userSpaceOnUse">
<stop offset="0.4375" stop-color="#D4F938"/>
<stop offset="1" stop-color="#32D875" stop-opacity="0.96"/>
</linearGradient>
</defs>
</svg>
