<svg width="39" height="32" viewBox="0 0 39 32" fill="none" xmlns="http://www.w3.org/2000/svg">
<path d="M38.9886 12.1372C38.9886 12.1372 29.5221 13.8129 27.4878 14.7618C25.4535 15.7108 21.0141 16.1122 21.2827 22.6478C21.2827 22.6478 21.8703 30.1175 22.4729 31.9657C22.4729 31.9657 21.0495 24.4742 20.2047 22.6204C19.3599 20.7667 18.1583 16.8697 9.43311 17.8811L0.0128319 19.3521C0.0128319 19.3521 9.80842 17.3879 11.6611 16.6858C13.5138 15.9837 18.2635 15.0555 17.7216 8.27566L16.6447 0.0098329C16.6447 0.0098329 17.6735 6.62425 19.3544 10.1366C21.0352 13.6489 26.2559 14.4045 38.9886 12.1372Z" fill="white" stroke="white" stroke-width="0.12813" stroke-miterlimit="10"/>
</svg>
